<svg width="668" height="499" viewBox="0 0 668 499" fill="none" xmlns="http://www.w3.org/2000/svg">
<path d="M328.858 499C510.481 499 657.715 484.59 657.715 466.815C657.715 449.04 510.481 434.63 328.858 434.63C147.235 434.63 0 449.04 0 466.815C0 484.59 147.235 499 328.858 499Z" fill="#3F3D56"/>
<path opacity="0.1" d="M231.108 485.706C316.714 485.706 386.111 475.212 386.111 462.267C386.111 449.322 316.714 438.828 231.108 438.828C145.502 438.828 76.1051 449.322 76.1051 462.267C76.1051 475.212 145.502 485.706 231.108 485.706Z" fill="black"/>
<path d="M153.865 182.433C81.0695 182.433 22.0636 241.569 22.0636 314.51C22.0636 387.451 81.0974 446.588 153.865 446.588C162.834 446.591 171.779 445.681 180.565 443.873C168.024 423.212 161.409 399.487 161.448 375.305C161.448 311.537 206.552 258.319 266.542 245.949C254.793 226.549 238.252 210.512 218.514 199.386C198.777 188.26 176.511 182.421 153.865 182.433Z" fill="#6C63FF"/>
<path opacity="0.1" d="M35.3645 318.309C35.3645 245.368 94.3774 186.239 167.166 186.239C174.252 186.24 181.326 186.808 188.322 187.939C177.087 184.906 165.501 183.375 153.865 183.384C81.0695 183.384 22.0636 242.521 22.0636 315.462C22.0636 381.231 70.0238 435.742 132.807 445.846C104.838 438.27 80.1372 421.673 62.524 398.62C44.9109 375.568 35.3659 347.343 35.3645 318.309Z" fill="black"/>
<path d="M265.914 244.991C285.275 233.218 301.28 216.642 312.384 196.863C323.488 177.085 329.315 154.771 329.305 132.077C329.305 59.1364 270.299 0 197.503 0C124.708 0 65.7086 59.1364 65.7086 132.077C65.7052 141.067 66.6129 150.034 68.4177 158.84C89.0322 146.265 112.709 139.634 136.842 139.676C200.463 139.655 253.569 184.882 265.914 244.991Z" fill="#6C63FF"/>
<path opacity="0.1" d="M317.945 132.077C317.96 152.762 313.12 173.159 303.816 191.623C294.512 210.087 281.005 226.098 264.385 238.365C264.95 240.555 265.474 242.759 265.935 244.991C285.296 233.218 301.301 216.642 312.405 196.863C323.509 177.085 329.336 154.771 329.325 132.077C329.325 59.1364 270.32 0 197.524 0C195.618 0 193.726 0.0489735 191.841 0.132934C261.969 3.12054 317.945 61.0465 317.945 132.077Z" fill="black"/>
<path d="M260.161 304.386C258.002 305.491 255.95 306.793 254.03 308.276C252.102 309.772 250.625 311.775 249.764 314.062C248.57 311.579 247.921 308.878 247.125 306.24C245.601 301.454 243.801 296.761 241.735 292.184C245.137 290.882 248.085 288.613 250.218 285.656C254.407 289.819 258.673 294.157 260.747 299.649C261.103 300.601 262.144 301.615 262.388 302.448C262.716 303.686 261.068 303.882 260.161 304.386Z" fill="#FFBFC5"/>
<path d="M144.788 439.199C144.788 470.418 167.264 473.728 194.996 473.728C222.729 473.728 245.198 470.418 245.198 439.199C245.198 407.98 222.722 396.12 194.996 396.12C167.271 396.12 144.788 407.987 144.788 439.199Z" fill="#3F3D56"/>
<path d="M299.393 405.789C303.949 407.229 308.196 409.507 311.919 412.506C312.199 412.681 312.401 412.956 312.485 413.276C312.582 413.976 311.619 414.29 310.921 414.493C308.826 415.088 307.548 417.026 306.033 418.537C304.518 420.049 302.088 421.245 300.322 420.035C299.858 419.678 299.453 419.251 299.121 418.768L291.664 409.029C294.192 407.61 296.85 406.439 299.603 405.531" fill="#F1F1F1"/>
<path d="M312.806 407.818C313.797 408.826 314.202 410.281 315.194 411.317C315.844 411.941 316.588 412.458 317.4 412.849L323.111 415.998C323.997 416.524 324.933 416.962 325.904 417.306C326.979 417.613 328.073 417.847 329.179 418.006C330.763 418.312 332.312 418.781 333.801 419.405C334.918 419.867 336.168 420.657 336.161 421.868C336.112 422.463 335.867 423.024 335.463 423.463C333.214 426.304 329.228 426.962 325.625 427.318C317.833 428.144 309.859 428.76 302.242 426.92C300.754 426.645 299.347 426.035 298.129 425.135C295.832 423.225 295.337 419.748 296.23 416.886C296.473 415.786 297.121 414.819 298.046 414.178C299.253 413.479 300.755 413.808 302.144 413.703C303.607 413.496 305.024 413.039 306.333 412.352C307.206 411.961 308.205 411.45 308.428 410.414C308.651 409.379 307.471 408.483 307.73 407.616C308.218 405.663 311.898 406.888 312.806 407.818Z" fill="#575A89"/>
<path opacity="0.1" d="M312.806 407.818C313.797 408.826 314.202 410.281 315.194 411.317C315.844 411.941 316.588 412.458 317.4 412.849L323.111 415.998C323.997 416.524 324.933 416.962 325.904 417.306C326.979 417.613 328.073 417.847 329.179 418.006C330.763 418.312 332.312 418.781 333.801 419.405C334.918 419.867 336.168 420.657 336.161 421.868C336.112 422.463 335.867 423.024 335.463 423.463C333.214 426.304 329.228 426.962 325.625 427.318C317.833 428.144 309.859 428.76 302.242 426.92C300.754 426.645 299.347 426.035 298.129 425.135C295.832 423.225 295.337 419.748 296.23 416.886C296.473 415.786 297.121 414.819 298.046 414.178C299.253 413.479 300.755 413.808 302.144 413.703C303.607 413.496 305.024 413.039 306.333 412.352C307.206 411.961 308.205 411.45 308.428 410.414C308.651 409.379 307.471 408.483 307.73 407.616C308.218 405.663 311.898 406.888 312.806 407.818Z" fill="black"/>
<path d="M326.051 439.066L328.453 440.654C329.186 441.047 329.79 441.645 330.191 442.375C330.715 443.6 330.01 444.985 329.228 446.063C326.881 449.279 323.677 451.767 319.983 453.241C318.703 453.775 317.35 454.113 315.969 454.242C315.655 454.294 315.333 454.255 315.04 454.13C314.307 453.738 314.412 452.696 314.405 451.863C314.405 449.463 312.568 447.511 310.914 445.741C309.259 443.971 307.625 441.802 308.002 439.444C308.347 438.043 309.072 436.764 310.097 435.75C310.996 434.612 312.054 433.611 313.239 432.776C314.935 431.663 315.529 432.265 317.121 433.28C320.114 435.187 323.09 437.116 326.051 439.066Z" fill="#F1F1F1"/>
<path d="M318.259 450.779C318.911 450.944 319.593 450.953 320.249 450.804C320.906 450.656 321.518 450.355 322.036 449.925C323.068 449.058 323.904 447.979 324.487 446.762C325.073 445.685 325.582 444.568 326.009 443.418C326.512 442.068 326.973 440.577 328.159 439.759C329.556 438.765 331.609 439.157 333.047 440.116C334.485 441.074 335.574 442.494 336.81 443.726C339.722 446.637 343.555 448.477 347.493 449.68C351.431 450.883 355.515 451.485 359.558 452.262C360.369 452.37 361.154 452.624 361.876 453.011C363.51 454.011 364.062 456.243 363.601 458.104C363.14 459.965 361.932 461.505 360.612 462.904C359.513 464.209 358.149 465.266 356.612 466.003C355.314 466.477 353.949 466.737 352.569 466.773C345.872 467.226 339.145 466.698 332.6 465.206C330.198 464.548 327.753 464.059 325.283 463.744C323.782 463.611 322.26 463.653 320.758 463.548C317.759 463.341 314.826 462.567 312.115 461.267C311.455 461.023 310.9 460.558 310.544 459.951C310.347 459.395 310.306 458.794 310.425 458.216L311.423 449.442C311.514 448.68 311.765 447.728 312.526 447.609C313.288 447.49 313.769 448.239 314.223 448.812C315.104 449.867 316.309 450.599 317.65 450.893C318.991 451.187 320.391 451.026 321.631 450.436" fill="#575A89"/>
<path d="M260.279 340.132C264.671 339.635 269.768 339.551 272.742 342.833C274.565 344.848 275.116 347.668 275.745 350.305C276.73 354.743 278.333 359.021 280.507 363.011C281.903 365.488 283.6 367.804 284.696 370.435C285.792 373.066 286.204 376.032 286.846 378.894C289.419 390.117 295.703 400.138 304.679 407.329C303.094 411.646 298.506 414.116 294.045 415.221C292.968 415.578 291.811 415.615 290.714 415.326C289.883 414.966 289.146 414.42 288.557 413.731C286.472 411.473 284.53 409.087 282.741 406.587C276.31 397.981 269.789 389.2 266.284 379.048C265.055 375.48 263.826 371.352 260.37 369.833C258.401 368.98 256.146 369.246 254.03 369.609C249.303 370.41 244.65 371.606 240.122 373.185C235.29 374.871 229.76 376.942 225.341 374.367C222.695 372.821 221.152 369.861 220.544 366.853C219.937 363.844 220.244 360.738 220.544 357.687C220.574 356.312 220.902 354.961 221.508 353.727C222.12 352.803 222.905 352.007 223.819 351.383C227.767 348.386 232.158 346.025 236.833 344.386C241.295 342.805 246.099 342.287 250.756 341.497C253.916 340.946 257.091 340.491 260.279 340.132Z" fill="#575A89"/>
<path opacity="0.1" d="M260.279 340.132C264.671 339.635 269.768 339.551 272.742 342.833C274.565 344.848 275.116 347.668 275.745 350.305C276.73 354.743 278.333 359.021 280.507 363.011C281.903 365.488 283.6 367.804 284.696 370.435C285.792 373.066 286.204 376.032 286.846 378.894C289.419 390.117 295.703 400.138 304.679 407.329C303.094 411.646 298.506 414.116 294.045 415.221C292.968 415.578 291.811 415.615 290.714 415.326C289.883 414.966 289.146 414.42 288.557 413.731C286.472 411.473 284.53 409.087 282.741 406.587C276.31 397.981 269.789 389.2 266.284 379.048C265.055 375.48 263.826 371.352 260.37 369.833C258.401 368.98 256.146 369.246 254.03 369.609C249.303 370.41 244.65 371.606 240.122 373.185C235.29 374.871 229.76 376.942 225.341 374.367C222.695 372.821 221.152 369.861 220.544 366.853C219.937 363.844 220.244 360.738 220.544 357.687C220.574 356.312 220.902 354.961 221.508 353.727C222.12 352.803 222.905 352.007 223.819 351.383C227.767 348.386 232.158 346.025 236.833 344.386C241.295 342.805 246.099 342.287 250.756 341.497C253.916 340.946 257.091 340.491 260.279 340.132Z" fill="black"/>
<path d="M285.429 371.883C287.48 372.911 289.363 374.243 291.015 375.837C292.795 377.74 293.877 380.196 294.799 382.644C295.161 383.479 295.383 384.368 295.455 385.275C295.489 385.728 295.419 386.183 295.251 386.605C295.083 387.027 294.821 387.405 294.485 387.71C293.674 388.243 292.708 388.49 291.741 388.41C290.47 388.41 289.192 388.41 287.922 388.312C287.147 388.306 286.381 388.159 285.659 387.878C284.999 387.54 284.403 387.088 283.9 386.542C281.661 384.458 279.826 381.977 278.489 379.223C277.567 377.187 276.045 372.485 277.497 370.365C278.95 368.245 283.851 370.981 285.429 371.883Z" fill="#FFBFC5"/>
<path d="M223.826 371.156C230.326 373.255 237.245 373.479 244.039 374.115C255.466 375.187 266.754 377.424 277.728 380.79C279.976 381.49 282.273 382.246 284.081 383.75C285.551 385.112 286.795 386.699 287.768 388.452C289.553 391.176 291.169 394.008 292.607 396.932C293.842 399.577 294.785 402.347 295.93 405.027C299.788 414.003 305.889 421.832 313.644 427.759C315.04 428.844 316.639 430.019 317.002 431.761C317.167 432.885 316.984 434.033 316.478 435.05C314.803 438.961 311.326 441.809 307.674 443.985C306.11 444.922 304.378 445.867 303.61 447.532C298.067 445.237 293.94 440.339 290.512 435.414C287.084 430.488 284.032 425.178 279.634 421.091C277.7 419.286 275.5 417.719 273.971 415.55C271.646 412.248 271.018 407.728 267.89 405.181C264.762 402.634 260.21 402.963 256.167 403.362C235.454 405.385 214.583 405.151 193.921 402.662C189.627 402.151 185.215 401.494 181.493 399.276C177.772 397.058 174.874 392.916 175.398 388.613C175.893 384.582 179.238 381.392 182.973 379.818C186.709 378.243 190.828 377.957 194.843 377.502C204.834 376.396 214.372 374.577 223.826 371.156Z" fill="#575A89"/>
<path d="M164.415 379.517C164.925 376.102 166.244 372.87 167.075 369.519C167.49 367.409 168.017 365.323 168.653 363.27C168.653 363.207 168.702 363.151 168.723 363.095C168.934 363.078 169.138 363.015 169.321 362.91C169.505 362.805 169.663 362.66 169.784 362.487C169.899 362.188 169.93 361.864 169.875 361.549C169.85 361.216 169.85 360.882 169.875 360.549C171.236 358.263 172.723 356.056 174.33 353.937C177.122 349.942 179.58 345.695 182.01 341.455C184.007 337.956 186.004 334.5 187.651 330.848C188.894 328.112 189.935 325.25 191.303 322.605C196.191 313.09 204.932 306.072 214.344 301.034C223.379 296.2 233.147 292.946 242.643 289.098C242.884 289.341 243.106 289.603 243.306 289.882C248.438 296.913 248.989 306.149 251.105 314.601C251.957 318.016 253.095 321.416 253.095 324.928C253.095 330.12 250.616 334.948 248.152 339.517C245.84 343.82 243.46 348.122 240.394 351.922C238.942 353.727 237.343 355.42 235.884 357.204C229.893 364.558 226.437 373.605 223.072 382.483C221.131 387.626 217.947 392.181 215.81 397.247C214.986 399.192 214.512 401.284 213.478 403.131C212.445 404.978 210.651 406.587 208.542 406.629C207.925 406.61 207.313 406.514 206.72 406.342C199.088 404.376 192.7 399.346 186.36 394.63C185.222 393.79 184.084 392.965 182.869 392.209C181.654 391.453 180.425 390.761 179.182 390.11L176.347 388.55C173.261 386.856 170.161 385.156 166.943 383.722C165.971 383.342 165.036 382.873 164.15 382.323C164.159 381.381 164.248 380.443 164.415 379.517Z" fill="#3F3D56"/>
<path d="M264.175 303.798C273.885 303.798 281.756 295.911 281.756 286.181C281.756 276.45 273.885 268.563 264.175 268.563C254.466 268.563 246.594 276.45 246.594 286.181C246.594 295.911 254.466 303.798 264.175 303.798Z" fill="#FFBFC5"/>
<path d="M276.01 277.938C276.438 278.68 277.082 279.272 277.856 279.636C278.63 280 279.496 280.118 280.339 279.974C281.178 279.806 281.972 279.461 282.669 278.963C283.366 278.465 283.949 277.825 284.382 277.085C285.237 275.599 285.748 273.939 285.876 272.229C286.022 270.893 286.002 269.43 285.143 268.388C284.49 267.748 283.738 267.218 282.915 266.82C281.778 266.121 280.821 265.162 280.123 264.022C279.634 263.203 279.278 262.315 278.838 261.475C277.239 258.431 274.125 255.955 270.697 256.067C269.049 256.122 267.478 256.766 265.851 257.032C260.398 257.991 254.477 255.101 249.415 257.354C248.172 257.96 247.017 258.732 245.98 259.649C244.556 260.829 243.187 262.07 241.875 263.371C240.735 264.344 239.872 265.601 239.375 267.016C238.677 269.605 240.317 272.495 239.277 274.958C238.924 275.663 238.501 276.332 238.013 276.952C236.868 278.638 238.111 285.222 238.013 287.258C237.871 288.246 238.122 289.251 238.712 290.057C239.542 290.987 240.932 291.064 242.203 291.078H244.486C244.827 291.103 245.17 291.068 245.498 290.973C245.947 290.776 246.342 290.474 246.65 290.092C248.549 288.084 248.954 281.528 251.712 281.556C252.133 281.528 252.551 281.635 252.906 281.863C253.402 282.227 253.549 282.906 253.905 283.41C254.309 283.889 254.857 284.226 255.466 284.369C256.076 284.513 256.716 284.456 257.291 284.207C258.429 283.678 259.42 282.875 260.175 281.87C260.925 280.867 261.836 279.995 262.87 279.289C264.343 278.428 266.005 278.057 267.436 277.085C268.63 276.273 269.307 275.098 270.383 274.202C271.458 273.306 272.365 273.432 273.51 274.027C275.165 274.944 275.235 276.399 276.01 277.938Z" fill="#3F3D56"/>
<path opacity="0.1" d="M235.388 308.976C239.492 308.389 243.675 308.723 247.635 309.955C248.957 310.261 250.15 310.972 251.049 311.991C251.563 312.76 251.897 313.636 252.026 314.552C252.834 318.767 252.314 323.129 250.539 327.034C250.414 327.229 250.332 327.448 250.297 327.677C250.262 327.906 250.276 328.14 250.337 328.364C250.517 328.644 250.755 328.882 251.035 329.063C251.281 329.302 251.474 329.59 251.601 329.908C251.729 330.227 251.787 330.569 251.773 330.912C251.76 331.255 251.674 331.591 251.521 331.898C251.369 332.205 251.153 332.477 250.888 332.695C250.56 332.932 250.127 333.142 250.064 333.541C250.002 333.94 250.407 334.325 250.728 334.633C251.196 335.092 251.541 335.663 251.732 336.291C251.922 336.92 251.951 337.586 251.817 338.229C251.644 338.745 251.525 339.277 251.461 339.817C251.53 340.481 251.727 341.125 252.04 341.713C252.574 343.044 252.754 344.49 252.564 345.911C252.395 346.582 252.378 347.283 252.515 347.961C252.711 348.41 252.975 348.825 253.297 349.193C254.561 350.9 254.833 353.755 253.004 354.79C253.788 355.195 254.426 355.834 254.83 356.619C255.235 357.404 255.384 358.296 255.259 359.17C256.355 358.589 257.682 359.338 258.597 360.178C259.511 361.017 260.44 362.053 261.676 362.116C262.541 362.158 263.456 361.71 264.238 362.067C265.439 362.606 265.397 364.558 266.577 365.138C267.61 365.656 269.056 364.817 269.936 365.565C270.243 365.824 270.396 366.223 270.697 366.496C271.36 367.111 272.407 366.853 273.315 366.811C275.458 366.727 277.434 368.21 278.545 370.015C279.655 371.82 280.053 374.024 280.339 376.151C280.575 377.32 280.551 378.526 280.269 379.685C280.121 380.26 279.807 380.78 279.366 381.178C278.925 381.576 278.377 381.835 277.79 381.924C267.003 382.623 256.355 380.027 245.847 377.467C242.761 376.711 239.626 375.829 237.05 373.968C234.711 372.268 232.993 369.875 231.317 367.524C228.224 363.179 225.11 358.806 222.897 353.958C220.048 347.724 218.778 340.895 217.535 334.143C217.106 332.334 216.953 330.47 217.081 328.615C217.457 326.447 218.285 324.383 219.511 322.556C220.989 320.137 222.622 317.817 224.398 315.609C227.1 312.271 231.143 309.584 235.388 308.976Z" fill="black"/>
<path d="M236.093 308.276C240.2 307.689 244.386 308.026 248.347 309.263C249.669 309.563 250.864 310.273 251.761 311.292C252.272 312.062 252.606 312.937 252.739 313.852C253.543 318.067 253.023 322.428 251.251 326.335C251.127 326.53 251.044 326.749 251.009 326.978C250.974 327.207 250.988 327.441 251.049 327.664C251.23 327.944 251.468 328.183 251.747 328.364C251.993 328.602 252.186 328.89 252.314 329.209C252.441 329.528 252.5 329.869 252.486 330.212C252.472 330.555 252.386 330.891 252.233 331.198C252.081 331.506 251.865 331.777 251.601 331.995C251.272 332.233 250.839 332.443 250.777 332.842C250.714 333.24 251.119 333.625 251.475 333.933C251.943 334.393 252.288 334.963 252.479 335.592C252.669 336.22 252.698 336.887 252.564 337.529C252.391 338.045 252.272 338.577 252.208 339.118C252.275 339.781 252.47 340.425 252.781 341.014C253.319 342.343 253.502 343.79 253.311 345.212C253.095 345.77 253.05 346.38 253.18 346.964C253.311 347.548 253.612 348.081 254.044 348.493C255.308 350.201 255.58 353.055 253.751 354.133C254.535 354.535 255.174 355.173 255.578 355.957C255.983 356.741 256.132 357.632 256.006 358.506C257.102 357.925 258.429 358.674 259.344 359.513C260.258 360.353 261.187 361.388 262.423 361.451C263.289 361.493 264.196 361.045 264.985 361.402C266.186 361.948 266.144 363.893 267.324 364.481C268.358 364.992 269.803 364.152 270.683 364.901C270.99 365.16 271.143 365.558 271.444 365.831C272.107 366.447 273.154 366.188 274.062 366.146C276.206 366.062 278.181 367.545 279.292 369.351C280.302 371.251 280.913 373.34 281.086 375.487C281.31 376.645 281.286 377.837 281.016 378.985C280.868 379.561 280.554 380.08 280.113 380.478C279.672 380.876 279.124 381.136 278.538 381.224C267.75 381.924 257.102 379.328 246.594 376.767C243.508 376.012 240.366 375.13 237.797 373.269C235.458 371.576 233.74 369.176 232.065 366.825C228.971 362.487 225.857 358.114 223.644 353.265C220.795 347.024 219.525 340.195 218.282 333.45C217.853 331.639 217.7 329.773 217.828 327.916C218.184 325.75 218.991 323.683 220.195 321.85C221.669 319.431 223.302 317.112 225.082 314.909C227.812 311.558 231.855 308.878 236.093 308.276Z" fill="#3F3D56"/>
<path d="M634.8 184.791C636.687 184.431 638.481 183.686 640.07 182.603C641.658 181.521 643.008 180.123 644.036 178.496C645.064 176.87 645.748 175.049 646.045 173.147C646.343 171.245 646.247 169.302 645.765 167.438C645.283 165.575 644.425 163.83 643.243 162.312C642.061 160.794 640.58 159.536 638.893 158.614C637.207 157.693 635.349 157.128 633.435 156.955C631.522 156.782 629.593 157.004 627.769 157.608C633.239 165.554 635.73 175.182 634.8 184.791Z" fill="#F1F1F1"/>
<path d="M656.577 179.102C658.465 178.742 660.258 177.998 661.847 176.915C663.436 175.832 664.786 174.435 665.813 172.808C666.841 171.181 667.525 169.361 667.823 167.459C668.12 165.557 668.025 163.614 667.543 161.75C667.061 159.886 666.202 158.141 665.02 156.624C663.838 155.106 662.358 153.847 660.671 152.926C658.984 152.004 657.126 151.44 655.213 151.267C653.299 151.094 651.371 151.316 649.546 151.92C655.016 159.866 657.507 169.494 656.577 179.102Z" fill="#F1F1F1"/>
<path d="M634.8 184.791C631.298 185.459 627.673 184.767 624.662 182.856C621.65 180.945 619.476 177.957 618.582 174.499C617.687 171.041 618.139 167.371 619.845 164.235C621.551 161.098 624.384 158.729 627.769 157.608C623.029 150.73 616.297 145.476 608.482 142.554C600.667 139.632 592.145 139.185 584.068 141.271C600.924 163.837 608.677 191.939 605.782 219.977C613.566 217.675 620.486 213.096 625.656 206.827C630.826 200.558 634.01 192.885 634.8 184.791Z" fill="#F1F1F1"/>
<path d="M383.576 196.419C375.721 198.104 368.538 202.077 362.928 207.839C357.318 213.602 353.532 220.896 352.045 228.807C355.425 228.735 358.718 229.887 361.318 232.052C363.918 234.216 365.652 237.249 366.2 240.592C366.749 243.934 366.075 247.363 364.304 250.249C362.532 253.134 359.781 255.282 356.556 256.297C361.175 264.573 368.526 270.978 377.346 274.411C386.166 277.844 395.904 278.092 404.886 275.112C388.179 252.49 380.573 224.4 383.576 196.419Z" fill="#F1F1F1"/>
<path d="M352.059 228.807C350.043 228.843 348.058 229.314 346.24 230.187C344.422 231.061 342.812 232.316 341.521 233.868C340.23 235.42 339.287 237.232 338.757 239.182C338.227 241.131 338.122 243.172 338.449 245.166C338.776 247.16 339.528 249.06 340.653 250.737C341.778 252.414 343.25 253.828 344.969 254.884C346.688 255.94 348.614 256.613 350.616 256.857C352.618 257.101 354.648 256.91 356.57 256.297C351.907 247.944 350.311 238.217 352.059 228.807Z" fill="#F1F1F1"/>
<path d="M326.372 234.894C324.356 234.931 322.371 235.401 320.553 236.275C318.735 237.148 317.125 238.403 315.834 239.955C314.543 241.507 313.6 243.319 313.07 245.269C312.54 247.219 312.435 249.26 312.762 251.254C313.089 253.247 313.841 255.147 314.966 256.824C316.091 258.501 317.563 259.915 319.282 260.972C321.001 262.028 322.927 262.7 324.929 262.944C326.93 263.188 328.961 262.997 330.883 262.385C326.224 254.029 324.628 244.304 326.372 234.894Z" fill="#F1F1F1"/>
<path d="M541.435 106.77L518.806 134.554C519.893 136.26 520.847 138.048 521.662 139.9L546.574 109.317C544.863 108.386 543.167 107.533 541.435 106.77Z" fill="#F1F1F1"/>
<path d="M605.782 219.977C600.601 221.486 595.171 221.949 589.81 221.339C584.448 220.728 579.261 219.057 574.549 216.422C569.838 213.786 565.695 210.239 562.362 205.986C559.03 201.733 556.573 196.86 555.135 191.648C553.697 186.436 553.307 180.99 553.986 175.625C554.666 170.261 556.401 165.085 559.093 160.399C561.785 155.712 565.379 151.608 569.666 148.324C573.953 145.041 578.849 142.643 584.068 141.271C575.038 129.242 563.698 119.146 550.714 111.577L556.845 116.593L525.146 155.509C525.318 163.189 523.325 170.761 519.396 177.357C515.467 183.953 509.761 189.304 502.933 192.796C496.106 196.288 488.434 197.78 480.799 197.099C473.163 196.419 465.874 193.594 459.769 188.949C453.664 184.304 448.99 178.028 446.284 170.841C443.578 163.654 442.95 155.848 444.472 148.319C445.994 140.791 449.605 133.845 454.889 128.28C460.173 122.715 466.916 118.757 474.344 116.859L471.796 114.76L486.458 96.7717C460.384 98.6922 435.807 109.716 417.008 127.924C398.209 146.132 386.379 170.371 383.577 196.419C393.779 194.206 404.44 196.001 413.36 201.435C422.28 206.869 428.779 215.527 431.514 225.622C434.25 235.717 433.014 246.48 428.062 255.689C423.109 264.897 414.818 271.85 404.9 275.111C418.307 293.244 436.87 306.893 458.154 314.268C479.438 321.643 502.45 322.399 524.171 316.438C545.891 310.476 565.307 298.076 579.871 280.862C594.435 263.648 603.467 242.425 605.782 219.977ZM484.817 293.996C478.571 288.889 473.977 282.041 471.615 274.318C469.253 266.595 469.229 258.344 471.547 250.607C473.865 242.871 478.421 235.997 484.638 230.855C490.854 225.713 498.453 222.534 506.473 221.719C514.492 220.905 522.573 222.492 529.692 226.28C536.812 230.069 542.651 235.887 546.47 243.001C550.289 250.114 551.918 258.202 551.15 266.243C550.382 274.284 547.251 281.916 542.154 288.174C535.321 296.565 525.441 301.892 514.689 302.983C503.936 304.075 493.191 300.842 484.817 293.996Z" fill="#F1F1F1"/>
<path d="M509.352 97.4436C507.141 97.1497 504.921 96.9165 502.691 96.7439L487.275 115.677C489.438 115.822 491.587 116.143 493.698 116.636L509.352 97.4436Z" fill="#F1F1F1"/>
<path d="M510.379 124.962L529.14 101.928C527.213 101.299 525.276 100.725 523.331 100.207L505.826 121.694C507.343 122.633 508.799 123.668 510.183 124.794L510.379 124.962Z" fill="#F1F1F1"/>
</svg>
