<svg width="810" height="419" viewBox="0 0 810 419" fill="none" xmlns="http://www.w3.org/2000/svg">
<g clip-path="url(#clip0_59:1051)">
<path d="M353.545 4.89144L288.332 235.113L697.143 350.522L762.357 120.301L353.545 4.89144Z" fill="#3F3D56"/>
<path d="M360.607 17.9007C362.477 17.9007 363.993 16.3874 363.993 14.5207C363.993 12.6539 362.477 11.1406 360.607 11.1406C358.737 11.1406 357.221 12.6539 357.221 14.5207C357.221 16.3874 358.737 17.9007 360.607 17.9007Z" fill="#6C63FF"/>
<path d="M371.033 20.8438C372.903 20.8438 374.419 19.3305 374.419 17.4638C374.419 15.597 372.903 14.0837 371.033 14.0837C369.163 14.0837 367.647 15.597 367.647 17.4638C367.647 19.3305 369.163 20.8438 371.033 20.8438Z" fill="#6C63FF"/>
<path d="M381.459 23.787C383.328 23.787 384.844 22.2737 384.844 20.4069C384.844 18.5402 383.328 17.0269 381.459 17.0269C379.589 17.0269 378.073 18.5402 378.073 20.4069C378.073 22.2737 379.589 23.787 381.459 23.787Z" fill="#6C63FF"/>
<path d="M570.506 150.975C565.033 149.942 559.404 150.075 553.986 151.364C555.563 145.957 555.962 140.274 555.154 134.7C549.575 136.716 544.526 139.969 540.387 144.213C539.088 138.433 536.493 133.023 532.798 128.389C529.185 132.715 526.544 137.764 525.051 143.196C521.112 139.265 516.385 136.209 511.181 134.227C511.181 134.227 508.716 146.746 514.652 157.019C519.935 166.162 530.087 170.441 532.257 171.272L532.307 171.332L532.335 171.302C532.555 171.385 532.678 171.427 532.678 171.427C532.678 171.427 532.725 171.187 532.789 170.758C532.828 170.71 532.868 170.661 532.911 170.607C532.919 170.675 532.927 170.738 532.935 170.799C532.765 171.198 532.678 171.427 532.678 171.427C532.678 171.427 532.806 171.456 533.037 171.5L533.044 171.54L533.119 171.515C535.404 171.942 546.296 173.604 555.593 168.577C566.039 162.929 570.506 150.975 570.506 150.975Z" fill="#6C63FF"/>
<path d="M550.246 118.996C555.107 118.996 559.049 115.061 559.049 110.208C559.049 105.354 555.107 101.42 550.246 101.42C545.384 101.42 541.443 105.354 541.443 110.208C541.443 115.061 545.384 118.996 550.246 118.996Z" fill="#6C63FF"/>
<path d="M660.778 224.309L396.227 149.625L394.599 155.371L659.151 230.055L660.778 224.309Z" fill="#6C63FF"/>
<path d="M458.492 198.114L412.88 185.237L399.982 230.772L445.594 243.649L458.492 198.114Z" fill="#6C63FF"/>
<path d="M543.201 222.028L497.589 209.151L484.69 254.686L530.303 267.563L543.201 222.028Z" fill="#6C63FF"/>
<path d="M627.91 245.941L582.298 233.065L569.399 278.6L615.011 291.476L627.91 245.941Z" fill="#6C63FF"/>
<path d="M437.15 251.1L403.266 241.535L402.161 245.438L436.044 255.003L437.15 251.1Z" fill="#6C63FF"/>
<path d="M521.859 275.014L487.975 265.448L486.87 269.352L520.753 278.917L521.859 275.014Z" fill="#6C63FF"/>
<path d="M606.567 298.928L572.684 289.362L571.578 293.265L605.462 302.831L606.567 298.928Z" fill="#6C63FF"/>
<path d="M231.08 324.207C356.235 324.207 457.692 320.462 457.692 315.843C457.692 311.224 356.235 307.479 231.08 307.479C105.926 307.479 4.46851 311.224 4.46851 315.843C4.46851 320.462 105.926 324.207 231.08 324.207Z" fill="#D0CDE1"/>
<path d="M633.658 419C731.049 419 810 415.255 810 410.636C810 406.016 731.049 402.272 633.658 402.272C536.266 402.272 457.315 406.016 457.315 410.636C457.315 415.255 536.266 419 633.658 419Z" fill="#D0CDE1"/>
<path d="M547.169 345.715H598.043V366.955H568.444V388.194H598.046V409.432H547.169V345.715ZM608.219 345.715H659.095V364.184H629.495V367.878H659.095V410.357H608.22V390.962H637.82V387.268H608.218V345.715H608.219ZM669.271 345.715H720.147V364.184H690.547V367.878H720.147V410.357H669.271V390.962H698.871V387.268H669.272V345.715H669.271Z" fill="#3F3D56"/>
<path d="M102.526 248.532H123.513V269.232H142.712V248.532H163.701V311.217H142.713V290.227H123.515V311.217H102.527V248.532H102.526ZM191.299 269.32H172.825V248.532H230.775V269.32H212.29V311.217H191.303V269.32H191.299ZM239.972 248.532H261.855L275.317 270.558L288.765 248.532H310.658V311.217H289.756V280.147L275.317 302.435H274.955L260.507 280.147V311.217H239.972V248.532ZM321.102 248.532H342.096V290.498H371.61V311.217H321.101V248.532H321.102Z" fill="#3F3D56"/>
<path d="M65.4573 291.62L63.7354 311.11L77.5156 309.963V293.34L65.4573 291.62Z" fill="#FFB8B8"/>
<path d="M52.8253 291.62L54.5481 311.11L40.7678 309.963V293.34L52.8253 291.62Z" fill="#FFB8B8"/>
<path d="M88.9993 142.01C88.9993 142.01 93.5928 169.525 93.5928 173.537C93.5928 177.55 91.8703 203.345 88.9993 208.504C86.1284 213.663 85.5542 215.956 86.7026 218.248C87.8509 220.541 87.2768 219.968 86.7026 221.688C86.1284 223.407 84.98 222.834 86.7026 225.127C87.406 226.136 87.783 227.337 87.783 228.566C87.783 229.796 87.406 230.996 86.7026 232.006C85.5542 233.725 88.9993 280.156 84.4058 283.595C79.8123 287.035 78.6639 298.499 78.6639 298.499L63.735 296.779V284.168C63.735 284.168 60.2899 274.997 62.5866 269.265C64.8834 263.533 66.0317 233.152 66.0317 233.152C66.0317 233.152 65.4576 230.286 66.0317 228.566C66.6059 226.847 66.0318 225.7 64.8834 225.127C63.735 224.554 63.1608 222.261 63.1608 222.261L61.4382 180.416L54.548 221.688C54.548 221.688 61.4382 277.863 54.548 285.315V298.499H39.619L41.9158 284.168C41.9158 284.168 37.3223 270.984 39.619 268.118C41.9158 265.252 32.7288 219.395 33.8771 217.675C35.0255 215.956 34.4513 215.382 33.8771 214.236C33.3029 213.089 31.5804 211.943 32.1546 210.797C32.7288 209.65 32.1546 207.357 32.1546 207.357C32.1546 207.357 21.245 153.475 26.4127 148.316C31.5804 143.157 88.9993 142.01 88.9993 142.01Z" fill="#2F2E41"/>
<path d="M67.1802 303.658C67.1802 303.658 68.3286 298.16 77.5156 300.049C77.5156 300.049 79.8124 304.804 79.8124 307.097C79.8124 309.39 82.1091 324.867 82.1091 324.867C82.1091 324.867 91.2962 340.344 79.8124 340.344C68.3286 340.344 64.3093 336.331 63.7351 332.319C63.1609 328.306 64.3093 327.16 62.0125 325.44C59.7157 323.72 58.5674 323.72 59.1416 321.427C59.7158 319.135 60.8641 307.67 60.8641 307.67C60.8641 307.67 61.4383 299.072 64.5964 301.365L67.7544 303.658" fill="#2F2E41"/>
<path d="M51.1029 303.658C51.1029 303.658 49.9545 298.16 40.7675 300.049C40.7675 300.049 38.4707 304.804 38.4707 307.097C38.4707 309.39 36.1739 324.867 36.1739 324.867C36.1739 324.867 26.9869 340.344 38.4707 340.344C49.9545 340.344 53.9738 336.331 54.548 332.319C55.1222 328.306 53.9738 327.16 56.2706 325.44C58.5673 323.72 59.7157 323.72 59.1415 321.427C58.5673 319.135 57.4189 307.67 57.4189 307.67C57.4189 307.67 56.8448 299.072 53.6867 301.365L50.5287 303.658" fill="#2F2E41"/>
<path d="M67.7543 36.5385C76.3165 36.5385 83.2575 29.6092 83.2575 21.0616C83.2575 12.5139 76.3165 5.58472 67.7543 5.58472C59.1922 5.58472 52.2512 12.5139 52.2512 21.0616C52.2512 29.6092 59.1922 36.5385 67.7543 36.5385Z" fill="#FFB8B8"/>
<path d="M55.1222 23.3545C55.1222 23.3545 48.8061 48.0028 47.6577 48.576C46.5093 49.1493 74.0705 51.4421 74.0705 51.4421C74.0705 51.4421 67.1802 30.2331 74.0705 26.7938L55.1222 23.3545Z" fill="#FFB8B8"/>
<path d="M51.0886 38.375L51.0878 38.3718L32.1547 51.4421L35.5998 154.048C35.5998 154.048 60.8641 151.182 66.606 151.755C72.3479 152.328 90.722 146.596 90.722 146.596L82.6738 50.1817C82.5166 48.2978 81.6894 46.5322 80.3419 45.2039C78.9944 43.8757 77.2153 43.0725 75.3263 42.9395L71.8779 42.6968C71.8779 42.6968 68.433 51.2116 58.0683 46.8188C56.3207 46.0599 54.7776 44.8994 53.5646 43.4321C52.3517 41.9647 51.5033 40.2319 51.0886 38.375Z" fill="#D0CDE1"/>
<path d="M51.5464 37.4392L28.1353 48.5761L23.5418 114.496C23.5418 114.496 14.3548 154.048 21.8192 165.512C29.2837 176.977 41.9159 178.123 41.9159 178.123C41.9159 178.123 58.5674 112.203 53.9739 89.8478C49.3803 67.4923 51.5464 37.4392 51.5464 37.4392Z" fill="#575A89"/>
<path d="M7.46448 136.852V145.45C7.46448 145.45 4.01934 164.366 14.9289 163.793C25.8385 163.22 20.6708 143.157 20.6708 143.157L17.2257 136.852H7.46448Z" fill="#FFB8B8"/>
<path d="M108.522 154.048L107.373 163.793C107.373 163.793 113.115 183.282 102.206 183.855C91.2961 184.429 99.2151 163.912 99.2151 163.912L102.78 152.902L108.522 154.048Z" fill="#FFB8B8"/>
<path d="M71.5323 40.6934C81.9946 43.266 91.6896 48.2973 99.8096 55.368L99.9089 55.4545L91.8703 97.8726L90.7219 113.349C90.7219 113.349 111.967 189.014 87.2767 178.123C87.2767 178.123 66.0317 112.203 68.9027 81.8225C71.7736 51.442 71.5323 40.6934 71.5323 40.6934Z" fill="#575A89"/>
<path d="M92.4445 54.8814C93.0187 54.3082 99.909 55.678 99.909 55.678C99.909 55.678 112.541 100.166 112.541 107.617C112.541 115.069 114.264 157.487 114.264 157.487L99.107 159.013L86.8387 100.077L92.4445 54.8814Z" fill="#575A89"/>
<path d="M32.1546 48.5759H28.1353C28.1353 48.5759 16.6515 53.1617 16.0773 58.3206C15.5031 63.4796 0 115.642 0 115.642L4.01933 142.01L18.9483 139.718L21.8192 110.483L36.7481 78.3833L32.1546 48.5759Z" fill="#575A89"/>
<path d="M64.7425 25.3811L65.3369 21.2445C65.4754 20.2804 66.0407 19.0127 66.9803 19.2749C67.7795 19.4979 69.5207 20.1809 69.8122 19.9747C70.904 19.2027 72.5561 20.5527 73.7041 19.8668C74.1851 19.5795 74.4988 18.9638 75.0579 18.9227C75.4329 18.9466 75.7864 19.1065 76.0517 19.3722C76.7969 20.0192 77.675 20.4954 78.6243 20.7674C79.1006 20.8968 79.6028 20.8968 80.0791 20.7672C80.5553 20.6376 80.9881 20.3832 81.3327 20.0304C81.4544 19.8425 81.6184 19.6855 81.8116 19.5721C82.0384 19.5068 82.2804 19.5179 82.5003 19.6037L85.4336 20.401C85.865 18.8395 85.9536 17.2034 85.6933 15.6045C85.4331 14.0056 84.8301 12.4817 83.9256 11.1369C82.7356 9.52442 81.293 8.114 79.6533 6.95994C77.8367 5.58033 75.9621 4.2827 74.0293 3.06706C71.9802 1.6197 69.6542 0.609502 67.1966 0.0994986C64.723 -0.27549 61.9533 0.3954 60.3974 2.35142C59.6655 1.82265 59.1155 1.0808 58.8226 0.22761C58.6481 0.386065 58.5106 0.580828 58.4198 0.798133C58.329 1.01544 58.2871 1.24999 58.297 1.48524C58.3069 1.7205 58.3684 1.95071 58.4772 2.15963C58.586 2.36855 58.7394 2.55109 58.9266 2.69436L56.4458 1.11287C55.7484 1.84387 57.1109 3.16939 56.5167 3.98621C56.337 4.18823 56.1064 4.33854 55.8489 4.42153C54.5019 4.94565 53.2673 5.72136 52.2114 6.70711C50.8745 8.22765 49.8956 10.0278 49.3467 11.9753C47.8684 16.2091 46.794 21.0644 48.8943 25.0275C49.1324 25.4768 52.2755 32.8926 52.6942 33.1817C54.1097 34.1593 53.1883 31.7935 54.2026 33.1817C54.9979 34.2703 54.849 30.1039 56.0311 31.0185C56.4946 31.3495 57.0442 31.5393 57.6135 31.5648C58.1827 31.5904 58.7472 31.4506 59.2385 31.1625C59.7286 30.8232 59.5707 28.939 59.3063 27.2088C59.2557 26.8792 59.2869 26.5423 59.3971 26.2276C59.5073 25.9128 59.6931 25.6299 59.9383 25.4035C60.1835 25.1772 60.4806 25.0143 60.8035 24.9292C61.1264 24.8441 61.4653 24.8394 61.7905 24.9155C63.2627 25.2613 64.7173 25.5567 64.7425 25.3811Z" fill="#2F2E41"/>
<path opacity="0.2" d="M93.8804 106.757L100.196 158.92H96.1768L93.8804 106.757Z" fill="black"/>
<path opacity="0.2" d="M27.274 86.6948L24.0807 106.757L30.1449 86.6948H28.4222H27.274Z" fill="black"/>
</g>
<defs>
<clipPath id="clip0_59:1051">
<rect width="810" height="419" fill="white"/>
</clipPath>
</defs>
</svg>
