<svg width="25" height="25" viewBox="0 0 25 25" fill="none" xmlns="http://www.w3.org/2000/svg">
<path d="M12.5001 0C5.59736 0 0 5.63473 0 12.5857C0 18.1464 3.58164 22.8642 8.54834 24.5283C9.17305 24.6448 9.40244 24.2553 9.40244 23.9228C9.40244 23.6228 9.39072 22.6313 9.38545 21.5798C5.90791 22.341 5.17412 20.0947 5.17412 20.0947C4.60547 18.64 3.78613 18.2531 3.78613 18.2531C2.65205 17.472 3.87168 17.4881 3.87168 17.4881C5.12686 17.5768 5.78779 18.7851 5.78779 18.7851C6.90273 20.7091 8.71211 20.1529 9.42539 19.8312C9.5376 19.0179 9.86152 18.4625 10.219 18.1483C7.44258 17.8301 4.52393 16.7509 4.52393 11.9284C4.52393 10.5543 5.01221 9.43156 5.81182 8.55017C5.68203 8.23317 5.2542 6.95317 5.93291 5.2195C5.93291 5.2195 6.98262 4.88126 9.37139 6.50963C10.3685 6.23078 11.4378 6.09096 12.5001 6.08614C13.5624 6.09096 14.6326 6.23068 15.6315 6.50963C18.0174 4.88136 19.0656 5.2196 19.0656 5.2196C19.746 6.95307 19.318 8.23327 19.1882 8.55017C19.9896 9.43156 20.4746 10.5543 20.4746 11.9284C20.4746 16.7624 17.5504 17.8268 14.7669 18.1384C15.2152 18.5289 15.6147 19.2949 15.6147 20.4691C15.6147 22.153 15.6003 23.5083 15.6003 23.9228C15.6003 24.2578 15.8253 24.6503 16.4589 24.5266C21.4229 22.8606 25 18.1447 25 12.5858C25 5.63473 19.4034 0 12.5001 0ZM4.68174 17.9286C4.6542 17.9912 4.55645 18.01 4.46748 17.967C4.37676 17.926 4.32588 17.8407 4.35518 17.778C4.38213 17.7136 4.48008 17.6956 4.57051 17.7388C4.66133 17.7799 4.71309 17.8659 4.68174 17.9286ZM5.29658 18.481C5.23701 18.5367 5.12041 18.5108 5.04131 18.4229C4.95957 18.3352 4.94424 18.2178 5.00469 18.1614C5.06621 18.1057 5.1792 18.1318 5.26113 18.2195C5.34297 18.3083 5.35879 18.4248 5.29658 18.481ZM5.71846 19.1878C5.6418 19.2414 5.5166 19.1911 5.43916 19.0792C5.3626 18.9673 5.3626 18.8331 5.44082 18.7794C5.51846 18.7256 5.6418 18.7739 5.72021 18.885C5.79658 18.9988 5.79668 19.1329 5.71846 19.1878ZM6.43174 20.0063C6.36328 20.0825 6.21729 20.062 6.11045 19.9582C6.00117 19.8567 5.9708 19.7128 6.03955 19.6366C6.10889 19.5603 6.25566 19.5818 6.36328 19.6848C6.47168 19.7861 6.50488 19.9311 6.43174 20.0063ZM7.35381 20.2826C7.32354 20.3813 7.18291 20.4261 7.04141 20.3842C6.9 20.341 6.80752 20.2256 6.83604 20.126C6.86543 20.0267 7.00664 19.9801 7.14922 20.0249C7.29043 20.0678 7.3832 20.1824 7.35381 20.2826ZM8.40303 20.3999C8.40654 20.5037 8.28652 20.5897 8.13789 20.5917C7.98848 20.595 7.86748 20.5111 7.86582 20.4088C7.86582 20.3041 7.9832 20.2188 8.13272 20.2163C8.28135 20.2133 8.40303 20.2967 8.40303 20.3999ZM9.43379 20.3601C9.45156 20.4614 9.34834 20.5654 9.20068 20.5932C9.05566 20.6198 8.92129 20.5573 8.90283 20.4569C8.88486 20.353 8.99004 20.249 9.13486 20.2222C9.28271 20.1963 9.41494 20.2572 9.43379 20.3601Z" fill="#6C63FF"/>
</svg>
