<svg width="1030" height="710" viewBox="0 0 1030 710" fill="none" xmlns="http://www.w3.org/2000/svg">
<g clip-path="url(#clip0_9:250)">
<path d="M875 0H0V470.679H875V0Z" fill="#3F3D56"/>
<path d="M165.895 66.358H158.179V78.7037H165.895V66.358Z" fill="#6C63FF"/>
<path d="M192.13 63.2716H184.414V75.6173H192.13V63.2716Z" fill="#6C63FF"/>
<path d="M206.019 63.2716H198.302V75.6173H206.019V63.2716Z" fill="#6C63FF"/>
<path d="M206.019 100.309H198.302V112.654H206.019V100.309Z" fill="#6C63FF"/>
<path d="M221.451 81.7901H213.735V94.1358H221.451V81.7901Z" fill="#6C63FF"/>
<path d="M221.451 101.852H213.735V114.197H221.451V101.852Z" fill="#6C63FF"/>
<path d="M206.019 140.432H198.302V152.778H206.019V140.432Z" fill="#6C63FF"/>
<path d="M221.451 160.494H213.735V172.84H221.451V160.494Z" fill="#6C63FF"/>
<path d="M206.019 236.111H198.302V248.457H206.019V236.111Z" fill="#6C63FF"/>
<path d="M192.13 160.494H184.414V172.84H192.13V160.494Z" fill="#6C63FF"/>
<path d="M165.895 86.4197H158.179V98.7654H165.895V86.4197Z" fill="#6C63FF"/>
<path d="M165.895 279.321H158.179V291.667H165.895V279.321Z" fill="#6C63FF"/>
<path d="M165.895 319.444H158.179V331.79H165.895V319.444Z" fill="#6C63FF"/>
<path d="M165.895 339.506H158.179V351.852H165.895V339.506Z" fill="#6C63FF"/>
<path d="M165.895 108.025H155.093V109.568H165.895V108.025Z" fill="#6C63FF"/>
<path d="M207.562 126.543H196.759V128.086H207.562V126.543Z" fill="#6C63FF"/>
<path d="M165.895 206.79H155.093V208.333H165.895V206.79Z" fill="#6C63FF"/>
<path d="M165.895 223.765H155.093V225.309H165.895V223.765Z" fill="#6C63FF"/>
<path d="M207.562 322.531H196.759V324.074H207.562V322.531Z" fill="#6C63FF"/>
<path d="M195.216 359.568H184.414V361.111H195.216V359.568Z" fill="#6C63FF"/>
<path d="M158.179 121.914V125H161.265V131.173H158.179V134.259H165.895V121.914H158.179Z" fill="#6C63FF"/>
<path d="M184.414 100.309V103.395H187.5V109.568H184.414V112.654H192.13V100.309H184.414Z" fill="#6C63FF"/>
<path d="M213.735 120.37V123.457H216.821V129.63H213.735V132.716H221.451V120.37H213.735Z" fill="#6C63FF"/>
<path d="M213.735 180.556V183.642H216.821V189.815H213.735V192.901H221.451V180.556H213.735Z" fill="#6C63FF"/>
<path d="M213.735 200.617V203.704H216.821V209.877H213.735V212.963H221.451V200.617H213.735Z" fill="#6C63FF"/>
<path d="M213.735 138.889V141.975H216.821V148.148H213.735V151.235H221.451V138.889H213.735Z" fill="#6C63FF"/>
<path d="M198.302 81.79V84.877H201.389V91.049H198.302V94.136H206.019V81.79H198.302Z" fill="#6C63FF"/>
<path d="M206.019 180.556H198.302V192.901H206.019V180.556Z" fill="#6C63FF"/>
<path d="M206.019 217.593H198.302V229.938H206.019V217.593Z" fill="#6C63FF"/>
<path d="M198.302 199.074V202.16H201.389V208.333H198.302V211.42H206.019V199.074H198.302Z" fill="#6C63FF"/>
<path d="M184.414 120.37V123.457H187.5V129.63H184.414V132.716H192.13V120.37H184.414Z" fill="#6C63FF"/>
<path d="M184.414 140.432V143.519H187.5V149.691H184.414V152.778H192.13V140.432H184.414Z" fill="#6C63FF"/>
<path d="M192.13 200.617H184.414V212.963H192.13V200.617Z" fill="#6C63FF"/>
<path d="M184.414 180.556V183.642H187.5V189.815H184.414V192.901H192.13V180.556H184.414Z" fill="#6C63FF"/>
<path d="M192.13 240.741H184.414V253.086H192.13V240.741Z" fill="#6C63FF"/>
<path d="M184.414 220.679V223.765H187.5V229.938H184.414V233.025H192.13V220.679H184.414Z" fill="#6C63FF"/>
<path d="M192.13 280.864H184.414V293.21H192.13V280.864Z" fill="#6C63FF"/>
<path d="M206.019 277.778H198.302V290.124H206.019V277.778Z" fill="#6C63FF"/>
<path d="M184.414 260.802V263.889H187.5V270.062H184.414V273.148H192.13V260.802H184.414Z" fill="#6C63FF"/>
<path d="M213.735 260.802V263.889H216.821V270.062H213.735V273.148H221.451V260.802H213.735Z" fill="#6C63FF"/>
<path d="M300.154 81.7901H292.438V94.1358H300.154V81.7901Z" fill="#6C63FF"/>
<path d="M300.154 101.852H292.438V114.197H300.154V101.852Z" fill="#6C63FF"/>
<path d="M300.154 160.494H292.438V172.84H300.154V160.494Z" fill="#6C63FF"/>
<path d="M292.438 120.37V123.457H295.525V129.63H292.438V132.716H300.154V120.37H292.438Z" fill="#6C63FF"/>
<path d="M292.438 180.556V183.642H295.525V189.815H292.438V192.901H300.154V180.556H292.438Z" fill="#6C63FF"/>
<path d="M292.438 200.617V203.704H295.525V209.877H292.438V212.963H300.154V200.617H292.438Z" fill="#6C63FF"/>
<path d="M292.438 138.889V141.975H295.525V148.148H292.438V151.235H300.154V138.889H292.438Z" fill="#6C63FF"/>
<path d="M292.438 260.802V263.889H295.525V270.062H292.438V273.148H300.154V260.802H292.438Z" fill="#6C63FF"/>
<path d="M192.13 320.988H184.414V333.333H192.13V320.988Z" fill="#6C63FF"/>
<path d="M206.019 297.839H198.302V310.185H206.019V297.839Z" fill="#6C63FF"/>
<path d="M192.13 373.457H184.414V385.802H192.13V373.457Z" fill="#6C63FF"/>
<path d="M206.019 336.42H198.302V348.765H206.019V336.42Z" fill="#6C63FF"/>
<path d="M184.414 300.926V304.012H187.5V310.185H184.414V313.272H192.13V300.926H184.414Z" fill="#6C63FF"/>
<path d="M184.414 395.062V398.148H187.5V404.321H184.414V407.407H192.13V395.062H184.414Z" fill="#6C63FF"/>
<path d="M277.006 63.2716H269.29V75.6173H277.006V63.2716Z" fill="#6C63FF"/>
<path d="M277.006 160.494H269.29V172.84H277.006V160.494Z" fill="#6C63FF"/>
<path d="M280.093 359.568H269.29V361.111H280.093V359.568Z" fill="#6C63FF"/>
<path d="M269.29 100.309V103.395H272.377V109.568H269.29V112.654H277.006V100.309H269.29Z" fill="#6C63FF"/>
<path d="M269.29 120.37V123.457H272.377V129.63H269.29V132.716H277.006V120.37H269.29Z" fill="#6C63FF"/>
<path d="M269.29 140.432V143.519H272.377V149.691H269.29V152.778H277.006V140.432H269.29Z" fill="#6C63FF"/>
<path d="M277.006 200.617H269.29V212.963H277.006V200.617Z" fill="#6C63FF"/>
<path d="M269.29 180.556V183.642H272.377V189.815H269.29V192.901H277.006V180.556H269.29Z" fill="#6C63FF"/>
<path d="M277.006 240.741H269.29V253.086H277.006V240.741Z" fill="#6C63FF"/>
<path d="M269.29 220.679V223.765H272.377V229.938H269.29V233.025H277.006V220.679H269.29Z" fill="#6C63FF"/>
<path d="M277.006 280.864H269.29V293.21H277.006V280.864Z" fill="#6C63FF"/>
<path d="M269.29 260.802V263.889H272.377V270.062H269.29V273.148H277.006V260.802H269.29Z" fill="#6C63FF"/>
<path d="M277.006 320.988H269.29V333.333H277.006V320.988Z" fill="#6C63FF"/>
<path d="M277.006 373.457H269.29V385.802H277.006V373.457Z" fill="#6C63FF"/>
<path d="M269.29 300.926V304.012H272.377V310.185H269.29V313.272H277.006V300.926H269.29Z" fill="#6C63FF"/>
<path d="M269.29 395.062V398.148H272.377V404.321H269.29V407.407H277.006V395.062H269.29Z" fill="#6C63FF"/>
<path d="M314.043 63.2716H306.327V75.6173H314.043V63.2716Z" fill="#6C63FF"/>
<path d="M314.043 160.494H306.327V172.84H314.043V160.494Z" fill="#6C63FF"/>
<path d="M317.13 359.568H306.327V361.111H317.13V359.568Z" fill="#6C63FF"/>
<path d="M306.327 100.309V103.395H309.414V109.568H306.327V112.654H314.043V100.309H306.327Z" fill="#6C63FF"/>
<path d="M306.327 120.37V123.457H309.414V129.63H306.327V132.716H314.043V120.37H306.327Z" fill="#6C63FF"/>
<path d="M306.327 140.432V143.519H309.414V149.691H306.327V152.778H314.043V140.432H306.327Z" fill="#6C63FF"/>
<path d="M314.043 200.617H306.327V212.963H314.043V200.617Z" fill="#6C63FF"/>
<path d="M306.327 180.556V183.642H309.414V189.815H306.327V192.901H314.043V180.556H306.327Z" fill="#6C63FF"/>
<path d="M314.043 240.741H306.327V253.086H314.043V240.741Z" fill="#6C63FF"/>
<path d="M306.327 220.679V223.765H309.414V229.938H306.327V233.025H314.043V220.679H306.327Z" fill="#6C63FF"/>
<path d="M314.043 280.864H306.327V293.21H314.043V280.864Z" fill="#6C63FF"/>
<path d="M306.327 260.802V263.889H309.414V270.062H306.327V273.148H314.043V260.802H306.327Z" fill="#6C63FF"/>
<path d="M314.043 320.988H306.327V333.333H314.043V320.988Z" fill="#6C63FF"/>
<path d="M314.043 373.457H306.327V385.802H314.043V373.457Z" fill="#6C63FF"/>
<path d="M306.327 300.926V304.012H309.414V310.185H306.327V313.272H314.043V300.926H306.327Z" fill="#6C63FF"/>
<path d="M306.327 395.062V398.148H309.414V404.321H306.327V407.407H314.043V395.062H306.327Z" fill="#6C63FF"/>
<path d="M198.302 373.457V376.543H201.389V382.716H198.302V385.802H206.019V373.457H198.302Z" fill="#6C63FF"/>
<path d="M198.302 393.519V396.605H201.389V402.778H198.302V405.864H206.019V393.519H198.302Z" fill="#6C63FF"/>
<path d="M158.179 160.494V163.58H161.265V169.753H158.179V172.84H165.895V160.494H158.179Z" fill="#6C63FF"/>
<path d="M158.179 239.198V242.284H161.265V248.457H158.179V251.543H165.895V239.198H158.179Z" fill="#6C63FF"/>
<path d="M158.179 259.259V262.346H161.265V268.519H158.179V271.605H165.895V259.259H158.179Z" fill="#6C63FF"/>
<path d="M158.179 299.383V302.469H161.265V308.642H158.179V311.728H165.895V299.383H158.179Z" fill="#6C63FF"/>
<path d="M158.179 356.481V359.568H161.265V365.741H158.179V368.827H165.895V356.481H158.179Z" fill="#6C63FF"/>
<path d="M158.179 373.457V376.543H161.265V382.716H158.179V385.802H165.895V373.457H158.179Z" fill="#6C63FF"/>
<path d="M246.142 66.358H238.426V78.7037H246.142V66.358Z" fill="#6C63FF"/>
<path d="M246.142 86.4197H238.426V98.7654H246.142V86.4197Z" fill="#6C63FF"/>
<path d="M246.142 108.025H235.34V109.568H246.142V108.025Z" fill="#6C63FF"/>
<path d="M246.142 206.79H235.34V208.333H246.142V206.79Z" fill="#6C63FF"/>
<path d="M246.142 223.765H235.34V225.309H246.142V223.765Z" fill="#6C63FF"/>
<path d="M238.426 121.914V125H241.512V131.173H238.426V134.259H246.142V121.914H238.426Z" fill="#6C63FF"/>
<path d="M238.426 160.494V163.58H241.512V169.753H238.426V172.84H246.142V160.494H238.426Z" fill="#6C63FF"/>
<path d="M238.426 239.198V242.284H241.512V248.457H238.426V251.543H246.142V239.198H238.426Z" fill="#6C63FF"/>
<path d="M334.105 200.617H326.389V212.963H334.105V200.617Z" fill="#6C63FF"/>
<path d="M334.105 220.679H326.389V233.025H334.105V220.679Z" fill="#6C63FF"/>
<path d="M334.105 242.284H323.302V243.827H334.105V242.284Z" fill="#6C63FF"/>
<path d="M334.105 341.049H323.302V342.593H334.105V341.049Z" fill="#6C63FF"/>
<path d="M334.105 358.025H323.302V359.568H334.105V358.025Z" fill="#6C63FF"/>
<path d="M326.389 256.173V259.259H329.475V265.432H326.389V268.519H334.105V256.173H326.389Z" fill="#6C63FF"/>
<path d="M326.389 294.753V297.84H329.475V304.012H326.389V307.099H334.105V294.753H326.389Z" fill="#6C63FF"/>
<path d="M326.389 373.457V376.543H329.475V382.716H326.389V385.802H334.105V373.457H326.389Z" fill="#6C63FF"/>
<path d="M358.796 66.358H351.08V78.7037H358.796V66.358Z" fill="#6C63FF"/>
<path d="M385.031 63.2716H377.315V75.6173H385.031V63.2716Z" fill="#6C63FF"/>
<path d="M398.92 63.2716H391.204V75.6173H398.92V63.2716Z" fill="#6C63FF"/>
<path d="M398.92 100.309H391.204V112.654H398.92V100.309Z" fill="#6C63FF"/>
<path d="M414.352 81.7901H406.636V94.1358H414.352V81.7901Z" fill="#6C63FF"/>
<path d="M414.352 101.852H406.636V114.197H414.352V101.852Z" fill="#6C63FF"/>
<path d="M398.92 140.432H391.204V152.778H398.92V140.432Z" fill="#6C63FF"/>
<path d="M414.352 160.494H406.636V172.84H414.352V160.494Z" fill="#6C63FF"/>
<path d="M398.92 236.111H391.204V248.457H398.92V236.111Z" fill="#6C63FF"/>
<path d="M385.031 160.494H377.315V172.84H385.031V160.494Z" fill="#6C63FF"/>
<path d="M358.796 86.4197H351.08V98.7654H358.796V86.4197Z" fill="#6C63FF"/>
<path d="M358.796 279.321H351.08V291.667H358.796V279.321Z" fill="#6C63FF"/>
<path d="M358.796 319.444H351.08V331.79H358.796V319.444Z" fill="#6C63FF"/>
<path d="M358.796 339.506H351.08V351.852H358.796V339.506Z" fill="#6C63FF"/>
<path d="M358.796 108.025H347.994V109.568H358.796V108.025Z" fill="#6C63FF"/>
<path d="M400.463 126.543H389.661V128.086H400.463V126.543Z" fill="#6C63FF"/>
<path d="M358.796 206.79H347.994V208.333H358.796V206.79Z" fill="#6C63FF"/>
<path d="M358.796 223.765H347.994V225.309H358.796V223.765Z" fill="#6C63FF"/>
<path d="M400.463 322.531H389.661V324.074H400.463V322.531Z" fill="#6C63FF"/>
<path d="M388.117 359.568H377.315V361.111H388.117V359.568Z" fill="#6C63FF"/>
<path d="M351.08 121.914V125H354.167V131.173H351.08V134.259H358.796V121.914H351.08Z" fill="#6C63FF"/>
<path d="M377.315 100.309V103.395H380.401V109.568H377.315V112.654H385.031V100.309H377.315Z" fill="#6C63FF"/>
<path d="M406.636 120.37V123.457H409.722V129.63H406.636V132.716H414.352V120.37H406.636Z" fill="#6C63FF"/>
<path d="M406.636 180.556V183.642H409.722V189.815H406.636V192.901H414.352V180.556H406.636Z" fill="#6C63FF"/>
<path d="M406.636 200.617V203.704H409.722V209.877H406.636V212.963H414.352V200.617H406.636Z" fill="#6C63FF"/>
<path d="M406.636 138.889V141.975H409.722V148.148H406.636V151.235H414.352V138.889H406.636Z" fill="#6C63FF"/>
<path d="M391.204 81.79V84.877H394.29V91.049H391.204V94.136H398.92V81.79H391.204Z" fill="#6C63FF"/>
<path d="M398.92 180.556H391.204V192.901H398.92V180.556Z" fill="#6C63FF"/>
<path d="M398.92 217.593H391.204V229.938H398.92V217.593Z" fill="#6C63FF"/>
<path d="M391.204 199.074V202.16H394.29V208.333H391.204V211.42H398.92V199.074H391.204Z" fill="#6C63FF"/>
<path d="M377.315 120.37V123.457H380.401V129.63H377.315V132.716H385.031V120.37H377.315Z" fill="#6C63FF"/>
<path d="M377.315 140.432V143.519H380.401V149.691H377.315V152.778H385.031V140.432H377.315Z" fill="#6C63FF"/>
<path d="M385.031 200.617H377.315V212.963H385.031V200.617Z" fill="#6C63FF"/>
<path d="M377.315 180.556V183.642H380.401V189.815H377.315V192.901H385.031V180.556H377.315Z" fill="#6C63FF"/>
<path d="M385.031 240.741H377.315V253.086H385.031V240.741Z" fill="#6C63FF"/>
<path d="M377.315 220.679V223.765H380.401V229.938H377.315V233.025H385.031V220.679H377.315Z" fill="#6C63FF"/>
<path d="M385.031 280.864H377.315V293.21H385.031V280.864Z" fill="#6C63FF"/>
<path d="M398.92 277.778H391.204V290.124H398.92V277.778Z" fill="#6C63FF"/>
<path d="M377.315 260.802V263.889H380.401V270.062H377.315V273.148H385.031V260.802H377.315Z" fill="#6C63FF"/>
<path d="M406.636 260.802V263.889H409.722V270.062H406.636V273.148H414.352V260.802H406.636Z" fill="#6C63FF"/>
<path d="M493.056 81.7901H485.339V94.1358H493.056V81.7901Z" fill="#6C63FF"/>
<path d="M493.056 101.852H485.339V114.197H493.056V101.852Z" fill="#6C63FF"/>
<path d="M493.056 160.494H485.339V172.84H493.056V160.494Z" fill="#6C63FF"/>
<path d="M485.34 120.37V123.457H488.426V129.63H485.34V132.716H493.056V120.37H485.34Z" fill="#6C63FF"/>
<path d="M485.34 180.556V183.642H488.426V189.815H485.34V192.901H493.056V180.556H485.34Z" fill="#6C63FF"/>
<path d="M485.34 200.617V203.704H488.426V209.877H485.34V212.963H493.056V200.617H485.34Z" fill="#6C63FF"/>
<path d="M485.34 138.889V141.975H488.426V148.148H485.34V151.235H493.056V138.889H485.34Z" fill="#6C63FF"/>
<path d="M485.34 260.802V263.889H488.426V270.062H485.34V273.148H493.056V260.802H485.34Z" fill="#6C63FF"/>
<path d="M385.031 320.988H377.315V333.333H385.031V320.988Z" fill="#6C63FF"/>
<path d="M398.92 297.839H391.204V310.185H398.92V297.839Z" fill="#6C63FF"/>
<path d="M385.031 373.457H377.315V385.802H385.031V373.457Z" fill="#6C63FF"/>
<path d="M398.92 336.42H391.204V348.765H398.92V336.42Z" fill="#6C63FF"/>
<path d="M377.315 300.926V304.012H380.401V310.185H377.315V313.272H385.031V300.926H377.315Z" fill="#6C63FF"/>
<path d="M377.315 395.062V398.148H380.401V404.321H377.315V407.407H385.031V395.062H377.315Z" fill="#6C63FF"/>
<path d="M469.907 63.2716H462.191V75.6173H469.907V63.2716Z" fill="#6C63FF"/>
<path d="M469.907 160.494H462.191V172.84H469.907V160.494Z" fill="#6C63FF"/>
<path d="M472.994 359.568H462.191V361.111H472.994V359.568Z" fill="#6C63FF"/>
<path d="M462.191 100.309V103.395H465.278V109.568H462.191V112.654H469.907V100.309H462.191Z" fill="#6C63FF"/>
<path d="M462.191 120.37V123.457H465.278V129.63H462.191V132.716H469.907V120.37H462.191Z" fill="#6C63FF"/>
<path d="M462.191 140.432V143.519H465.278V149.691H462.191V152.778H469.907V140.432H462.191Z" fill="#6C63FF"/>
<path d="M469.907 200.617H462.191V212.963H469.907V200.617Z" fill="#6C63FF"/>
<path d="M462.191 180.556V183.642H465.278V189.815H462.191V192.901H469.907V180.556H462.191Z" fill="#6C63FF"/>
<path d="M469.907 240.741H462.191V253.086H469.907V240.741Z" fill="#6C63FF"/>
<path d="M462.191 220.679V223.765H465.278V229.938H462.191V233.025H469.907V220.679H462.191Z" fill="#6C63FF"/>
<path d="M469.907 280.864H462.191V293.21H469.907V280.864Z" fill="#6C63FF"/>
<path d="M462.191 260.802V263.889H465.278V270.062H462.191V273.148H469.907V260.802H462.191Z" fill="#6C63FF"/>
<path d="M469.907 320.988H462.191V333.333H469.907V320.988Z" fill="#6C63FF"/>
<path d="M469.907 373.457H462.191V385.802H469.907V373.457Z" fill="#6C63FF"/>
<path d="M462.191 300.926V304.012H465.278V310.185H462.191V313.272H469.907V300.926H462.191Z" fill="#6C63FF"/>
<path d="M462.191 395.062V398.148H465.278V404.321H462.191V407.407H469.907V395.062H462.191Z" fill="#6C63FF"/>
<path d="M506.944 63.2716H499.228V75.6173H506.944V63.2716Z" fill="#6C63FF"/>
<path d="M506.944 160.494H499.228V172.84H506.944V160.494Z" fill="#6C63FF"/>
<path d="M510.031 359.568H499.228V361.111H510.031V359.568Z" fill="#6C63FF"/>
<path d="M499.228 100.309V103.395H502.315V109.568H499.228V112.654H506.944V100.309H499.228Z" fill="#6C63FF"/>
<path d="M499.228 120.37V123.457H502.315V129.63H499.228V132.716H506.944V120.37H499.228Z" fill="#6C63FF"/>
<path d="M499.228 140.432V143.519H502.315V149.691H499.228V152.778H506.944V140.432H499.228Z" fill="#6C63FF"/>
<path d="M506.944 200.617H499.228V212.963H506.944V200.617Z" fill="#6C63FF"/>
<path d="M499.228 180.556V183.642H502.315V189.815H499.228V192.901H506.944V180.556H499.228Z" fill="#6C63FF"/>
<path d="M506.944 240.741H499.228V253.086H506.944V240.741Z" fill="#6C63FF"/>
<path d="M499.228 220.679V223.765H502.315V229.938H499.228V233.025H506.944V220.679H499.228Z" fill="#6C63FF"/>
<path d="M506.944 280.864H499.228V293.21H506.944V280.864Z" fill="#6C63FF"/>
<path d="M499.228 260.802V263.889H502.315V270.062H499.228V273.148H506.944V260.802H499.228Z" fill="#6C63FF"/>
<path d="M506.944 320.988H499.228V333.333H506.944V320.988Z" fill="#6C63FF"/>
<path d="M506.944 373.457H499.228V385.802H506.944V373.457Z" fill="#6C63FF"/>
<path d="M499.228 300.926V304.012H502.315V310.185H499.228V313.272H506.944V300.926H499.228Z" fill="#6C63FF"/>
<path d="M499.228 395.062V398.148H502.315V404.321H499.228V407.407H506.944V395.062H499.228Z" fill="#6C63FF"/>
<path d="M391.204 373.457V376.543H394.29V382.716H391.204V385.802H398.92V373.457H391.204Z" fill="#6C63FF"/>
<path d="M391.204 393.519V396.605H394.29V402.778H391.204V405.864H398.92V393.519H391.204Z" fill="#6C63FF"/>
<path d="M351.08 160.494V163.58H354.167V169.753H351.08V172.84H358.796V160.494H351.08Z" fill="#6C63FF"/>
<path d="M351.08 239.198V242.284H354.167V248.457H351.08V251.543H358.796V239.198H351.08Z" fill="#6C63FF"/>
<path d="M351.08 259.259V262.346H354.167V268.519H351.08V271.605H358.796V259.259H351.08Z" fill="#6C63FF"/>
<path d="M351.08 299.383V302.469H354.167V308.642H351.08V311.728H358.796V299.383H351.08Z" fill="#6C63FF"/>
<path d="M351.08 356.481V359.568H354.167V365.741H351.08V368.827H358.796V356.481H351.08Z" fill="#6C63FF"/>
<path d="M351.08 373.457V376.543H354.167V382.716H351.08V385.802H358.796V373.457H351.08Z" fill="#6C63FF"/>
<path d="M439.043 66.358H431.327V78.7037H439.043V66.358Z" fill="#6C63FF"/>
<path d="M439.043 86.4197H431.327V98.7654H439.043V86.4197Z" fill="#6C63FF"/>
<path d="M439.043 108.025H428.241V109.568H439.043V108.025Z" fill="#6C63FF"/>
<path d="M439.043 206.79H428.241V208.333H439.043V206.79Z" fill="#6C63FF"/>
<path d="M439.043 223.765H428.241V225.309H439.043V223.765Z" fill="#6C63FF"/>
<path d="M431.327 121.914V125H434.414V131.173H431.327V134.259H439.043V121.914H431.327Z" fill="#6C63FF"/>
<path d="M431.327 160.494V163.58H434.414V169.753H431.327V172.84H439.043V160.494H431.327Z" fill="#6C63FF"/>
<path d="M431.327 239.198V242.284H434.414V248.457H431.327V251.543H439.043V239.198H431.327Z" fill="#6C63FF"/>
<path d="M527.006 200.617H519.29V212.963H527.006V200.617Z" fill="#6C63FF"/>
<path d="M527.006 220.679H519.29V233.025H527.006V220.679Z" fill="#6C63FF"/>
<path d="M527.006 242.284H516.204V243.827H527.006V242.284Z" fill="#6C63FF"/>
<path d="M527.006 341.049H516.204V342.593H527.006V341.049Z" fill="#6C63FF"/>
<path d="M527.006 358.025H516.204V359.568H527.006V358.025Z" fill="#6C63FF"/>
<path d="M519.29 256.173V259.259H522.377V265.432H519.29V268.519H527.006V256.173H519.29Z" fill="#6C63FF"/>
<path d="M519.29 294.753V297.84H522.377V304.012H519.29V307.099H527.006V294.753H519.29Z" fill="#6C63FF"/>
<path d="M519.29 373.457V376.543H522.377V382.716H519.29V385.802H527.006V373.457H519.29Z" fill="#6C63FF"/>
<path d="M551.698 66.358H543.982V78.7037H551.698V66.358Z" fill="#6C63FF"/>
<path d="M577.932 63.2716H570.216V75.6173H577.932V63.2716Z" fill="#6C63FF"/>
<path d="M591.821 63.2716H584.105V75.6173H591.821V63.2716Z" fill="#6C63FF"/>
<path d="M591.821 100.309H584.105V112.654H591.821V100.309Z" fill="#6C63FF"/>
<path d="M607.253 81.7901H599.537V94.1358H607.253V81.7901Z" fill="#6C63FF"/>
<path d="M607.253 101.852H599.537V114.197H607.253V101.852Z" fill="#6C63FF"/>
<path d="M591.821 140.432H584.105V152.778H591.821V140.432Z" fill="#6C63FF"/>
<path d="M607.253 160.494H599.537V172.84H607.253V160.494Z" fill="#6C63FF"/>
<path d="M591.821 236.111H584.105V248.457H591.821V236.111Z" fill="#6C63FF"/>
<path d="M577.932 160.494H570.216V172.84H577.932V160.494Z" fill="#6C63FF"/>
<path d="M551.698 86.4197H543.982V98.7654H551.698V86.4197Z" fill="#6C63FF"/>
<path d="M551.698 279.321H543.982V291.667H551.698V279.321Z" fill="#6C63FF"/>
<path d="M551.698 319.444H543.982V331.79H551.698V319.444Z" fill="#6C63FF"/>
<path d="M551.698 339.506H543.982V351.852H551.698V339.506Z" fill="#6C63FF"/>
<path d="M551.698 108.025H540.895V109.568H551.698V108.025Z" fill="#6C63FF"/>
<path d="M593.364 126.543H582.562V128.086H593.364V126.543Z" fill="#6C63FF"/>
<path d="M551.698 206.79H540.895V208.333H551.698V206.79Z" fill="#6C63FF"/>
<path d="M551.698 223.765H540.895V225.309H551.698V223.765Z" fill="#6C63FF"/>
<path d="M593.364 322.531H582.562V324.074H593.364V322.531Z" fill="#6C63FF"/>
<path d="M581.018 359.568H570.216V361.111H581.018V359.568Z" fill="#6C63FF"/>
<path d="M543.981 121.914V125H547.068V131.173H543.981V134.259H551.698V121.914H543.981Z" fill="#6C63FF"/>
<path d="M570.216 100.309V103.395H573.302V109.568H570.216V112.654H577.932V100.309H570.216Z" fill="#6C63FF"/>
<path d="M599.537 120.37V123.457H602.623V129.63H599.537V132.716H607.253V120.37H599.537Z" fill="#6C63FF"/>
<path d="M599.537 180.556V183.642H602.623V189.815H599.537V192.901H607.253V180.556H599.537Z" fill="#6C63FF"/>
<path d="M599.537 200.617V203.704H602.623V209.877H599.537V212.963H607.253V200.617H599.537Z" fill="#6C63FF"/>
<path d="M599.537 138.889V141.975H602.623V148.148H599.537V151.235H607.253V138.889H599.537Z" fill="#6C63FF"/>
<path d="M584.105 81.79V84.877H587.191V91.049H584.105V94.136H591.821V81.79H584.105Z" fill="#6C63FF"/>
<path d="M591.821 180.556H584.105V192.901H591.821V180.556Z" fill="#6C63FF"/>
<path d="M591.821 217.593H584.105V229.938H591.821V217.593Z" fill="#6C63FF"/>
<path d="M584.105 199.074V202.16H587.191V208.333H584.105V211.42H591.821V199.074H584.105Z" fill="#6C63FF"/>
<path d="M570.216 120.37V123.457H573.302V129.63H570.216V132.716H577.932V120.37H570.216Z" fill="#6C63FF"/>
<path d="M570.216 140.432V143.519H573.302V149.691H570.216V152.778H577.932V140.432H570.216Z" fill="#6C63FF"/>
<path d="M577.932 200.617H570.216V212.963H577.932V200.617Z" fill="#6C63FF"/>
<path d="M570.216 180.556V183.642H573.302V189.815H570.216V192.901H577.932V180.556H570.216Z" fill="#6C63FF"/>
<path d="M577.932 240.741H570.216V253.086H577.932V240.741Z" fill="#6C63FF"/>
<path d="M570.216 220.679V223.765H573.302V229.938H570.216V233.025H577.932V220.679H570.216Z" fill="#6C63FF"/>
<path d="M577.932 280.864H570.216V293.21H577.932V280.864Z" fill="#6C63FF"/>
<path d="M591.821 277.778H584.105V290.124H591.821V277.778Z" fill="#6C63FF"/>
<path d="M570.216 260.802V263.889H573.302V270.062H570.216V273.148H577.932V260.802H570.216Z" fill="#6C63FF"/>
<path d="M599.537 260.802V263.889H602.623V270.062H599.537V273.148H607.253V260.802H599.537Z" fill="#6C63FF"/>
<path d="M685.957 81.7901H678.241V94.1358H685.957V81.7901Z" fill="#6C63FF"/>
<path d="M685.957 101.852H678.241V114.197H685.957V101.852Z" fill="#6C63FF"/>
<path d="M685.957 160.494H678.241V172.84H685.957V160.494Z" fill="#6C63FF"/>
<path d="M678.241 120.37V123.457H681.327V129.63H678.241V132.716H685.957V120.37H678.241Z" fill="#6C63FF"/>
<path d="M678.241 180.556V183.642H681.327V189.815H678.241V192.901H685.957V180.556H678.241Z" fill="#6C63FF"/>
<path d="M678.241 200.617V203.704H681.327V209.877H678.241V212.963H685.957V200.617H678.241Z" fill="#6C63FF"/>
<path d="M678.241 138.889V141.975H681.327V148.148H678.241V151.235H685.957V138.889H678.241Z" fill="#6C63FF"/>
<path d="M678.241 260.802V263.889H681.327V270.062H678.241V273.148H685.957V260.802H678.241Z" fill="#6C63FF"/>
<path d="M577.932 320.988H570.216V333.333H577.932V320.988Z" fill="#6C63FF"/>
<path d="M591.821 297.839H584.105V310.185H591.821V297.839Z" fill="#6C63FF"/>
<path d="M577.932 373.457H570.216V385.802H577.932V373.457Z" fill="#6C63FF"/>
<path d="M591.821 336.42H584.105V348.765H591.821V336.42Z" fill="#6C63FF"/>
<path d="M570.216 300.926V304.012H573.302V310.185H570.216V313.272H577.932V300.926H570.216Z" fill="#6C63FF"/>
<path d="M570.216 395.062V398.148H573.302V404.321H570.216V407.407H577.932V395.062H570.216Z" fill="#6C63FF"/>
<path d="M662.809 63.2716H655.093V75.6173H662.809V63.2716Z" fill="#6C63FF"/>
<path d="M662.809 160.494H655.093V172.84H662.809V160.494Z" fill="#6C63FF"/>
<path d="M665.895 359.568H655.093V361.111H665.895V359.568Z" fill="#6C63FF"/>
<path d="M655.093 100.309V103.395H658.179V109.568H655.093V112.654H662.809V100.309H655.093Z" fill="#6C63FF"/>
<path d="M655.093 120.37V123.457H658.179V129.63H655.093V132.716H662.809V120.37H655.093Z" fill="#6C63FF"/>
<path d="M655.093 140.432V143.519H658.179V149.691H655.093V152.778H662.809V140.432H655.093Z" fill="#6C63FF"/>
<path d="M662.809 200.617H655.093V212.963H662.809V200.617Z" fill="#6C63FF"/>
<path d="M655.093 180.556V183.642H658.179V189.815H655.093V192.901H662.809V180.556H655.093Z" fill="#6C63FF"/>
<path d="M662.809 240.741H655.093V253.086H662.809V240.741Z" fill="#6C63FF"/>
<path d="M655.093 220.679V223.765H658.179V229.938H655.093V233.025H662.809V220.679H655.093Z" fill="#6C63FF"/>
<path d="M662.809 280.864H655.093V293.21H662.809V280.864Z" fill="#6C63FF"/>
<path d="M655.093 260.802V263.889H658.179V270.062H655.093V273.148H662.809V260.802H655.093Z" fill="#6C63FF"/>
<path d="M662.809 320.988H655.093V333.333H662.809V320.988Z" fill="#6C63FF"/>
<path d="M662.809 373.457H655.093V385.802H662.809V373.457Z" fill="#6C63FF"/>
<path d="M655.093 300.926V304.012H658.179V310.185H655.093V313.272H662.809V300.926H655.093Z" fill="#6C63FF"/>
<path d="M655.093 395.062V398.148H658.179V404.321H655.093V407.407H662.809V395.062H655.093Z" fill="#6C63FF"/>
<path d="M699.846 63.2716H692.13V75.6173H699.846V63.2716Z" fill="#6C63FF"/>
<path d="M699.846 160.494H692.13V172.84H699.846V160.494Z" fill="#6C63FF"/>
<path d="M702.932 359.568H692.13V361.111H702.932V359.568Z" fill="#6C63FF"/>
<path d="M692.13 100.309V103.395H695.216V109.568H692.13V112.654H699.846V100.309H692.13Z" fill="#6C63FF"/>
<path d="M692.13 120.37V123.457H695.216V129.63H692.13V132.716H699.846V120.37H692.13Z" fill="#6C63FF"/>
<path d="M692.13 140.432V143.519H695.216V149.691H692.13V152.778H699.846V140.432H692.13Z" fill="#6C63FF"/>
<path d="M699.846 200.617H692.13V212.963H699.846V200.617Z" fill="#6C63FF"/>
<path d="M692.13 180.556V183.642H695.216V189.815H692.13V192.901H699.846V180.556H692.13Z" fill="#6C63FF"/>
<path d="M699.846 240.741H692.13V253.086H699.846V240.741Z" fill="#6C63FF"/>
<path d="M692.13 220.679V223.765H695.216V229.938H692.13V233.025H699.846V220.679H692.13Z" fill="#6C63FF"/>
<path d="M699.846 280.864H692.13V293.21H699.846V280.864Z" fill="#6C63FF"/>
<path d="M692.13 260.802V263.889H695.216V270.062H692.13V273.148H699.846V260.802H692.13Z" fill="#6C63FF"/>
<path d="M699.846 320.988H692.13V333.333H699.846V320.988Z" fill="#6C63FF"/>
<path d="M699.846 373.457H692.13V385.802H699.846V373.457Z" fill="#6C63FF"/>
<path d="M692.13 300.926V304.012H695.216V310.185H692.13V313.272H699.846V300.926H692.13Z" fill="#6C63FF"/>
<path d="M692.13 395.062V398.148H695.216V404.321H692.13V407.407H699.846V395.062H692.13Z" fill="#6C63FF"/>
<path d="M584.105 373.457V376.543H587.191V382.716H584.105V385.802H591.821V373.457H584.105Z" fill="#6C63FF"/>
<path d="M584.105 393.519V396.605H587.191V402.778H584.105V405.864H591.821V393.519H584.105Z" fill="#6C63FF"/>
<path d="M543.981 160.494V163.58H547.068V169.753H543.981V172.84H551.698V160.494H543.981Z" fill="#6C63FF"/>
<path d="M543.981 239.198V242.284H547.068V248.457H543.981V251.543H551.698V239.198H543.981Z" fill="#6C63FF"/>
<path d="M543.981 259.259V262.346H547.068V268.519H543.981V271.605H551.698V259.259H543.981Z" fill="#6C63FF"/>
<path d="M543.981 299.383V302.469H547.068V308.642H543.981V311.728H551.698V299.383H543.981Z" fill="#6C63FF"/>
<path d="M543.981 356.481V359.568H547.068V365.741H543.981V368.827H551.698V356.481H543.981Z" fill="#6C63FF"/>
<path d="M543.981 373.457V376.543H547.068V382.716H543.981V385.802H551.698V373.457H543.981Z" fill="#6C63FF"/>
<path d="M631.944 66.358H624.228V78.7037H631.944V66.358Z" fill="#6C63FF"/>
<path d="M631.944 86.4197H624.228V98.7654H631.944V86.4197Z" fill="#6C63FF"/>
<path d="M631.944 108.025H621.142V109.568H631.944V108.025Z" fill="#6C63FF"/>
<path d="M631.944 206.79H621.142V208.333H631.944V206.79Z" fill="#6C63FF"/>
<path d="M631.944 223.765H621.142V225.309H631.944V223.765Z" fill="#6C63FF"/>
<path d="M624.228 121.914V125H627.315V131.173H624.228V134.259H631.944V121.914H624.228Z" fill="#6C63FF"/>
<path d="M624.228 160.494V163.58H627.315V169.753H624.228V172.84H631.944V160.494H624.228Z" fill="#6C63FF"/>
<path d="M624.228 239.198V242.284H627.315V248.457H624.228V251.543H631.944V239.198H624.228Z" fill="#6C63FF"/>
<path d="M719.907 200.617H712.191V212.963H719.907V200.617Z" fill="#6C63FF"/>
<path d="M719.907 220.679H712.191V233.025H719.907V220.679Z" fill="#6C63FF"/>
<path d="M719.907 242.284H709.105V243.827H719.907V242.284Z" fill="#6C63FF"/>
<path d="M719.907 341.049H709.105V342.593H719.907V341.049Z" fill="#6C63FF"/>
<path d="M719.907 358.025H709.105V359.568H719.907V358.025Z" fill="#6C63FF"/>
<path d="M712.191 256.173V259.259H715.278V265.432H712.191V268.519H719.907V256.173H712.191Z" fill="#6C63FF"/>
<path d="M712.191 294.753V297.84H715.278V304.012H712.191V307.099H719.907V294.753H712.191Z" fill="#6C63FF"/>
<path d="M712.191 373.457V376.543H715.278V382.716H712.191V385.802H719.907V373.457H712.191Z" fill="#6C63FF"/>
<path d="M1042.04 706.534H214.435V709.089H1042.04V706.534Z" fill="#2F2E41"/>
<path d="M385.5 404.339V456.339L392.5 488.339C392.5 488.339 391.5 508.339 392.5 514.339C393.5 520.339 391.5 530.339 385.5 530.339C379.5 530.339 376.5 545.339 376.5 545.339C376.5 545.339 374.5 551.339 369.5 552.339C364.5 553.339 364.5 552.339 364.5 552.339L360.5 562.339L277.5 617.339L293.5 657.339C293.5 657.339 318.5 648.339 320.5 645.339C322.5 642.339 339.5 649.339 339.5 642.339C339.5 635.339 342.5 617.339 348.5 616.339C354.5 615.339 404.5 592.339 404.5 592.339C404.5 592.339 430.5 563.339 432.5 552.339C434.5 541.339 443.5 510.339 443.5 510.339L468.5 552.339V636.339L464.5 681.339L508.5 675.339C508.5 675.339 504.5 647.339 508.5 643.339C512.5 639.339 518.5 591.339 514.5 585.339C510.5 579.339 516.5 552.339 514.5 548.339C512.5 544.339 513.5 515.339 508.5 507.339C503.5 499.339 473.5 417.339 473.5 417.339L385.5 404.339Z" fill="#2F2E41"/>
<path d="M470.5 679.339C470.5 679.339 455.5 704.339 465.5 707.339C475.5 710.339 494.5 707.339 496.5 707.339C498.5 707.339 534.5 708.339 534.5 708.339C534.5 708.339 558.5 703.339 558.5 696.339C558.5 689.339 543.5 689.339 538.5 688.339C533.5 687.339 502.5 675.339 502.5 675.339L470.5 679.339Z" fill="#2F2E41"/>
<path d="M282.093 618.468C282.093 618.468 253.19 614.64 254.412 625.009C255.634 635.377 265.939 651.62 266.734 653.455C267.272 654.698 273.588 670.433 277.609 680.461C280.515 687.812 284.881 694.497 290.444 700.113C294.375 704.042 298.66 707.192 301.47 705.975C307.894 703.193 301.932 689.428 300.862 684.443C299.792 679.457 298.482 646.241 298.482 646.241L282.093 618.468Z" fill="#2F2E41"/>
<path d="M483 238.84L515 164.84C515 164.84 512 157.84 505 158.84C505 158.84 495.5 134.34 477.5 134.34C477.5 134.34 450.5 119.34 442.5 134.34C442.5 134.34 425.5 149.34 426.5 163.34C427.5 177.34 428.5 187.34 428.5 187.34C428.5 187.34 412.5 189.34 415.5 197.34C418.5 205.34 419.5 205.34 415.5 208.34L411.5 211.34C411.5 211.34 328.5 286.34 374.5 396.34L378.5 413.34V429.339C378.5 429.339 479.5 430.339 479.5 429.339C479.5 428.339 477.5 422.339 481.5 418.339C485.5 414.339 485.5 408.34 485.5 408.34C485.5 408.34 481.5 388.34 483.5 382.34C485.5 376.34 486.5 350.34 482.5 344.34C478.5 338.34 480.5 290.34 480.5 290.34L489.5 273.34L486.5 263.34L483.5 253.34L483 238.84Z" fill="#8985A8"/>
<path opacity="0.1" d="M474.5 439.339C474.5 439.339 462.5 406.339 463.5 400.339C464.5 394.339 461.5 382.339 461.5 382.339L457.5 301.339C457.5 301.339 474.5 229.339 436.5 217.339C436.5 217.339 426.885 221.535 419.006 235.036C411.215 238.507 401.762 247.289 399.5 269.339C395.5 308.339 413.5 408.339 422.5 425.339C431.5 442.339 437.5 454.339 437.5 454.339L446.907 450.159C447.295 450.929 447.5 451.339 447.5 451.339L474.5 439.339Z" fill="black"/>
<path d="M480 229.839C481.657 229.839 483 228.496 483 226.839C483 225.183 481.657 223.839 480 223.839C478.343 223.839 477 225.183 477 226.839C477 228.496 478.343 229.839 480 229.839Z" fill="#F2F2F2"/>
<path d="M481 226.839H479V273.839H481V226.839Z" fill="#3F3D56"/>
<path d="M444 442.839L452 459.839C452 459.839 470 453.839 470 450.839C470 447.839 462 434.839 462 434.839L444 442.839Z" fill="#FFB8B8"/>
<path d="M432.5 217.339C432.5 217.339 409.5 227.339 405.5 266.339C401.5 305.339 419.5 405.339 428.5 422.339C437.5 439.339 443.5 451.339 443.5 451.339L470.5 439.339C470.5 439.339 458.5 406.339 459.5 400.339C460.5 394.339 457.5 382.339 457.5 382.339L453.5 301.339C453.5 301.339 470.5 229.339 432.5 217.339Z" fill="#8985A8"/>
</g>
<defs>
<clipPath id="clip0_9:250">
<rect width="1042.04" height="709.089" fill="white"/>
</clipPath>
</defs>
</svg>
