<svg width="640" height="533" viewBox="0 0 640 533" fill="none" xmlns="http://www.w3.org/2000/svg">
<path d="M640 0H0V353.839H640V0Z" fill="#3F3D56"/>
<path d="M121.34 49.8855H115.697V59.1665H121.34V49.8855Z" fill="#6C63FF"/>
<path d="M140.529 47.5652H134.885V56.8463H140.529V47.5652Z" fill="#6C63FF"/>
<path d="M150.688 47.5652H145.044V56.8463H150.688V47.5652Z" fill="#6C63FF"/>
<path d="M150.688 75.4083H145.044V84.6894H150.688V75.4083Z" fill="#6C63FF"/>
<path d="M161.975 61.4868H156.332V70.7678H161.975V61.4868Z" fill="#6C63FF"/>
<path d="M161.975 76.5685H156.332V85.8495H161.975V76.5685Z" fill="#6C63FF"/>
<path d="M150.688 105.572H145.044V114.853H150.688V105.572Z" fill="#6C63FF"/>
<path d="M161.975 120.653H156.332V129.934H161.975V120.653Z" fill="#6C63FF"/>
<path d="M150.688 177.5H145.044V186.781H150.688V177.5Z" fill="#6C63FF"/>
<path d="M140.529 120.653H134.885V129.934H140.529V120.653Z" fill="#6C63FF"/>
<path d="M121.34 64.9672H115.697V74.2482H121.34V64.9672Z" fill="#6C63FF"/>
<path d="M121.34 209.983H115.697V219.264H121.34V209.983Z" fill="#6C63FF"/>
<path d="M121.34 240.146H115.697V249.428H121.34V240.146Z" fill="#6C63FF"/>
<path d="M121.34 255.228H115.697V264.509H121.34V255.228Z" fill="#6C63FF"/>
<path d="M121.34 81.209H113.439V82.3691H121.34V81.209Z" fill="#6C63FF"/>
<path d="M151.817 95.1305H143.915V96.2906H151.817V95.1305Z" fill="#6C63FF"/>
<path d="M121.34 155.457H113.439V156.617H121.34V155.457Z" fill="#6C63FF"/>
<path d="M121.34 168.219H113.439V169.379H121.34V168.219Z" fill="#6C63FF"/>
<path d="M151.817 242.467H143.915V243.627H151.817V242.467Z" fill="#6C63FF"/>
<path d="M142.786 270.31H134.885V271.47H142.786V270.31Z" fill="#6C63FF"/>
<path d="M115.697 91.6504V93.9703H117.954V98.611H115.697V100.931H121.34V91.6504H115.697Z" fill="#6C63FF"/>
<path d="M134.886 75.4086V77.7285H137.143V82.3691H134.886V84.6891H140.529V75.4086H134.886Z" fill="#6C63FF"/>
<path d="M156.332 90.4897V92.8104H158.589V97.4511H156.332V99.771H161.975V90.4897H156.332Z" fill="#6C63FF"/>
<path d="M156.332 135.735V138.055H158.589V142.696H156.332V145.016H161.975V135.735H156.332Z" fill="#6C63FF"/>
<path d="M156.332 150.816V153.137H158.589V157.778H156.332V160.098H161.975V150.816H156.332Z" fill="#6C63FF"/>
<path d="M156.332 104.412V106.732H158.589V111.372H156.332V113.693H161.975V104.412H156.332Z" fill="#6C63FF"/>
<path d="M145.044 61.4867V63.8074H147.302V68.4473H145.044V70.768H150.688V61.4867H145.044Z" fill="#6C63FF"/>
<path d="M150.688 135.735H145.044V145.016H150.688V135.735Z" fill="#6C63FF"/>
<path d="M150.688 163.578H145.044V172.859H150.688V163.578Z" fill="#6C63FF"/>
<path d="M145.044 149.656V151.976H147.302V156.617H145.044V158.938H150.688V149.656H145.044Z" fill="#6C63FF"/>
<path d="M134.886 90.4897V92.8104H137.143V97.4511H134.886V99.771H140.529V90.4897H134.886Z" fill="#6C63FF"/>
<path d="M134.886 105.572V107.892H137.143V112.532H134.886V114.853H140.529V105.572H134.886Z" fill="#6C63FF"/>
<path d="M140.529 150.817H134.885V160.098H140.529V150.817Z" fill="#6C63FF"/>
<path d="M134.886 135.735V138.055H137.143V142.696H134.886V145.016H140.529V135.735H134.886Z" fill="#6C63FF"/>
<path d="M140.529 180.98H134.885V190.261H140.529V180.98Z" fill="#6C63FF"/>
<path d="M134.886 165.898V168.218H137.143V172.859H134.886V175.18H140.529V165.898H134.886Z" fill="#6C63FF"/>
<path d="M140.529 211.143H134.885V220.424H140.529V211.143Z" fill="#6C63FF"/>
<path d="M150.688 208.823H145.044V218.104H150.688V208.823Z" fill="#6C63FF"/>
<path d="M134.886 196.061V198.382H137.143V203.023H134.886V205.343H140.529V196.061H134.886Z" fill="#6C63FF"/>
<path d="M156.332 196.061V198.382H158.589V203.023H156.332V205.343H161.975V196.061H156.332Z" fill="#6C63FF"/>
<path d="M219.541 61.4868H213.898V70.7678H219.541V61.4868Z" fill="#6C63FF"/>
<path d="M219.541 76.5685H213.898V85.8495H219.541V76.5685Z" fill="#6C63FF"/>
<path d="M219.541 120.653H213.898V129.934H219.541V120.653Z" fill="#6C63FF"/>
<path d="M213.897 90.4897V92.8104H216.155V97.4511H213.897V99.771H219.541V90.4897H213.897Z" fill="#6C63FF"/>
<path d="M213.897 135.735V138.055H216.155V142.696H213.897V145.016H219.541V135.735H213.897Z" fill="#6C63FF"/>
<path d="M213.897 150.816V153.137H216.155V157.778H213.897V160.098H219.541V150.816H213.897Z" fill="#6C63FF"/>
<path d="M213.897 104.412V106.732H216.155V111.372H213.897V113.693H219.541V104.412H213.897Z" fill="#6C63FF"/>
<path d="M213.897 196.061V198.382H216.155V203.023H213.897V205.343H219.541V196.061H213.897Z" fill="#6C63FF"/>
<path d="M140.529 241.307H134.885V250.588H140.529V241.307Z" fill="#6C63FF"/>
<path d="M150.688 223.905H145.044V233.186H150.688V223.905Z" fill="#6C63FF"/>
<path d="M140.529 280.751H134.885V290.032H140.529V280.751Z" fill="#6C63FF"/>
<path d="M150.688 252.908H145.044V262.189H150.688V252.908Z" fill="#6C63FF"/>
<path d="M134.886 226.225V228.545H137.143V233.186H134.886V235.506H140.529V226.225H134.886Z" fill="#6C63FF"/>
<path d="M134.886 296.993V299.313H137.143V303.954H134.886V306.274H140.529V296.993H134.886Z" fill="#6C63FF"/>
<path d="M202.61 47.5652H196.967V56.8463H202.61V47.5652Z" fill="#6C63FF"/>
<path d="M202.61 120.653H196.967V129.934H202.61V120.653Z" fill="#6C63FF"/>
<path d="M204.868 270.31H196.967V271.47H204.868V270.31Z" fill="#6C63FF"/>
<path d="M196.966 75.4086V77.7285H199.224V82.3691H196.966V84.6891H202.61V75.4086H196.966Z" fill="#6C63FF"/>
<path d="M196.966 90.4897V92.8104H199.224V97.4511H196.966V99.771H202.61V90.4897H196.966Z" fill="#6C63FF"/>
<path d="M196.966 105.572V107.892H199.224V112.532H196.966V114.853H202.61V105.572H196.966Z" fill="#6C63FF"/>
<path d="M202.61 150.817H196.967V160.098H202.61V150.817Z" fill="#6C63FF"/>
<path d="M196.966 135.735V138.055H199.224V142.696H196.966V145.016H202.61V135.735H196.966Z" fill="#6C63FF"/>
<path d="M202.61 180.98H196.967V190.261H202.61V180.98Z" fill="#6C63FF"/>
<path d="M196.966 165.898V168.218H199.224V172.859H196.966V175.18H202.61V165.898H196.966Z" fill="#6C63FF"/>
<path d="M202.61 211.143H196.967V220.424H202.61V211.143Z" fill="#6C63FF"/>
<path d="M196.966 196.061V198.382H199.224V203.023H196.966V205.343H202.61V196.061H196.966Z" fill="#6C63FF"/>
<path d="M202.61 241.307H196.967V250.588H202.61V241.307Z" fill="#6C63FF"/>
<path d="M202.61 280.751H196.967V290.032H202.61V280.751Z" fill="#6C63FF"/>
<path d="M196.966 226.225V228.545H199.224V233.186H196.966V235.506H202.61V226.225H196.966Z" fill="#6C63FF"/>
<path d="M196.966 296.993V299.313H199.224V303.954H196.966V306.274H202.61V296.993H196.966Z" fill="#6C63FF"/>
<path d="M229.7 47.5652H224.056V56.8463H229.7V47.5652Z" fill="#6C63FF"/>
<path d="M229.7 120.653H224.056V129.934H229.7V120.653Z" fill="#6C63FF"/>
<path d="M231.958 270.31H224.056V271.47H231.958V270.31Z" fill="#6C63FF"/>
<path d="M224.056 75.4086V77.7285H226.314V82.3691H224.056V84.6891H229.7V75.4086H224.056Z" fill="#6C63FF"/>
<path d="M224.056 90.4897V92.8104H226.314V97.4511H224.056V99.771H229.7V90.4897H224.056Z" fill="#6C63FF"/>
<path d="M224.056 105.572V107.892H226.314V112.532H224.056V114.853H229.7V105.572H224.056Z" fill="#6C63FF"/>
<path d="M229.7 150.817H224.056V160.098H229.7V150.817Z" fill="#6C63FF"/>
<path d="M224.056 135.735V138.055H226.314V142.696H224.056V145.016H229.7V135.735H224.056Z" fill="#6C63FF"/>
<path d="M229.7 180.98H224.056V190.261H229.7V180.98Z" fill="#6C63FF"/>
<path d="M224.056 165.898V168.218H226.314V172.859H224.056V175.18H229.7V165.898H224.056Z" fill="#6C63FF"/>
<path d="M229.7 211.143H224.056V220.424H229.7V211.143Z" fill="#6C63FF"/>
<path d="M224.056 196.061V198.382H226.314V203.023H224.056V205.343H229.7V196.061H224.056Z" fill="#6C63FF"/>
<path d="M229.7 241.307H224.056V250.588H229.7V241.307Z" fill="#6C63FF"/>
<path d="M229.7 280.751H224.056V290.032H229.7V280.751Z" fill="#6C63FF"/>
<path d="M224.056 226.225V228.545H226.314V233.186H224.056V235.506H229.7V226.225H224.056Z" fill="#6C63FF"/>
<path d="M224.056 296.993V299.313H226.314V303.954H224.056V306.274H229.7V296.993H224.056Z" fill="#6C63FF"/>
<path d="M145.044 280.751V283.071H147.302V287.712H145.044V290.032H150.688V280.751H145.044Z" fill="#6C63FF"/>
<path d="M145.044 295.833V298.153H147.302V302.794H145.044V305.114H150.688V295.833H145.044Z" fill="#6C63FF"/>
<path d="M115.697 120.653V122.973H117.954V127.614H115.697V129.935H121.34V120.653H115.697Z" fill="#6C63FF"/>
<path d="M115.697 179.82V182.14H117.954V186.781H115.697V189.101H121.34V179.82H115.697Z" fill="#6C63FF"/>
<path d="M115.697 194.901V197.222H117.954V201.863H115.697V204.183H121.34V194.901H115.697Z" fill="#6C63FF"/>
<path d="M115.697 225.065V227.385H117.954V232.026H115.697V234.346H121.34V225.065H115.697Z" fill="#6C63FF"/>
<path d="M115.697 267.989V270.31H117.954V274.951H115.697V277.271H121.34V267.989H115.697Z" fill="#6C63FF"/>
<path d="M115.697 280.751V283.071H117.954V287.712H115.697V290.032H121.34V280.751H115.697Z" fill="#6C63FF"/>
<path d="M180.035 49.8855H174.392V59.1665H180.035V49.8855Z" fill="#6C63FF"/>
<path d="M180.035 64.9672H174.392V74.2482H180.035V64.9672Z" fill="#6C63FF"/>
<path d="M180.035 81.209H172.134V82.3691H180.035V81.209Z" fill="#6C63FF"/>
<path d="M180.035 155.457H172.134V156.617H180.035V155.457Z" fill="#6C63FF"/>
<path d="M180.035 168.219H172.134V169.379H180.035V168.219Z" fill="#6C63FF"/>
<path d="M174.392 91.6504V93.9703H176.649V98.611H174.392V100.931H180.035V91.6504H174.392Z" fill="#6C63FF"/>
<path d="M174.392 120.653V122.973H176.649V127.614H174.392V129.935H180.035V120.653H174.392Z" fill="#6C63FF"/>
<path d="M174.392 179.82V182.14H176.649V186.781H174.392V189.101H180.035V179.82H174.392Z" fill="#6C63FF"/>
<path d="M244.374 150.817H238.73V160.098H244.374V150.817Z" fill="#6C63FF"/>
<path d="M244.374 165.898H238.73V175.179H244.374V165.898Z" fill="#6C63FF"/>
<path d="M244.374 182.14H236.473V183.3H244.374V182.14Z" fill="#6C63FF"/>
<path d="M244.374 256.388H236.473V257.548H244.374V256.388Z" fill="#6C63FF"/>
<path d="M244.374 269.15H236.473V270.31H244.374V269.15Z" fill="#6C63FF"/>
<path d="M238.73 192.581V194.901H240.987V199.542H238.73V201.863H244.374V192.581H238.73Z" fill="#6C63FF"/>
<path d="M238.73 221.584V223.905H240.987V228.545H238.73V230.866H244.374V221.584H238.73Z" fill="#6C63FF"/>
<path d="M238.73 280.751V283.071H240.987V287.712H238.73V290.032H244.374V280.751H238.73Z" fill="#6C63FF"/>
<path d="M262.434 49.8855H256.79V59.1665H262.434V49.8855Z" fill="#6C63FF"/>
<path d="M281.623 47.5652H275.979V56.8463H281.623V47.5652Z" fill="#6C63FF"/>
<path d="M291.781 47.5652H286.138V56.8463H291.781V47.5652Z" fill="#6C63FF"/>
<path d="M291.781 75.4083H286.138V84.6894H291.781V75.4083Z" fill="#6C63FF"/>
<path d="M303.069 61.4868H297.425V70.7678H303.069V61.4868Z" fill="#6C63FF"/>
<path d="M303.069 76.5685H297.425V85.8495H303.069V76.5685Z" fill="#6C63FF"/>
<path d="M291.781 105.572H286.138V114.853H291.781V105.572Z" fill="#6C63FF"/>
<path d="M303.069 120.653H297.425V129.934H303.069V120.653Z" fill="#6C63FF"/>
<path d="M291.781 177.5H286.138V186.781H291.781V177.5Z" fill="#6C63FF"/>
<path d="M281.623 120.653H275.979V129.934H281.623V120.653Z" fill="#6C63FF"/>
<path d="M262.434 64.9672H256.79V74.2482H262.434V64.9672Z" fill="#6C63FF"/>
<path d="M262.434 209.983H256.79V219.264H262.434V209.983Z" fill="#6C63FF"/>
<path d="M262.434 240.146H256.79V249.428H262.434V240.146Z" fill="#6C63FF"/>
<path d="M262.434 255.228H256.79V264.509H262.434V255.228Z" fill="#6C63FF"/>
<path d="M262.434 81.209H254.533V82.3691H262.434V81.209Z" fill="#6C63FF"/>
<path d="M292.91 95.1305H285.009V96.2906H292.91V95.1305Z" fill="#6C63FF"/>
<path d="M262.434 155.457H254.533V156.617H262.434V155.457Z" fill="#6C63FF"/>
<path d="M262.434 168.219H254.533V169.379H262.434V168.219Z" fill="#6C63FF"/>
<path d="M292.91 242.467H285.009V243.627H292.91V242.467Z" fill="#6C63FF"/>
<path d="M283.88 270.31H275.979V271.47H283.88V270.31Z" fill="#6C63FF"/>
<path d="M256.79 91.6504V93.9703H259.048V98.611H256.79V100.931H262.434V91.6504H256.79Z" fill="#6C63FF"/>
<path d="M275.979 75.4086V77.7285H278.236V82.3691H275.979V84.6891H281.623V75.4086H275.979Z" fill="#6C63FF"/>
<path d="M297.425 90.4897V92.8104H299.682V97.4511H297.425V99.771H303.069V90.4897H297.425Z" fill="#6C63FF"/>
<path d="M297.425 135.735V138.055H299.682V142.696H297.425V145.016H303.069V135.735H297.425Z" fill="#6C63FF"/>
<path d="M297.425 150.816V153.137H299.682V157.778H297.425V160.098H303.069V150.816H297.425Z" fill="#6C63FF"/>
<path d="M297.425 104.412V106.732H299.682V111.372H297.425V113.693H303.069V104.412H297.425Z" fill="#6C63FF"/>
<path d="M286.138 61.4867V63.8074H288.395V68.4473H286.138V70.768H291.781V61.4867H286.138Z" fill="#6C63FF"/>
<path d="M291.781 135.735H286.138V145.016H291.781V135.735Z" fill="#6C63FF"/>
<path d="M291.781 163.578H286.138V172.859H291.781V163.578Z" fill="#6C63FF"/>
<path d="M286.138 149.656V151.976H288.395V156.617H286.138V158.938H291.781V149.656H286.138Z" fill="#6C63FF"/>
<path d="M275.979 90.4897V92.8104H278.236V97.4511H275.979V99.771H281.623V90.4897H275.979Z" fill="#6C63FF"/>
<path d="M275.979 105.572V107.892H278.236V112.532H275.979V114.853H281.623V105.572H275.979Z" fill="#6C63FF"/>
<path d="M281.623 150.817H275.979V160.098H281.623V150.817Z" fill="#6C63FF"/>
<path d="M275.979 135.735V138.055H278.236V142.696H275.979V145.016H281.623V135.735H275.979Z" fill="#6C63FF"/>
<path d="M281.623 180.98H275.979V190.261H281.623V180.98Z" fill="#6C63FF"/>
<path d="M275.979 165.898V168.218H278.236V172.859H275.979V175.18H281.623V165.898H275.979Z" fill="#6C63FF"/>
<path d="M281.623 211.143H275.979V220.424H281.623V211.143Z" fill="#6C63FF"/>
<path d="M291.781 208.823H286.138V218.104H291.781V208.823Z" fill="#6C63FF"/>
<path d="M275.979 196.061V198.382H278.236V203.023H275.979V205.343H281.623V196.061H275.979Z" fill="#6C63FF"/>
<path d="M297.425 196.061V198.382H299.682V203.023H297.425V205.343H303.069V196.061H297.425Z" fill="#6C63FF"/>
<path d="M360.635 61.4868H354.991V70.7678H360.635V61.4868Z" fill="#6C63FF"/>
<path d="M360.635 76.5685H354.991V85.8495H360.635V76.5685Z" fill="#6C63FF"/>
<path d="M360.635 120.653H354.991V129.934H360.635V120.653Z" fill="#6C63FF"/>
<path d="M354.991 90.4897V92.8104H357.249V97.4511H354.991V99.771H360.635V90.4897H354.991Z" fill="#6C63FF"/>
<path d="M354.991 135.735V138.055H357.249V142.696H354.991V145.016H360.635V135.735H354.991Z" fill="#6C63FF"/>
<path d="M354.991 150.816V153.137H357.249V157.778H354.991V160.098H360.635V150.816H354.991Z" fill="#6C63FF"/>
<path d="M354.991 104.412V106.732H357.249V111.372H354.991V113.693H360.635V104.412H354.991Z" fill="#6C63FF"/>
<path d="M354.991 196.061V198.382H357.249V203.023H354.991V205.343H360.635V196.061H354.991Z" fill="#6C63FF"/>
<path d="M281.623 241.307H275.979V250.588H281.623V241.307Z" fill="#6C63FF"/>
<path d="M291.781 223.905H286.138V233.186H291.781V223.905Z" fill="#6C63FF"/>
<path d="M281.623 280.751H275.979V290.032H281.623V280.751Z" fill="#6C63FF"/>
<path d="M291.781 252.908H286.138V262.189H291.781V252.908Z" fill="#6C63FF"/>
<path d="M275.979 226.225V228.545H278.236V233.186H275.979V235.506H281.623V226.225H275.979Z" fill="#6C63FF"/>
<path d="M275.979 296.993V299.313H278.236V303.954H275.979V306.274H281.623V296.993H275.979Z" fill="#6C63FF"/>
<path d="M343.704 47.5652H338.06V56.8463H343.704V47.5652Z" fill="#6C63FF"/>
<path d="M343.704 120.653H338.06V129.934H343.704V120.653Z" fill="#6C63FF"/>
<path d="M345.961 270.31H338.06V271.47H345.961V270.31Z" fill="#6C63FF"/>
<path d="M338.06 75.4086V77.7285H340.317V82.3691H338.06V84.6891H343.703V75.4086H338.06Z" fill="#6C63FF"/>
<path d="M338.06 90.4897V92.8104H340.317V97.4511H338.06V99.771H343.703V90.4897H338.06Z" fill="#6C63FF"/>
<path d="M338.06 105.572V107.892H340.317V112.532H338.06V114.853H343.703V105.572H338.06Z" fill="#6C63FF"/>
<path d="M343.704 150.817H338.06V160.098H343.704V150.817Z" fill="#6C63FF"/>
<path d="M338.06 135.735V138.055H340.317V142.696H338.06V145.016H343.703V135.735H338.06Z" fill="#6C63FF"/>
<path d="M343.704 180.98H338.06V190.261H343.704V180.98Z" fill="#6C63FF"/>
<path d="M338.06 165.898V168.218H340.317V172.859H338.06V175.18H343.703V165.898H338.06Z" fill="#6C63FF"/>
<path d="M343.704 211.143H338.06V220.424H343.704V211.143Z" fill="#6C63FF"/>
<path d="M338.06 196.061V198.382H340.317V203.023H338.06V205.343H343.703V196.061H338.06Z" fill="#6C63FF"/>
<path d="M343.704 241.307H338.06V250.588H343.704V241.307Z" fill="#6C63FF"/>
<path d="M343.704 280.751H338.06V290.032H343.704V280.751Z" fill="#6C63FF"/>
<path d="M338.06 226.225V228.545H340.317V233.186H338.06V235.506H343.703V226.225H338.06Z" fill="#6C63FF"/>
<path d="M338.06 296.993V299.313H340.317V303.954H338.06V306.274H343.703V296.993H338.06Z" fill="#6C63FF"/>
<path d="M370.794 47.5652H365.15V56.8463H370.794V47.5652Z" fill="#6C63FF"/>
<path d="M370.794 120.653H365.15V129.934H370.794V120.653Z" fill="#6C63FF"/>
<path d="M373.051 270.31H365.15V271.47H373.051V270.31Z" fill="#6C63FF"/>
<path d="M365.15 75.4086V77.7285H367.408V82.3691H365.15V84.6891H370.793V75.4086H365.15Z" fill="#6C63FF"/>
<path d="M365.15 90.4897V92.8104H367.408V97.4511H365.15V99.771H370.793V90.4897H365.15Z" fill="#6C63FF"/>
<path d="M365.15 105.572V107.892H367.408V112.532H365.15V114.853H370.793V105.572H365.15Z" fill="#6C63FF"/>
<path d="M370.794 150.817H365.15V160.098H370.794V150.817Z" fill="#6C63FF"/>
<path d="M365.15 135.735V138.055H367.408V142.696H365.15V145.016H370.793V135.735H365.15Z" fill="#6C63FF"/>
<path d="M370.794 180.98H365.15V190.261H370.794V180.98Z" fill="#6C63FF"/>
<path d="M365.15 165.898V168.218H367.408V172.859H365.15V175.18H370.793V165.898H365.15Z" fill="#6C63FF"/>
<path d="M370.794 211.143H365.15V220.424H370.794V211.143Z" fill="#6C63FF"/>
<path d="M365.15 196.061V198.382H367.408V203.023H365.15V205.343H370.793V196.061H365.15Z" fill="#6C63FF"/>
<path d="M370.794 241.307H365.15V250.588H370.794V241.307Z" fill="#6C63FF"/>
<path d="M370.794 280.751H365.15V290.032H370.794V280.751Z" fill="#6C63FF"/>
<path d="M365.15 226.225V228.545H367.408V233.186H365.15V235.506H370.793V226.225H365.15Z" fill="#6C63FF"/>
<path d="M365.15 296.993V299.313H367.408V303.954H365.15V306.274H370.793V296.993H365.15Z" fill="#6C63FF"/>
<path d="M286.138 280.751V283.071H288.395V287.712H286.138V290.032H291.781V280.751H286.138Z" fill="#6C63FF"/>
<path d="M286.138 295.833V298.153H288.395V302.794H286.138V305.114H291.781V295.833H286.138Z" fill="#6C63FF"/>
<path d="M256.79 120.653V122.973H259.048V127.614H256.79V129.935H262.434V120.653H256.79Z" fill="#6C63FF"/>
<path d="M256.79 179.82V182.14H259.048V186.781H256.79V189.101H262.434V179.82H256.79Z" fill="#6C63FF"/>
<path d="M256.79 194.901V197.222H259.048V201.863H256.79V204.183H262.434V194.901H256.79Z" fill="#6C63FF"/>
<path d="M256.79 225.065V227.385H259.048V232.026H256.79V234.346H262.434V225.065H256.79Z" fill="#6C63FF"/>
<path d="M256.79 267.989V270.31H259.048V274.951H256.79V277.271H262.434V267.989H256.79Z" fill="#6C63FF"/>
<path d="M256.79 280.751V283.071H259.048V287.712H256.79V290.032H262.434V280.751H256.79Z" fill="#6C63FF"/>
<path d="M321.129 49.8855H315.485V59.1665H321.129V49.8855Z" fill="#6C63FF"/>
<path d="M321.129 64.9672H315.485V74.2482H321.129V64.9672Z" fill="#6C63FF"/>
<path d="M321.129 81.209H313.228V82.3691H321.129V81.209Z" fill="#6C63FF"/>
<path d="M321.129 155.457H313.228V156.617H321.129V155.457Z" fill="#6C63FF"/>
<path d="M321.129 168.219H313.228V169.379H321.129V168.219Z" fill="#6C63FF"/>
<path d="M315.485 91.6504V93.9703H317.743V98.611H315.485V100.931H321.129V91.6504H315.485Z" fill="#6C63FF"/>
<path d="M315.485 120.653V122.973H317.743V127.614H315.485V129.935H321.129V120.653H315.485Z" fill="#6C63FF"/>
<path d="M315.485 179.82V182.14H317.743V186.781H315.485V189.101H321.129V179.82H315.485Z" fill="#6C63FF"/>
<path d="M385.467 150.817H379.824V160.098H385.467V150.817Z" fill="#6C63FF"/>
<path d="M385.467 165.898H379.824V175.179H385.467V165.898Z" fill="#6C63FF"/>
<path d="M385.467 182.14H377.566V183.3H385.467V182.14Z" fill="#6C63FF"/>
<path d="M385.467 256.388H377.566V257.548H385.467V256.388Z" fill="#6C63FF"/>
<path d="M385.467 269.15H377.566V270.31H385.467V269.15Z" fill="#6C63FF"/>
<path d="M379.823 192.581V194.901H382.081V199.542H379.823V201.863H385.467V192.581H379.823Z" fill="#6C63FF"/>
<path d="M379.823 221.584V223.905H382.081V228.545H379.823V230.866H385.467V221.584H379.823Z" fill="#6C63FF"/>
<path d="M379.823 280.751V283.071H382.081V287.712H379.823V290.032H385.467V280.751H379.823Z" fill="#6C63FF"/>
<path d="M403.527 49.8855H397.884V59.1665H403.527V49.8855Z" fill="#6C63FF"/>
<path d="M422.716 47.5652H417.072V56.8463H422.716V47.5652Z" fill="#6C63FF"/>
<path d="M432.875 47.5652H427.231V56.8463H432.875V47.5652Z" fill="#6C63FF"/>
<path d="M432.875 75.4083H427.231V84.6894H432.875V75.4083Z" fill="#6C63FF"/>
<path d="M444.162 61.4868H438.519V70.7678H444.162V61.4868Z" fill="#6C63FF"/>
<path d="M444.162 76.5685H438.519V85.8495H444.162V76.5685Z" fill="#6C63FF"/>
<path d="M432.875 105.572H427.231V114.853H432.875V105.572Z" fill="#6C63FF"/>
<path d="M444.162 120.653H438.519V129.934H444.162V120.653Z" fill="#6C63FF"/>
<path d="M432.875 177.5H427.231V186.781H432.875V177.5Z" fill="#6C63FF"/>
<path d="M422.716 120.653H417.072V129.934H422.716V120.653Z" fill="#6C63FF"/>
<path d="M403.527 64.9672H397.884V74.2482H403.527V64.9672Z" fill="#6C63FF"/>
<path d="M403.527 209.983H397.884V219.264H403.527V209.983Z" fill="#6C63FF"/>
<path d="M403.527 240.146H397.884V249.428H403.527V240.146Z" fill="#6C63FF"/>
<path d="M403.527 255.228H397.884V264.509H403.527V255.228Z" fill="#6C63FF"/>
<path d="M403.527 81.209H395.626V82.3691H403.527V81.209Z" fill="#6C63FF"/>
<path d="M434.004 95.1305H426.102V96.2906H434.004V95.1305Z" fill="#6C63FF"/>
<path d="M403.527 155.457H395.626V156.617H403.527V155.457Z" fill="#6C63FF"/>
<path d="M403.527 168.219H395.626V169.379H403.527V168.219Z" fill="#6C63FF"/>
<path d="M434.004 242.467H426.102V243.627H434.004V242.467Z" fill="#6C63FF"/>
<path d="M424.973 270.31H417.072V271.47H424.973V270.31Z" fill="#6C63FF"/>
<path d="M397.883 91.6504V93.9703H400.141V98.611H397.883V100.931H403.528V91.6504H397.883Z" fill="#6C63FF"/>
<path d="M417.072 75.4086V77.7285H419.329V82.3691H417.072V84.6891H422.716V75.4086H417.072Z" fill="#6C63FF"/>
<path d="M438.519 90.4897V92.8104H440.776V97.4511H438.519V99.771H444.162V90.4897H438.519Z" fill="#6C63FF"/>
<path d="M438.519 135.735V138.055H440.776V142.696H438.519V145.016H444.162V135.735H438.519Z" fill="#6C63FF"/>
<path d="M438.519 150.816V153.137H440.776V157.778H438.519V160.098H444.162V150.816H438.519Z" fill="#6C63FF"/>
<path d="M438.519 104.412V106.732H440.776V111.372H438.519V113.693H444.162V104.412H438.519Z" fill="#6C63FF"/>
<path d="M427.231 61.4867V63.8074H429.488V68.4473H427.231V70.768H432.875V61.4867H427.231Z" fill="#6C63FF"/>
<path d="M432.875 135.735H427.231V145.016H432.875V135.735Z" fill="#6C63FF"/>
<path d="M432.875 163.578H427.231V172.859H432.875V163.578Z" fill="#6C63FF"/>
<path d="M427.231 149.656V151.976H429.488V156.617H427.231V158.938H432.875V149.656H427.231Z" fill="#6C63FF"/>
<path d="M417.072 90.4897V92.8104H419.329V97.4511H417.072V99.771H422.716V90.4897H417.072Z" fill="#6C63FF"/>
<path d="M417.072 105.572V107.892H419.329V112.532H417.072V114.853H422.716V105.572H417.072Z" fill="#6C63FF"/>
<path d="M422.716 150.817H417.072V160.098H422.716V150.817Z" fill="#6C63FF"/>
<path d="M417.072 135.735V138.055H419.329V142.696H417.072V145.016H422.716V135.735H417.072Z" fill="#6C63FF"/>
<path d="M422.716 180.98H417.072V190.261H422.716V180.98Z" fill="#6C63FF"/>
<path d="M417.072 165.898V168.218H419.329V172.859H417.072V175.18H422.716V165.898H417.072Z" fill="#6C63FF"/>
<path d="M422.716 211.143H417.072V220.424H422.716V211.143Z" fill="#6C63FF"/>
<path d="M432.875 208.823H427.231V218.104H432.875V208.823Z" fill="#6C63FF"/>
<path d="M417.072 196.061V198.382H419.329V203.023H417.072V205.343H422.716V196.061H417.072Z" fill="#6C63FF"/>
<path d="M438.519 196.061V198.382H440.776V203.023H438.519V205.343H444.162V196.061H438.519Z" fill="#6C63FF"/>
<path d="M501.728 61.4868H496.085V70.7678H501.728V61.4868Z" fill="#6C63FF"/>
<path d="M501.728 76.5685H496.085V85.8495H501.728V76.5685Z" fill="#6C63FF"/>
<path d="M501.728 120.653H496.085V129.934H501.728V120.653Z" fill="#6C63FF"/>
<path d="M496.085 90.4897V92.8104H498.342V97.4511H496.085V99.771H501.728V90.4897H496.085Z" fill="#6C63FF"/>
<path d="M496.085 135.735V138.055H498.342V142.696H496.085V145.016H501.728V135.735H496.085Z" fill="#6C63FF"/>
<path d="M496.085 150.816V153.137H498.342V157.778H496.085V160.098H501.728V150.816H496.085Z" fill="#6C63FF"/>
<path d="M496.085 104.412V106.732H498.342V111.372H496.085V113.693H501.728V104.412H496.085Z" fill="#6C63FF"/>
<path d="M496.085 196.061V198.382H498.342V203.023H496.085V205.343H501.728V196.061H496.085Z" fill="#6C63FF"/>
<path d="M422.716 241.307H417.072V250.588H422.716V241.307Z" fill="#6C63FF"/>
<path d="M432.875 223.905H427.231V233.186H432.875V223.905Z" fill="#6C63FF"/>
<path d="M422.716 280.751H417.072V290.032H422.716V280.751Z" fill="#6C63FF"/>
<path d="M432.875 252.908H427.231V262.189H432.875V252.908Z" fill="#6C63FF"/>
<path d="M417.072 226.225V228.545H419.329V233.186H417.072V235.506H422.716V226.225H417.072Z" fill="#6C63FF"/>
<path d="M417.072 296.993V299.313H419.329V303.954H417.072V306.274H422.716V296.993H417.072Z" fill="#6C63FF"/>
<path d="M484.797 47.5652H479.153V56.8463H484.797V47.5652Z" fill="#6C63FF"/>
<path d="M484.797 120.653H479.153V129.934H484.797V120.653Z" fill="#6C63FF"/>
<path d="M487.055 270.31H479.153V271.47H487.055V270.31Z" fill="#6C63FF"/>
<path d="M479.154 75.4086V77.7285H481.411V82.3691H479.154V84.6891H484.797V75.4086H479.154Z" fill="#6C63FF"/>
<path d="M479.154 90.4897V92.8104H481.411V97.4511H479.154V99.771H484.797V90.4897H479.154Z" fill="#6C63FF"/>
<path d="M479.154 105.572V107.892H481.411V112.532H479.154V114.853H484.797V105.572H479.154Z" fill="#6C63FF"/>
<path d="M484.797 150.817H479.153V160.098H484.797V150.817Z" fill="#6C63FF"/>
<path d="M479.154 135.735V138.055H481.411V142.696H479.154V145.016H484.797V135.735H479.154Z" fill="#6C63FF"/>
<path d="M484.797 180.98H479.153V190.261H484.797V180.98Z" fill="#6C63FF"/>
<path d="M479.154 165.898V168.218H481.411V172.859H479.154V175.18H484.797V165.898H479.154Z" fill="#6C63FF"/>
<path d="M484.797 211.143H479.153V220.424H484.797V211.143Z" fill="#6C63FF"/>
<path d="M479.154 196.061V198.382H481.411V203.023H479.154V205.343H484.797V196.061H479.154Z" fill="#6C63FF"/>
<path d="M484.797 241.307H479.153V250.588H484.797V241.307Z" fill="#6C63FF"/>
<path d="M484.797 280.751H479.153V290.032H484.797V280.751Z" fill="#6C63FF"/>
<path d="M479.154 226.225V228.545H481.411V233.186H479.154V235.506H484.797V226.225H479.154Z" fill="#6C63FF"/>
<path d="M479.154 296.993V299.313H481.411V303.954H479.154V306.274H484.797V296.993H479.154Z" fill="#6C63FF"/>
<path d="M511.887 47.5652H506.243V56.8463H511.887V47.5652Z" fill="#6C63FF"/>
<path d="M511.887 120.653H506.243V129.934H511.887V120.653Z" fill="#6C63FF"/>
<path d="M514.145 270.31H506.243V271.47H514.145V270.31Z" fill="#6C63FF"/>
<path d="M506.244 75.4086V77.7285H508.501V82.3691H506.244V84.6891H511.887V75.4086H506.244Z" fill="#6C63FF"/>
<path d="M506.244 90.4897V92.8104H508.501V97.4511H506.244V99.771H511.887V90.4897H506.244Z" fill="#6C63FF"/>
<path d="M506.244 105.572V107.892H508.501V112.532H506.244V114.853H511.887V105.572H506.244Z" fill="#6C63FF"/>
<path d="M511.887 150.817H506.243V160.098H511.887V150.817Z" fill="#6C63FF"/>
<path d="M506.244 135.735V138.055H508.501V142.696H506.244V145.016H511.887V135.735H506.244Z" fill="#6C63FF"/>
<path d="M511.887 180.98H506.243V190.261H511.887V180.98Z" fill="#6C63FF"/>
<path d="M506.244 165.898V168.218H508.501V172.859H506.244V175.18H511.887V165.898H506.244Z" fill="#6C63FF"/>
<path d="M511.887 211.143H506.243V220.424H511.887V211.143Z" fill="#6C63FF"/>
<path d="M506.244 196.061V198.382H508.501V203.023H506.244V205.343H511.887V196.061H506.244Z" fill="#6C63FF"/>
<path d="M511.887 241.307H506.243V250.588H511.887V241.307Z" fill="#6C63FF"/>
<path d="M511.887 280.751H506.243V290.032H511.887V280.751Z" fill="#6C63FF"/>
<path d="M506.244 226.225V228.545H508.501V233.186H506.244V235.506H511.887V226.225H506.244Z" fill="#6C63FF"/>
<path d="M506.244 296.993V299.313H508.501V303.954H506.244V306.274H511.887V296.993H506.244Z" fill="#6C63FF"/>
<path d="M427.231 280.751V283.071H429.488V287.712H427.231V290.032H432.875V280.751H427.231Z" fill="#6C63FF"/>
<path d="M427.231 295.833V298.153H429.488V302.794H427.231V305.114H432.875V295.833H427.231Z" fill="#6C63FF"/>
<path d="M397.883 120.653V122.973H400.141V127.614H397.883V129.935H403.528V120.653H397.883Z" fill="#6C63FF"/>
<path d="M397.883 179.82V182.14H400.141V186.781H397.883V189.101H403.528V179.82H397.883Z" fill="#6C63FF"/>
<path d="M397.883 194.901V197.222H400.141V201.863H397.883V204.183H403.528V194.901H397.883Z" fill="#6C63FF"/>
<path d="M397.883 225.065V227.385H400.141V232.026H397.883V234.346H403.528V225.065H397.883Z" fill="#6C63FF"/>
<path d="M397.883 267.989V270.31H400.141V274.951H397.883V277.271H403.528V267.989H397.883Z" fill="#6C63FF"/>
<path d="M397.883 280.751V283.071H400.141V287.712H397.883V290.032H403.528V280.751H397.883Z" fill="#6C63FF"/>
<path d="M462.222 49.8855H456.578V59.1665H462.222V49.8855Z" fill="#6C63FF"/>
<path d="M462.222 64.9672H456.578V74.2482H462.222V64.9672Z" fill="#6C63FF"/>
<path d="M462.222 81.209H454.321V82.3691H462.222V81.209Z" fill="#6C63FF"/>
<path d="M462.222 155.457H454.321V156.617H462.222V155.457Z" fill="#6C63FF"/>
<path d="M462.222 168.219H454.321V169.379H462.222V168.219Z" fill="#6C63FF"/>
<path d="M456.578 91.6504V93.9703H458.836V98.611H456.578V100.931H462.222V91.6504H456.578Z" fill="#6C63FF"/>
<path d="M456.578 120.653V122.973H458.836V127.614H456.578V129.935H462.222V120.653H456.578Z" fill="#6C63FF"/>
<path d="M456.578 179.82V182.14H458.836V186.781H456.578V189.101H462.222V179.82H456.578Z" fill="#6C63FF"/>
<path d="M526.561 150.817H520.917V160.098H526.561V150.817Z" fill="#6C63FF"/>
<path d="M526.561 165.898H520.917V175.179H526.561V165.898Z" fill="#6C63FF"/>
<path d="M526.561 182.14H518.66V183.3H526.561V182.14Z" fill="#6C63FF"/>
<path d="M526.561 256.388H518.66V257.548H526.561V256.388Z" fill="#6C63FF"/>
<path d="M526.561 269.15H518.66V270.31H526.561V269.15Z" fill="#6C63FF"/>
<path d="M520.917 192.581V194.901H523.175V199.542H520.917V201.863H526.561V192.581H520.917Z" fill="#6C63FF"/>
<path d="M520.917 221.584V223.905H523.175V228.545H520.917V230.866H526.561V221.584H520.917Z" fill="#6C63FF"/>
<path d="M520.917 280.751V283.071H523.175V287.712H520.917V290.032H526.561V280.751H520.917Z" fill="#6C63FF"/>
<path d="M281.966 303.968V343.059L287.086 367.116C287.086 367.116 286.354 382.151 287.086 386.661C287.817 391.172 286.354 398.69 281.966 398.69C277.577 398.69 275.383 409.966 275.383 409.966C275.383 409.966 273.92 414.477 270.263 415.228C266.606 415.98 266.606 415.228 266.606 415.228L263.68 422.746L202.971 464.093L214.674 494.164C214.674 494.164 232.96 487.398 234.423 485.142C235.886 482.887 248.32 488.149 248.32 482.887C248.32 477.625 250.514 464.093 254.903 463.341C259.291 462.589 295.863 445.299 295.863 445.299C295.863 445.299 314.88 423.498 316.343 415.228C317.806 406.959 324.389 383.654 324.389 383.654L342.674 415.228V478.377L339.749 512.206L371.931 507.695C371.931 507.695 369.006 486.646 371.931 483.639C374.857 480.632 379.246 444.547 376.32 440.037C373.394 435.526 377.783 415.228 376.32 412.221C374.857 409.214 375.589 387.413 371.931 381.399C368.274 375.385 346.331 313.74 346.331 313.74L281.966 303.968Z" fill="#2F2E41"/>
<path d="M344.137 510.702C344.137 510.702 333.166 529.496 340.48 531.752C347.794 534.007 361.692 531.752 363.154 531.752C364.617 531.752 390.949 532.504 390.949 532.504C390.949 532.504 408.503 528.745 408.503 523.482C408.503 518.22 397.532 518.22 393.874 517.468C390.217 516.716 367.543 507.695 367.543 507.695L344.137 510.702Z" fill="#2F2E41"/>
<path d="M206.331 464.941C206.331 464.941 185.191 462.064 186.084 469.858C186.978 477.653 194.515 489.864 195.097 491.243C195.49 492.178 200.11 504.007 203.051 511.545C205.177 517.071 208.37 522.097 212.439 526.319C215.315 529.273 218.449 531.641 220.504 530.726C225.202 528.634 220.841 518.287 220.059 514.539C219.277 510.791 218.318 485.82 218.318 485.82L206.331 464.941Z" fill="#2F2E41"/>
<path d="M353.28 179.551L376.686 123.92C376.686 123.92 374.491 118.658 369.371 119.41C369.371 119.41 362.423 100.991 349.257 100.991C349.257 100.991 329.508 89.715 323.657 100.991C323.657 100.991 311.223 112.268 311.954 122.793C312.686 133.317 313.417 140.835 313.417 140.835C313.417 140.835 301.714 142.338 303.908 148.353C306.103 154.367 306.834 154.367 303.908 156.622L300.983 158.877C300.983 158.877 240.274 215.259 273.92 297.953L276.846 310.733V322.762C276.846 322.762 350.72 323.513 350.72 322.762C350.72 322.01 349.257 317.499 352.183 314.492C355.108 311.485 355.108 306.975 355.108 306.975C355.108 306.975 352.183 291.939 353.646 287.429C355.108 282.918 355.84 263.372 352.914 258.862C349.988 254.351 351.451 218.267 351.451 218.267L358.034 205.487L355.84 197.969L353.646 190.451L353.28 179.551Z" fill="#8985A8"/>
<path opacity="0.1" d="M347.063 330.279C347.063 330.279 338.286 305.471 339.017 300.96C339.749 296.45 337.554 287.429 337.554 287.429L334.629 226.536C334.629 226.536 347.063 172.409 319.269 163.388C319.269 163.388 312.236 166.542 306.473 176.692C300.775 179.3 293.86 185.903 292.206 202.479C289.28 231.798 302.446 306.975 309.029 319.754C315.611 332.534 320 341.556 320 341.556L326.88 338.413C327.164 338.992 327.314 339.3 327.314 339.3L347.063 330.279Z" fill="black"/>
<path d="M351.086 172.785C352.298 172.785 353.28 171.775 353.28 170.53C353.28 169.284 352.298 168.274 351.086 168.274C349.874 168.274 348.891 169.284 348.891 170.53C348.891 171.775 349.874 172.785 351.086 172.785Z" fill="#F2F2F2"/>
<path d="M351.817 170.53H350.354V205.862H351.817V170.53Z" fill="#3F3D56"/>
<path d="M324.754 332.91L330.606 345.69C330.606 345.69 343.772 341.18 343.772 338.924C343.772 336.669 337.92 326.896 337.92 326.896L324.754 332.91Z" fill="#FFB8B8"/>
<path d="M316.343 163.388C316.343 163.388 299.52 170.905 296.594 200.224C293.668 229.543 306.834 304.719 313.417 317.499C320 330.279 324.388 339.3 324.388 339.3L344.137 330.279C344.137 330.279 335.36 305.471 336.091 300.96C336.823 296.45 334.628 287.429 334.628 287.429L331.703 226.536C331.703 226.536 344.137 172.409 316.343 163.388Z" fill="#8985A8"/>
</svg>
