<svg width="26" height="25" viewBox="0 0 26 25" fill="none" xmlns="http://www.w3.org/2000/svg">
<path d="M12.668 0C5.76435 0 0.167999 5.59635 0.167999 12.5C0.167999 19.4036 5.76435 25 12.668 25C19.5716 25 25.168 19.4036 25.168 12.5C25.168 5.59635 19.5716 0 12.668 0ZM9.6081 17.681H7.07685V9.53516H9.6081V17.681ZM8.32685 8.53516C7.52737 8.53516 7.01045 7.96875 7.01045 7.26823C7.01045 6.55338 7.543 6.00391 8.3594 6.00391C9.17581 6.00391 9.67581 6.55338 9.69144 7.26823C9.69144 7.96875 9.17581 8.53516 8.32685 8.53516ZM18.8529 17.681H16.3216V13.1667C16.3216 12.1159 15.9545 11.4023 15.0391 11.4023C14.3399 11.4023 13.9245 11.8854 13.7409 12.3503C13.6732 12.5156 13.6563 12.75 13.6563 12.9831V17.6797H11.1237V12.1328C11.1237 11.1159 11.0912 10.2656 11.0573 9.53385H13.2565L13.3724 10.6654H13.4232C13.7565 10.1341 14.5729 9.35026 15.9388 9.35026C17.6042 9.35026 18.8529 10.4661 18.8529 12.8646V17.681Z" fill="#6C63FF"/>
</svg>
