<svg width="286" height="427" viewBox="0 0 286 427" fill="none" xmlns="http://www.w3.org/2000/svg">
<path d="M145.166 150.431C178.48 150.431 205.486 122.414 205.486 87.8541C205.486 53.2939 178.48 25.2773 145.166 25.2773C111.852 25.2773 84.8454 53.2939 84.8454 87.8541C84.8454 122.414 111.852 150.431 145.166 150.431Z" fill="#FEB8B8"/>
<path d="M201.506 33.8679C192.488 18.6757 178.371 7.48104 161.873 2.43902L154.468 8.04513V0.765763C150.506 0.136672 146.496 -0.105671 142.49 0.0419189L136.101 6.0389V0.540151C126.642 1.7596 117.528 4.9991 109.336 10.0544C101.144 15.1097 94.0496 21.871 88.5015 29.9122C74.627 50.6621 72.2849 79.5299 85.9315 100.446C89.6772 88.503 94.2241 77.2969 97.971 65.3548C100.915 65.7711 103.899 65.7861 106.847 65.3994L111.405 54.367L112.678 64.9325C126.805 63.6561 147.758 60.8525 161.15 58.2841L159.847 50.1784L167.639 56.9137C171.742 55.9341 174.178 55.045 173.977 54.3658C183.937 71.0237 196.126 81.6628 206.085 98.3207C209.868 74.8322 214.222 55.3019 201.506 33.8679Z" fill="#2F2E41"/>
<path d="M274.898 248.772C272.824 235.826 270.685 222.632 264.885 210.97C261.073 203.331 255.022 196.052 246.866 194.541C245.259 194.393 243.68 194.014 242.174 193.415C239.784 192.22 207.667 173.2 202.562 169.888C198.179 167.044 191.26 161.778 187.771 161.778C184.262 161.698 170.804 164.947 118.277 160.688C118.277 160.688 103.847 166.588 92.681 173.743C92.5118 173.627 38.1623 203.904 36.1205 203.824C32.2536 203.656 28.6594 206.224 26.4426 209.458C24.2264 212.693 23.1867 216.697 22.0982 220.568C33.969 247.993 44.8303 275.453 56.7022 302.878C57.2581 303.911 57.5534 305.073 57.5608 306.256C57.3222 307.483 56.8171 308.638 56.0839 309.633C50.2621 319.335 50.4472 331.538 51.0831 342.941C51.7196 354.344 52.5066 366.388 47.5944 376.609C46.2584 379.415 44.5208 381.983 43.2501 384.789C40.2741 391.145 39.1987 411.471 40.9368 418.299L258.708 424.771C254.026 411.419 274.898 248.772 274.898 248.772Z" fill="#6C63FF"/>
<path d="M3.2742 304.094C2.83967 307.354 2.79592 310.659 3.14395 313.93L6.26517 360.432C6.55822 364.815 6.84661 369.187 7.24316 373.559C7.99205 382.043 9.11079 390.46 10.4993 398.865C10.5306 400.059 11.0171 401.19 11.8519 402.012C12.6867 402.834 13.8016 403.278 14.952 403.248C28.6915 406.264 42.8871 406.143 56.9092 405.322C78.3065 404.083 133.049 401.739 136.393 397.232C139.738 392.725 137.789 385.435 133.428 381.79C129.067 378.146 56.8266 369.26 56.8266 369.26C57.5325 363.458 59.6618 357.993 61.6817 352.483C65.31 342.711 68.6987 332.619 68.7638 322.151C68.8289 311.683 65.0274 300.677 56.7615 294.68C49.9621 289.757 41.2078 288.844 32.9221 289.046C26.8937 289.226 16.4776 287.728 10.9713 290.173C6.61404 292.164 4.08823 299.667 3.2742 304.094Z" fill="#FBBEBE"/>
<path d="M21.4701 221.403C20.4122 222.552 19.5919 223.913 19.0594 225.403C10.28 245.93 5.09432 267.914 3.74525 290.326C3.76894 291.419 3.52614 292.501 3.03938 293.47C2.55936 294.115 2.02505 294.715 1.44273 295.262C0.935038 295.886 0.550846 296.608 0.312117 297.386C0.0733889 298.165 -0.0151973 298.984 0.0513846 299.798C0.117967 300.612 0.338426 301.405 0.700182 302.13C1.06194 302.856 1.5579 303.5 2.15975 304.027C2.25846 304.113 2.35978 304.196 2.4637 304.276C4.25573 300.777 8.54562 299.634 12.3588 299.33C30.6162 297.831 48.4504 306.643 66.7625 305.978C65.4705 301.347 63.6122 296.896 62.5586 292.21C57.8989 271.398 69.5209 248.74 62.3958 228.694C60.9724 224.683 58.5943 220.739 54.8475 218.982C53.2959 218.332 51.6724 217.887 50.0145 217.655C45.3873 216.787 36.176 213.08 31.7024 214.567C30.0511 215.12 29.3999 216.73 28.0311 217.704C25.9519 219.082 23.1935 219.588 21.4701 221.403Z" fill="#6C63FF"/>
<path d="M275.029 290.173C269.522 287.728 259.106 289.226 253.078 289.046C244.792 288.844 236.038 289.757 229.238 294.68C220.972 300.677 217.171 311.683 217.236 322.151C217.301 332.619 220.69 342.711 224.318 352.483C226.338 357.993 228.467 363.458 229.173 369.26C229.173 369.26 156.933 378.145 152.572 381.79C148.211 385.434 146.262 392.725 149.607 397.232C152.951 401.739 257.308 406.264 271.048 403.248C272.198 403.278 273.313 402.834 274.148 402.012C274.983 401.19 275.469 400.059 275.501 398.865C276.889 390.46 278.008 382.043 278.757 373.559C279.153 369.187 279.442 364.815 279.735 360.432L282.856 313.931C283.204 310.659 283.16 307.354 282.726 304.094C281.912 299.667 279.386 292.164 275.029 290.173Z" fill="#FBBEBE"/>
<path d="M257.969 217.704C256.6 216.73 255.949 215.12 254.298 214.567C249.824 213.08 240.613 216.787 235.986 217.655C234.328 217.887 232.704 218.332 231.153 218.982C227.406 220.739 225.028 224.683 223.604 228.694C216.479 248.74 228.101 271.398 223.441 292.209C222.388 296.896 220.53 301.347 219.238 305.978C237.55 306.643 255.384 297.831 273.641 299.33C277.454 299.634 281.744 300.777 283.536 304.276C283.64 304.196 283.742 304.113 283.84 304.027C284.442 303.5 284.938 302.856 285.3 302.13C285.662 301.405 285.882 300.612 285.949 299.798C286.015 298.984 285.927 298.165 285.688 297.386C285.449 296.608 285.065 295.886 284.557 295.262C283.975 294.715 283.441 294.115 282.961 293.47C282.474 292.501 282.231 291.419 282.255 290.326C280.906 267.914 275.72 245.93 266.941 225.403C266.408 223.913 265.588 222.552 264.53 221.403C262.807 219.588 260.048 219.082 257.969 217.704Z" fill="#6C63FF"/>
<path d="M127.301 405.469C136.292 405.469 143.582 397.907 143.582 388.579C143.582 379.252 136.292 371.69 127.301 371.69C118.309 371.69 111.02 379.252 111.02 388.579C111.02 397.907 118.309 405.469 127.301 405.469Z" fill="#FBBEBE"/>
<path d="M163.351 405.469C172.342 405.469 179.631 397.907 179.631 388.579C179.631 379.252 172.342 371.69 163.351 371.69C154.359 371.69 147.07 379.252 147.07 388.579C147.07 397.907 154.359 405.469 163.351 405.469Z" fill="#FBBEBE"/>
<path d="M263.846 426.638H40.1765C37.5651 426.635 35.0616 425.557 33.215 423.642C31.3684 421.726 30.3296 419.129 30.3265 416.42V275.65C30.3296 272.941 31.3684 270.344 33.215 268.428C35.0616 266.513 37.5651 265.435 40.1765 265.432H263.846C266.458 265.435 268.961 266.513 270.808 268.428C272.654 270.344 273.693 272.941 273.696 275.65V416.42C273.693 419.129 272.654 421.726 270.808 423.642C268.961 425.557 266.458 426.635 263.846 426.638Z" fill="#3F3D56"/>
<path d="M151.469 352.796C155.068 352.796 157.986 349.769 157.986 346.035C157.986 342.301 155.068 339.274 151.469 339.274C147.87 339.274 144.952 342.301 144.952 346.035C144.952 349.769 147.87 352.796 151.469 352.796Z" fill="white"/>
<path d="M89.6974 111.177C80.0051 111.177 72.1478 102.364 72.1478 91.4927V81.6502C72.1478 70.7785 80.005 61.9653 89.6973 61.9653V111.177H89.6974Z" fill="#6C63FF"/>
<path d="M201.71 61.9656C211.402 61.9656 219.259 70.7788 219.259 81.6504V91.4929C219.259 102.365 211.402 111.178 201.71 111.178V61.9656Z" fill="#6C63FF"/>
<path d="M210.906 83.197H208.122C208.122 43.5873 179.393 11.3622 144.079 11.3622C108.766 11.3622 80.0371 43.5873 80.0371 83.197H77.2527C77.2527 41.865 107.231 8.23901 144.079 8.23901C180.928 8.23903 210.906 41.865 210.906 83.197Z" fill="#6C63FF"/>
</svg>
