<svg width="653" height="426" viewBox="0 0 653 426" fill="none" xmlns="http://www.w3.org/2000/svg">
<path d="M281.657 149.829C314.838 149.829 341.736 121.924 341.736 87.5025C341.736 53.0805 314.838 25.176 281.657 25.176C248.476 25.176 221.578 53.0805 221.578 87.5025C221.578 121.924 248.476 149.829 281.657 149.829Z" fill="#FEB8B8"/>
<path d="M337.772 33.7325C328.79 18.601 314.729 7.45112 298.298 2.42927L290.922 8.01295V0.7627C286.976 0.136126 282.982 -0.105249 278.992 0.0417512L272.629 6.01475V0.53799C263.207 1.75256 254.13 4.97911 245.971 10.0142C237.811 15.0492 230.745 21.7835 225.22 29.7925C211.401 50.4595 209.068 79.2117 222.66 100.045C226.39 88.149 230.919 76.9877 234.651 65.0933C237.584 65.508 240.556 65.523 243.492 65.1378L248.031 54.1495L249.299 64.6728C263.37 63.4015 284.239 60.6091 297.577 58.051L296.28 49.9776L304.04 56.6861C308.127 55.7104 310.553 54.8248 310.353 54.1484C320.273 70.7396 332.414 81.3362 342.333 97.9274C346.101 74.5329 350.437 55.0807 337.772 33.7325Z" fill="#2F2E41"/>
<path d="M410.871 247.777C408.805 234.883 406.674 221.742 400.897 210.126C397.101 202.518 391.074 195.267 382.95 193.763C381.35 193.615 379.777 193.237 378.277 192.641C375.897 191.451 343.908 172.507 338.824 169.208C334.458 166.375 327.567 161.131 324.092 161.131C320.597 161.051 307.193 164.287 254.875 160.045C254.875 160.045 240.503 165.922 229.382 173.048C229.214 172.932 175.082 203.088 173.048 203.009C169.197 202.841 165.617 205.399 163.409 208.62C161.201 211.842 160.166 215.83 159.082 219.686C170.905 247.001 181.723 274.351 193.547 301.666C194.101 302.695 194.395 303.852 194.403 305.031C194.165 306.253 193.662 307.404 192.932 308.395C187.133 318.058 187.317 330.212 187.951 341.569C188.585 352.926 189.369 364.923 184.476 375.102C183.145 377.897 181.415 380.455 180.149 383.25C177.185 389.58 176.114 409.825 177.845 416.626L394.745 423.072C390.082 409.773 410.871 247.777 410.871 247.777Z" fill="#6C63FF"/>
<path d="M140.333 302.877C139.9 306.125 139.857 309.416 140.203 312.675L143.312 358.99C143.604 363.356 143.891 367.71 144.286 372.065C145.032 380.515 146.146 388.899 147.529 397.27C147.561 398.458 148.045 399.586 148.876 400.404C149.708 401.222 150.818 401.665 151.964 401.635C165.649 404.639 179.788 404.519 193.754 403.701C215.065 402.467 269.588 400.132 272.919 395.643C276.251 391.154 274.309 383.893 269.966 380.263C265.622 376.633 193.671 367.783 193.671 367.783C194.374 362.004 196.495 356.561 198.507 351.073C202.121 341.341 205.496 331.288 205.561 320.862C205.626 310.436 201.839 299.474 193.606 293.501C186.834 288.598 178.115 287.688 169.862 287.89C163.858 288.069 153.484 286.577 147.999 289.012C143.66 290.995 141.144 298.469 140.333 302.877Z" fill="#FBBEBE"/>
<path d="M158.456 220.517C157.403 221.662 156.585 223.018 156.055 224.502C147.311 244.946 142.146 266.842 140.802 289.165C140.826 290.254 140.584 291.331 140.099 292.296C139.621 292.939 139.089 293.536 138.509 294.081C138.003 294.702 137.621 295.422 137.383 296.197C137.145 296.972 137.057 297.788 137.123 298.599C137.189 299.41 137.409 300.199 137.769 300.922C138.13 301.644 138.624 302.286 139.223 302.811C139.321 302.897 139.422 302.979 139.526 303.059C141.311 299.574 145.583 298.435 149.381 298.132C167.566 296.64 185.329 305.416 203.567 304.754C202.281 300.141 200.43 295.709 199.38 291.041C194.739 270.312 206.315 247.745 199.218 227.779C197.801 223.784 195.432 219.856 191.7 218.106C190.155 217.459 188.538 217.015 186.886 216.784C182.278 215.92 173.103 212.228 168.648 213.709C167.003 214.259 166.354 215.863 164.991 216.833C162.92 218.205 160.173 218.71 158.456 220.517Z" fill="#6C63FF"/>
<path d="M411 289.012C405.516 286.577 395.142 288.069 389.137 287.89C380.885 287.688 372.166 288.598 365.393 293.501C357.161 299.474 353.374 310.436 353.439 320.862C353.504 331.288 356.879 341.341 360.493 351.073C362.505 356.561 364.625 362.004 365.329 367.783C365.329 367.783 293.377 376.633 289.034 380.263C284.691 383.893 282.749 391.154 286.08 395.643C289.411 400.132 393.351 404.639 407.036 401.635C408.181 401.665 409.292 401.222 410.123 400.404C410.955 399.586 411.439 398.458 411.471 397.27C412.854 388.899 413.968 380.515 414.714 372.065C415.109 367.71 415.396 363.356 415.688 358.99L418.796 312.675C419.143 309.416 419.1 306.125 418.667 302.877C417.856 298.469 415.34 290.995 411 289.012Z" fill="#FBBEBE"/>
<path d="M394.009 216.833C392.646 215.863 391.997 214.259 390.352 213.709C385.897 212.228 376.722 215.92 372.114 216.784C370.462 217.015 368.845 217.459 367.3 218.106C363.568 219.856 361.199 223.784 359.782 227.779C352.685 247.745 364.261 270.312 359.62 291.041C358.57 295.709 356.719 300.141 355.433 304.754C373.671 305.416 391.434 296.64 409.619 298.132C413.417 298.435 417.689 299.574 419.474 303.059C419.578 302.979 419.679 302.897 419.777 302.811C420.376 302.286 420.87 301.644 421.231 300.922C421.591 300.199 421.811 299.41 421.877 298.599C421.943 297.788 421.855 296.972 421.617 296.197C421.379 295.422 420.997 294.702 420.491 294.081C419.911 293.536 419.379 292.939 418.901 292.296C418.416 291.331 418.174 290.254 418.198 289.165C416.854 266.842 411.689 244.946 402.945 224.502C402.415 223.018 401.597 221.662 400.544 220.517C398.827 218.71 396.08 218.205 394.009 216.833Z" fill="#6C63FF"/>
<path d="M263.864 403.847C272.819 403.847 280.079 396.316 280.079 387.025C280.079 377.735 272.819 370.203 263.864 370.203C254.908 370.203 247.648 377.735 247.648 387.025C247.648 396.316 254.908 403.847 263.864 403.847Z" fill="#FBBEBE"/>
<path d="M299.769 403.847C308.725 403.847 315.985 396.316 315.985 387.025C315.985 377.735 308.725 370.203 299.769 370.203C290.814 370.203 283.554 377.735 283.554 387.025C283.554 396.316 290.814 403.847 299.769 403.847Z" fill="#FBBEBE"/>
<path d="M399.863 424.931H177.088C174.487 424.928 171.993 423.855 170.154 421.947C168.315 420.039 167.28 417.452 167.277 414.754V274.548C167.28 271.849 168.315 269.263 170.154 267.355C171.993 265.447 174.487 264.374 177.088 264.371H399.863C402.464 264.374 404.957 265.447 406.797 267.355C408.636 269.263 409.67 271.849 409.673 274.548V414.754C409.67 417.452 408.636 420.039 406.797 421.947C404.957 423.855 402.464 424.928 399.863 424.931Z" fill="#3F3D56"/>
<path d="M287.935 351.385C291.52 351.385 294.426 348.37 294.426 344.651C294.426 340.932 291.52 337.917 287.935 337.917C284.35 337.917 281.444 340.932 281.444 344.651C281.444 348.37 284.35 351.385 287.935 351.385Z" fill="white"/>
<path d="M226.411 110.733C216.757 110.733 208.931 101.955 208.931 91.1267V81.3236C208.931 70.4955 216.757 61.7175 226.411 61.7175V110.733H226.411Z" fill="#6C63FF"/>
<path d="M337.975 61.7175C347.629 61.7175 355.454 70.4955 355.454 81.3236V91.1267C355.454 101.955 347.629 110.733 337.975 110.733V61.7175Z" fill="#6C63FF"/>
<path d="M347.135 82.8642H344.361C344.361 43.4129 315.747 11.3168 280.575 11.3168C245.403 11.3168 216.789 43.4129 216.789 82.8642H214.016C214.016 41.6975 243.874 8.20605 280.575 8.20605C317.276 8.20607 347.135 41.6976 347.135 82.8642Z" fill="#6C63FF"/>
</svg>
