<svg width="250" height="165" viewBox="0 0 250 165" fill="none" xmlns="http://www.w3.org/2000/svg">
<g clip-path="url(#clip0_27:1998)">
<path d="M173.213 74.5343L174.768 73.9259C174.917 73.8673 175.063 73.8042 175.219 73.7434C172.342 72.6856 169.911 70.6816 168.326 68.061C166.741 65.4404 166.096 62.3591 166.497 59.3238C166.898 56.2885 168.321 53.4799 170.533 51.3597C172.745 49.2396 175.613 47.9341 178.667 47.6579L177.583 53.1107L181.695 47.721H181.731C185.279 48.2082 188.489 50.0829 190.654 52.933C192.818 55.7831 193.761 59.375 193.274 62.9189C193.24 63.1735 193.186 63.4214 193.139 63.6715C194.404 62.6733 195.591 61.5715 196.48 60.2917C198.285 57.6915 198.897 54.4874 199.519 50.5645C200.754 42.7954 201.866 34.9407 202.868 27.0905C199.792 26.1636 197.147 24.1714 195.41 21.472C193.673 18.7725 192.957 15.5428 193.391 12.3634C193.448 11.9533 193.527 11.5545 193.617 11.1602C193.639 11.0611 193.662 10.9619 193.687 10.865C193.784 10.4842 193.892 10.1102 194.019 9.73843C194.039 9.6776 194.066 9.62126 194.086 9.56268C194.199 9.25399 194.312 8.94981 194.458 8.66139C194.508 8.54873 194.558 8.43607 194.61 8.33017C194.765 8.00796 194.93 7.69251 195.111 7.38607C195.171 7.28468 195.237 7.18779 195.298 7.08639C195.438 6.86107 195.584 6.63575 195.736 6.4262C195.817 6.31354 195.896 6.20088 195.979 6.09047L196.04 6.00259C197.956 3.49854 200.69 1.7441 203.767 1.04429C206.844 0.344478 210.069 0.743547 212.881 2.17212L211.473 9.26751L215.535 3.9409C217.719 5.78913 219.255 8.28642 219.917 11.0681C220.58 13.8497 220.335 16.77 219.217 19.4025H219.233C219.194 19.4926 219.147 19.5782 219.109 19.6684C219.034 19.8351 218.958 19.9996 218.883 20.1641C218.779 20.3736 218.657 20.5787 218.556 20.7815C218.47 20.9347 218.387 21.0879 218.294 21.2321C218.161 21.4574 218.017 21.6602 217.872 21.8698C217.787 21.9914 217.708 22.1176 217.62 22.237C217.394 22.5502 217.141 22.8499 216.884 23.1383C216.794 23.2397 216.697 23.3321 216.602 23.4312C216.419 23.625 216.236 23.8166 216.042 23.9991C215.923 24.1117 215.796 24.2244 215.672 24.328C215.494 24.4858 215.311 24.639 215.124 24.7787C214.991 24.8846 214.856 24.986 214.72 25.0851C214.524 25.2271 214.325 25.36 214.125 25.4929C213.989 25.5808 213.854 25.6687 213.716 25.7521C213.491 25.8895 213.254 26.0157 213.017 26.1396C212.897 26.2005 212.791 26.2681 212.658 26.3266C212.301 26.5001 211.936 26.6601 211.564 26.8021C211.494 26.8291 211.419 26.8494 211.349 26.8742C211.038 26.9868 210.724 27.0995 210.406 27.1784C210.269 27.2167 210.129 27.2482 209.989 27.282C209.729 27.3451 209.468 27.4037 209.204 27.4532C209.053 27.4803 208.897 27.5051 208.736 27.5276C208.477 27.5659 208.215 27.5952 207.951 27.6177C207.796 27.6313 207.642 27.6448 207.484 27.6538C207.2 27.6673 206.913 27.6696 206.627 27.6673C206.608 27.6662 206.589 27.6662 206.57 27.6673C206.146 30.972 205.701 34.2768 205.235 37.5815C206.329 36.1063 207.713 34.8698 209.303 33.948C210.893 33.0262 212.654 32.4384 214.48 32.2206C216.305 32.0029 218.156 32.1598 219.918 32.6818C221.681 33.2038 223.318 34.0798 224.729 35.2562L221.191 41.2452L226.88 37.5071C229.03 40.3496 229.963 43.9283 229.474 47.4573C229.307 48.6964 228.965 49.9056 228.459 51.049C227.373 53.5245 225.567 55.617 223.276 57.0549C220.984 58.4928 218.313 59.2097 215.608 59.1125C212.904 59.0154 210.291 58.1087 208.109 56.51C205.926 54.9114 204.276 52.6948 203.371 50.1477C203.319 50.4812 203.269 50.8237 203.218 51.1526C202.667 54.6113 201.983 58.9172 199.556 62.4187C197.911 64.7981 195.645 66.5556 193.443 68.1013C192.011 69.1078 190.546 70.0669 189.048 70.9787C187.475 72.4349 185.578 73.4962 183.513 74.0746C181.106 75.3049 178.648 76.4172 176.137 77.4117L174.569 78.0245C173.159 78.5743 171.715 79.1376 170.282 79.737C170.508 79.7573 170.733 79.7753 170.959 79.8046C173.798 80.1939 176.44 81.4743 178.502 83.4609C180.565 85.4475 181.942 88.0374 182.435 90.8566L172.888 96.0638L182.405 95.6379C182.024 97.7454 181.14 99.7301 179.829 101.424C177.677 104.206 174.522 106.039 171.037 106.533C167.552 107.027 164.011 106.143 161.169 104.07L161.643 104.951C161.959 105.532 162.27 106.111 162.572 106.685C166.708 114.513 167.008 121.273 163.418 125.723L160.485 123.368C163.98 119.038 161.207 112.154 159.244 108.436C158.946 107.873 158.639 107.31 158.342 106.733C155.686 101.814 152.674 96.2396 153.881 90.3068C155.686 81.3615 165.399 77.5761 173.213 74.5343Z" fill="#F2F2F2"/>
<path d="M60.8303 116.944L59.6164 116.469C59.4991 116.424 59.3908 116.372 59.269 116.327C61.515 115.5 63.4125 113.934 64.6497 111.888C65.8868 109.841 66.3901 107.435 66.0767 105.065C65.7633 102.695 64.6519 100.502 62.9251 98.8459C61.1984 97.1901 58.959 96.1701 56.5749 95.9535L57.421 100.212L54.2126 96.003H54.1832C52.81 96.1903 51.4872 96.6459 50.2904 97.3439C49.0935 98.0418 48.0461 98.9684 47.208 100.071C46.3699 101.173 45.7574 102.429 45.4057 103.768C45.0539 105.107 44.9697 106.502 45.158 107.873C45.185 108.074 45.2279 108.265 45.264 108.461C44.2685 107.714 43.3895 106.823 42.6557 105.818C41.25 103.79 40.7672 101.285 40.2798 98.2225C39.3254 92.1545 38.4589 86.0213 37.6805 79.897C40.082 79.172 42.1459 77.6154 43.5012 75.507C44.8565 73.3986 45.4143 70.8766 45.0745 68.3943C45.0293 68.0744 44.9684 67.7634 44.8962 67.4547L44.8421 67.2294C44.7654 66.932 44.6819 66.6391 44.5826 66.3552C44.5668 66.3078 44.5465 66.2628 44.5284 66.2177C44.4404 65.9766 44.3434 65.74 44.2396 65.5079C44.199 65.4223 44.1607 65.3344 44.12 65.2488C43.9982 64.9987 43.8696 64.7531 43.7297 64.5143C43.6823 64.4332 43.6304 64.3565 43.583 64.289C43.4725 64.1132 43.3574 63.9397 43.2401 63.773C43.1769 63.6851 43.116 63.595 43.0506 63.5093L43.0032 63.4417C41.507 61.4864 39.3726 60.1157 36.9703 59.5675C34.5679 59.0193 32.0492 59.3281 29.8511 60.4404L30.9522 65.9834L27.7775 61.8239C26.0716 63.2675 24.8724 65.2177 24.3549 67.39C23.8373 69.5623 24.0286 71.8429 24.9007 73.8989H24.8895C24.9188 73.9688 24.9549 74.0364 24.9865 74.1062C25.0451 74.2369 25.1038 74.3653 25.167 74.4938C25.2482 74.656 25.3339 74.816 25.4242 74.9737C25.4896 75.0954 25.5551 75.2148 25.6273 75.332C25.7311 75.501 25.8529 75.6655 25.9567 75.8299C26.0244 75.9246 26.0853 76.0237 26.1552 76.1161C26.3357 76.3595 26.5275 76.5938 26.7284 76.8214C26.7983 76.9002 26.875 76.9723 26.954 77.0467C27.0961 77.1977 27.2405 77.3464 27.3917 77.4973C27.4842 77.5875 27.5835 77.6708 27.6805 77.7542C27.8204 77.8789 27.9626 77.9983 28.107 78.1125C28.2108 78.1936 28.3168 78.2724 28.4228 78.3513C28.5763 78.4617 28.732 78.5766 28.8876 78.669C28.9937 78.7389 29.0997 78.8065 29.208 78.8718C29.3863 78.98 29.5691 79.0768 29.7541 79.1737C29.8488 79.2233 29.9391 79.2751 30.0339 79.3224C30.3136 79.4576 30.5979 79.5816 30.889 79.692C30.9432 79.7145 31.0018 79.728 31.056 79.7483C31.2974 79.8362 31.5433 79.9173 31.7938 79.9871C31.8998 80.0164 32.0194 80.0412 32.1187 80.066C32.3218 80.1156 32.5248 80.1629 32.7324 80.2012L33.0957 80.2598C33.2987 80.2891 33.5041 80.3116 33.7094 80.3296C33.8312 80.3409 33.9508 80.3499 34.0749 80.3567C34.3006 80.3679 34.5262 80.3702 34.7518 80.3679H34.7947C35.1256 82.9546 35.4731 85.5391 35.8371 88.1213C34.9841 86.9675 33.9039 86 32.663 85.2781C31.422 84.5563 30.0464 84.0954 28.6206 83.9236C27.1948 83.7518 25.7488 83.8729 24.3716 84.2793C22.9943 84.6858 21.7148 85.369 20.6115 86.2871L23.3506 90.9378L18.9102 88.0199C18.0773 89.1186 17.4693 90.3704 17.1209 91.7038C16.7724 93.0373 16.6904 94.4262 16.8795 95.7912C17.0105 96.76 17.2787 97.7053 17.676 98.5987C18.5242 100.532 19.9345 102.166 21.7241 103.289C23.5137 104.412 25.6 104.972 27.7121 104.896C29.8243 104.82 31.8649 104.112 33.5692 102.864C35.2735 101.616 36.5628 99.8848 37.2699 97.8957C37.3105 98.1549 37.3488 98.4185 37.3895 98.6799C37.8182 101.384 38.3529 104.746 40.2482 107.485C41.5343 109.342 43.3033 110.714 45.0226 111.922C46.1417 112.709 47.2857 113.46 48.4544 114.175C49.6832 115.312 51.1649 116.142 52.7775 116.595C54.6548 117.555 56.5772 118.429 58.5402 119.2L59.7631 119.68C60.8642 120.108 61.9923 120.547 63.1047 121.016C62.9287 121.032 62.7505 121.045 62.5722 121.07C60.356 121.373 58.2937 122.372 56.6828 123.922C55.0719 125.472 53.996 127.493 53.6101 129.693L61.056 133.749L53.6237 133.418C53.9509 135.169 54.717 136.808 55.8505 138.183C56.9841 139.558 58.448 140.624 60.1057 141.281C61.7635 141.938 63.5609 142.165 65.3302 141.94C67.0995 141.716 68.7829 141.047 70.2234 139.997C70.0993 140.222 69.9775 140.448 69.8534 140.684C69.6074 141.135 69.3637 141.586 69.1268 142.036C65.898 148.149 65.6634 153.431 68.468 156.908L70.7536 155.069C68.0235 151.689 70.1895 146.311 71.7238 143.406C71.9495 142.967 72.1954 142.523 72.4368 142.077C74.5104 138.246 76.8615 133.882 75.9251 129.247C74.5239 122.276 66.9314 119.328 60.8303 116.944Z" fill="#F2F2F2"/>
<path d="M125 164.751C194.036 164.751 250 162.38 250 159.456C250 156.532 194.036 154.161 125 154.161C55.9644 154.161 0 156.532 0 159.456C0 162.38 55.9644 164.751 125 164.751Z" fill="#3F3D56"/>
<path opacity="0.1" d="M125 164.751C194.036 164.751 250 162.38 250 159.456C250 156.532 194.036 154.161 125 154.161C55.9644 154.161 0 156.532 0 159.456C0 162.38 55.9644 164.751 125 164.751Z" fill="black"/>
<path d="M125 161.822C194.036 161.822 250 159.451 250 156.527C250 153.602 194.036 151.232 125 151.232C55.9644 151.232 0 153.602 0 156.527C0 159.451 55.9644 161.822 125 161.822Z" fill="#3F3D56"/>
<path d="M19.1787 154.643C18.5018 153.401 19.269 151.881 20.1444 150.772C21.0199 149.663 22.0871 148.519 22.0645 147.101C22.0329 145.074 19.8759 143.877 18.1543 142.802C16.877 142.004 15.6985 141.058 14.6435 139.984C14.2025 139.569 13.8375 139.081 13.565 138.541C13.2085 137.748 13.2198 136.847 13.2423 135.977C13.3175 133.084 13.4604 130.194 13.671 127.307" stroke="#3F3D56" stroke-width="4" stroke-miterlimit="10"/>
<path d="M10.4039 127.147C10.4283 126.618 10.5857 126.103 10.8618 125.651C11.1378 125.198 11.5235 124.822 11.9833 124.558L12.6918 125.957L12.6715 124.263C13.0094 124.162 13.3618 124.12 13.7139 124.137C14.3373 124.167 14.9378 124.381 15.4394 124.752C15.941 125.123 16.3214 125.634 16.5324 126.221C16.7435 126.807 16.7757 127.443 16.6252 128.048C16.4746 128.653 16.148 129.2 15.6865 129.62C15.225 130.039 14.6494 130.313 14.0322 130.406C13.4151 130.5 12.7841 130.408 12.2189 130.144C11.6538 129.879 11.1797 129.453 10.8567 128.92C10.5337 128.387 10.3761 127.77 10.4039 127.147Z" fill="#6C63FF"/>
<path d="M16.0515 148.553C16.3661 149.178 16.8802 149.681 17.5126 149.983C18.1451 150.285 18.8601 150.368 19.545 150.219C20.2299 150.07 20.8459 149.698 21.2959 149.162C21.7459 148.625 22.0044 147.954 22.0307 147.255C22.0532 146.818 21.9833 146.381 21.8254 145.973C21.5984 145.369 21.1915 144.849 20.6595 144.483C20.1274 144.117 19.4959 143.923 18.8499 143.927C18.204 143.93 17.5747 144.132 17.0468 144.504C16.519 144.875 16.1181 145.4 15.898 146.006L17.8768 147.613L15.7017 147.108C15.7005 147.611 15.8205 148.106 16.0515 148.553Z" fill="#6C63FF"/>
<path d="M17.6151 142.413C18.4041 142.472 19.1869 142.234 19.8084 141.745C20.43 141.256 20.8451 140.551 20.9716 139.771C21.0981 138.991 20.9268 138.192 20.4916 137.532C20.0564 136.872 19.389 136.399 18.6214 136.207L18.6372 137.512L17.9197 136.095C17.0804 136.055 16.2599 136.351 15.6388 136.916C15.0176 137.481 14.6466 138.269 14.6074 139.107C14.5682 139.945 14.864 140.765 15.4298 141.385C15.9955 142.005 16.7848 142.376 17.6241 142.415L17.6151 142.413Z" fill="#6C63FF"/>
<path d="M9.9278 137.304C10.3426 137.324 10.7572 137.262 11.148 137.121C11.5387 136.981 11.8979 136.765 12.2051 136.486C12.5122 136.206 12.7613 135.87 12.9381 135.494C13.1149 135.119 13.216 134.713 13.2356 134.299C13.2551 133.884 13.1928 133.47 13.0521 133.08C12.9114 132.69 12.6952 132.331 12.4157 132.024C12.1362 131.718 11.7989 131.469 11.4231 131.292C11.0474 131.116 10.6405 131.015 10.2256 130.995C9.63343 130.966 9.04504 131.105 8.52888 131.396L9.08845 132.929L7.93547 131.824C7.31881 132.388 6.95124 133.174 6.91336 134.008C6.89807 134.299 6.92543 134.592 6.99458 134.875C7.15207 135.544 7.52374 136.143 8.05314 136.581C8.58254 137.02 9.24075 137.273 9.9278 137.304Z" fill="#6C63FF"/>
<path opacity="0.1" d="M10.8303 127.99C11.5614 128.071 12.2721 128.298 13.0054 128.343C13.7387 128.388 14.5442 128.213 15.009 127.645C15.2595 127.336 15.3836 126.949 15.5934 126.615C15.7944 126.304 16.0686 126.046 16.3921 125.865C16.5832 126.264 16.6882 126.698 16.7003 127.14C16.7123 127.582 16.6312 128.022 16.4622 128.43C16.2932 128.839 16.0401 129.207 15.7193 129.512C15.3984 129.817 15.017 130.051 14.5998 130.199C14.1826 130.347 13.739 130.405 13.2976 130.371C12.8562 130.337 12.4269 130.21 12.0376 130C11.6484 129.789 11.3078 129.499 11.038 129.148C10.7682 128.798 10.5752 128.395 10.4716 127.965C10.5911 127.969 10.7107 127.978 10.8303 127.99Z" fill="black"/>
<path opacity="0.1" d="M9.92779 137.305C10.4739 137.332 11.0179 137.218 11.5065 136.973C11.9951 136.727 12.4116 136.36 12.7152 135.905C13.0188 135.451 13.1991 134.926 13.2385 134.381C13.2779 133.837 13.175 133.291 12.94 132.798C12.6886 132.968 12.4725 133.184 12.3037 133.436C12.0781 133.776 11.9404 134.168 11.6764 134.481C11.1823 135.06 10.3407 135.25 9.5758 135.214C8.81091 135.177 8.07309 134.963 7.31948 134.894C7.21344 134.894 7.10739 134.876 7.00134 134.873C7.15808 135.541 7.52856 136.14 8.05664 136.579C8.58473 137.017 9.24162 137.272 9.92779 137.305Z" fill="black"/>
<path opacity="0.1" d="M17.6151 142.413C18.1563 142.44 18.6956 142.329 19.1811 142.088C19.6666 141.847 20.082 141.486 20.3872 141.039C20.6925 140.592 20.8774 140.074 20.9242 139.535C20.971 138.995 20.878 138.453 20.6543 137.96C20.3912 138.131 20.1618 138.349 19.9775 138.602C19.7315 138.949 19.5781 139.348 19.3006 139.668C18.7681 140.263 17.8701 140.473 17.06 140.452C16.25 140.432 15.5212 140.243 14.7405 140.184C14.9311 140.806 15.3096 141.354 15.8242 141.753C16.3388 142.152 16.9643 142.382 17.6151 142.413Z" fill="black"/>
<path opacity="0.1" d="M16.0515 148.553C16.3661 149.178 16.8802 149.681 17.5126 149.983C18.1451 150.285 18.8601 150.368 19.545 150.219C20.2299 150.07 20.8459 149.698 21.2959 149.162C21.7459 148.625 22.0044 147.954 22.0307 147.255C22.0532 146.818 21.9833 146.381 21.8254 145.973C21.5645 146.143 21.3303 146.351 21.1304 146.59C20.8281 146.957 20.6318 147.372 20.2821 147.717C19.6345 148.352 18.5898 148.618 17.6602 148.638C17.1228 148.64 16.5856 148.612 16.0515 148.553Z" fill="black"/>
<path d="M23.9598 153.214C23.9598 153.214 21.4598 153.138 20.7085 152.602C19.9571 152.065 16.8727 151.425 16.6764 152.286C16.4801 153.147 12.9197 156.567 15.7423 156.581C18.565 156.594 22.2992 156.13 23.0505 155.679C23.8019 155.229 23.9598 153.214 23.9598 153.214Z" fill="#656380"/>
<path opacity="0.2" d="M15.6904 156.281C18.5131 156.304 22.2473 155.831 23.0009 155.38C23.5717 155.033 23.7996 153.782 23.8763 153.206H23.9598C23.9598 153.206 23.8019 155.218 23.0573 155.684C22.3127 156.151 18.5695 156.603 15.7491 156.585C14.9346 156.585 14.6525 156.29 14.6683 155.86C14.7744 156.114 15.0857 156.281 15.6904 156.281Z" fill="black"/>
<path d="M238.042 156.671C237.365 155.429 238.132 153.909 239.007 152.8C239.883 151.691 240.95 150.547 240.927 149.13C240.896 147.102 238.739 145.905 237.017 144.83C235.74 144.032 234.561 143.086 233.506 142.012C233.065 141.597 232.7 141.109 232.428 140.57C232.071 139.776 232.083 138.875 232.105 138.005C232.179 135.112 232.322 132.222 232.534 129.335" stroke="#3F3D56" stroke-width="4" stroke-miterlimit="10"/>
<path d="M229.267 129.175C229.291 128.646 229.449 128.131 229.725 127.678C230.001 127.226 230.386 126.85 230.846 126.586L231.555 127.985L231.534 126.291C231.872 126.19 232.225 126.148 232.577 126.164C233.2 126.195 233.8 126.41 234.302 126.781C234.803 127.152 235.183 127.663 235.394 128.25C235.604 128.837 235.636 129.473 235.485 130.077C235.335 130.682 235.008 131.229 234.546 131.648C234.085 132.068 233.509 132.341 232.892 132.434C232.275 132.527 231.644 132.436 231.079 132.171C230.514 131.907 230.04 131.481 229.717 130.948C229.394 130.414 229.237 129.797 229.264 129.175H229.267Z" fill="#6C63FF"/>
<path d="M234.914 150.58C235.229 151.206 235.743 151.709 236.375 152.011C237.008 152.312 237.723 152.395 238.408 152.247C239.093 152.098 239.709 151.726 240.159 151.19C240.609 150.653 240.867 149.982 240.894 149.283C240.916 148.846 240.846 148.409 240.688 148C240.461 147.397 240.054 146.877 239.522 146.511C238.99 146.145 238.359 145.951 237.713 145.954C237.067 145.958 236.437 146.159 235.91 146.531C235.382 146.903 234.981 147.428 234.761 148.034L236.74 149.641L234.565 149.136C234.563 149.639 234.683 150.134 234.914 150.58Z" fill="#6C63FF"/>
<path d="M236.478 144.44C237.267 144.5 238.05 144.262 238.671 143.773C239.293 143.283 239.708 142.579 239.834 141.799C239.961 141.019 239.79 140.22 239.354 139.56C238.919 138.9 238.252 138.427 237.484 138.235L237.5 139.54L236.783 138.122C235.943 138.083 235.123 138.379 234.502 138.944C233.88 139.509 233.509 140.297 233.47 141.135C233.431 141.973 233.727 142.792 234.293 143.413C234.858 144.033 235.648 144.403 236.487 144.443L236.478 144.44Z" fill="#6C63FF"/>
<path d="M228.791 139.332C229.628 139.372 230.448 139.077 231.068 138.514C231.688 137.95 232.059 137.163 232.098 136.327C232.138 135.49 231.843 134.672 231.278 134.052C230.714 133.433 229.926 133.063 229.088 133.023C228.496 132.994 227.908 133.133 227.392 133.424L227.951 134.957L226.798 133.853C226.182 134.417 225.814 135.202 225.776 136.036C225.761 136.328 225.788 136.62 225.857 136.903C226.015 137.572 226.387 138.171 226.916 138.609C227.445 139.048 228.104 139.302 228.791 139.332Z" fill="#6C63FF"/>
<path opacity="0.1" d="M229.693 130.018C230.424 130.099 231.135 130.326 231.868 130.371C232.602 130.416 233.407 130.241 233.872 129.673C234.122 129.364 234.246 128.977 234.456 128.643C234.657 128.332 234.931 128.074 235.255 127.893C235.446 128.292 235.551 128.726 235.563 129.168C235.575 129.61 235.494 130.05 235.325 130.458C235.156 130.867 234.903 131.236 234.582 131.54C234.261 131.845 233.88 132.079 233.463 132.227C233.045 132.375 232.602 132.433 232.16 132.399C231.719 132.365 231.29 132.238 230.9 132.028C230.511 131.817 230.171 131.527 229.901 131.176C229.631 130.826 229.438 130.423 229.334 129.993C229.454 129.997 229.574 130.006 229.693 130.018Z" fill="black"/>
<path opacity="0.1" d="M228.791 139.332C229.337 139.36 229.881 139.246 230.369 139C230.858 138.755 231.274 138.387 231.578 137.933C231.882 137.479 232.062 136.954 232.101 136.409C232.141 135.865 232.038 135.319 231.803 134.826C231.551 134.995 231.335 135.212 231.167 135.464C230.941 135.804 230.803 136.196 230.539 136.509C230.045 137.088 229.204 137.277 228.439 137.241C227.674 137.205 226.936 136.991 226.182 136.921C226.076 136.921 225.97 136.903 225.864 136.901C226.021 137.569 226.391 138.168 226.919 138.606C227.448 139.045 228.104 139.3 228.791 139.332Z" fill="black"/>
<path opacity="0.1" d="M236.478 144.44C237.019 144.468 237.558 144.356 238.044 144.116C238.529 143.875 238.945 143.514 239.25 143.067C239.555 142.62 239.74 142.102 239.787 141.562C239.834 141.023 239.741 140.481 239.517 139.988C239.254 140.159 239.025 140.377 238.84 140.63C238.594 140.977 238.441 141.376 238.163 141.696C237.631 142.291 236.733 142.5 235.923 142.48C235.113 142.46 234.384 142.271 233.603 142.212C233.794 142.834 234.172 143.382 234.687 143.781C235.202 144.18 235.827 144.41 236.478 144.44Z" fill="black"/>
<path opacity="0.1" d="M234.914 150.58C235.229 151.206 235.743 151.709 236.375 152.011C237.008 152.312 237.723 152.395 238.408 152.247C239.093 152.098 239.709 151.726 240.159 151.19C240.609 150.653 240.867 149.982 240.893 149.283C240.916 148.846 240.846 148.409 240.688 148C240.427 148.171 240.193 148.379 239.993 148.618C239.691 148.985 239.495 149.4 239.145 149.744C238.497 150.38 237.453 150.646 236.523 150.666C235.986 150.668 235.448 150.64 234.914 150.58Z" fill="black"/>
<path d="M242.823 155.242C242.823 155.242 240.323 155.166 239.571 154.629C238.82 154.093 235.736 153.453 235.539 154.314C235.343 155.175 231.783 158.595 234.605 158.609C237.428 158.622 241.162 158.158 241.913 157.707C242.665 157.257 242.823 155.242 242.823 155.242Z" fill="#656380"/>
<path opacity="0.2" d="M234.553 158.309C237.376 158.332 241.11 157.858 241.864 157.408C242.435 157.061 242.662 155.81 242.739 155.233H242.823C242.823 155.233 242.665 157.246 241.92 157.712C241.175 158.178 237.432 158.631 234.612 158.613C233.797 158.613 233.515 158.318 233.531 157.888C233.637 158.142 233.949 158.309 234.553 158.309Z" fill="black"/>
<path d="M168.224 74.6153C166.732 74.1046 165.228 73.6314 163.712 73.1958C163.961 72.1759 164.194 71.1506 164.409 70.1202C167.825 53.5567 165.591 40.2132 157.963 35.8216C150.648 31.6081 138.685 36.0019 126.6 46.4997C125.408 47.5391 124.245 48.6057 123.109 49.6992C122.347 48.9707 121.572 48.2564 120.785 47.5564C108.125 36.3286 95.4422 31.5991 87.8114 36.0042C80.5031 40.2289 78.3348 52.7726 81.4147 68.4708C81.7155 70.0255 82.0608 71.5712 82.4504 73.1079C80.6566 73.6172 78.9215 74.1602 77.2608 74.7393C62.4165 79.8969 52.9355 88.0085 52.9355 96.4107C52.9355 105.088 63.1137 113.792 78.5763 119.069C79.8308 119.494 81.0943 119.889 82.3669 120.254C81.9547 121.907 81.5877 123.573 81.2658 125.252C78.3326 140.677 80.625 152.926 87.9129 157.124C95.4422 161.463 108.078 157.002 120.379 146.263C121.352 145.414 122.326 144.512 123.312 143.571C124.543 144.756 125.805 145.906 127.101 147.023C139.018 157.263 150.792 161.4 158.071 157.189C165.591 152.843 168.035 139.684 164.862 123.677C164.622 122.454 164.341 121.207 164.021 119.934C164.91 119.673 165.779 119.402 166.629 119.121C182.703 113.803 193.163 105.205 193.163 96.4107C193.163 87.9769 183.375 79.8225 168.231 74.6153H168.224Z" fill="#53C1DE"/>
<path d="M164.738 113.443C163.971 113.698 163.186 113.941 162.383 114.18C160.423 108.112 158.05 102.185 155.282 96.4401C157.945 90.7718 160.225 84.9319 162.107 78.9596C163.54 79.3742 164.935 79.8113 166.275 80.2732C179.251 84.7324 187.166 91.3275 187.166 96.4108C187.166 101.819 178.617 108.851 164.738 113.443ZM158.98 124.84C160.384 131.917 160.582 138.316 159.657 143.316C158.822 147.811 157.143 150.808 155.068 152.009C150.648 154.562 141.198 151.243 131.006 142.485C129.838 141.48 128.662 140.409 127.48 139.274C131.729 134.576 135.655 129.597 139.233 124.371C145.623 123.83 151.968 122.852 158.224 121.442C158.51 122.595 158.764 123.722 158.985 124.822L158.98 124.84ZM100.74 151.572C96.4215 153.095 92.9828 153.138 90.9048 151.941C86.4824 149.393 84.6435 139.549 87.1525 126.367C87.4534 124.81 87.7941 123.26 88.1746 121.719C94.4045 123.055 100.718 123.968 107.071 124.452C110.753 129.66 114.775 134.62 119.109 139.301C118.238 140.144 117.347 140.963 116.437 141.759C110.997 146.509 105.544 149.871 100.74 151.572ZM80.5144 113.409C73.6755 111.075 68.0302 108.042 64.1584 104.734C60.6814 101.76 58.926 98.806 58.926 96.4108C58.926 91.3118 66.5388 84.8067 79.2328 80.3882C80.8273 79.8339 82.4361 79.3284 84.0591 78.8717C85.9446 84.9101 88.2277 90.8174 90.8935 96.555C88.1945 102.375 85.8836 108.366 83.9756 114.491C82.8114 114.159 81.6576 113.798 80.5144 113.409ZM87.2947 67.3217C84.6593 53.8723 86.4079 43.726 90.8123 41.1844C95.5032 38.4805 105.875 42.338 116.81 52.0336C117.509 52.6533 118.211 53.3022 118.912 53.9714C114.609 58.6235 110.62 63.5553 106.97 68.7345C100.676 69.2981 94.426 70.2683 88.2581 71.6389C87.8986 70.2089 87.5775 68.7706 87.2947 67.324V67.3217ZM147.789 82.2358C146.418 79.8714 144.998 77.5371 143.527 75.2328C148.001 75.7983 152.286 76.5464 156.311 77.4657C155.019 81.5576 153.521 85.5817 151.823 89.5227C150.528 87.0667 149.183 84.6377 147.789 82.2358ZM123.114 58.2458C126.03 61.4205 128.784 64.74 131.365 68.1915C125.843 67.9316 120.319 67.9316 114.792 68.1915C117.516 64.6043 120.307 61.2696 123.114 58.248V58.2458ZM98.2942 82.2764C96.9179 84.6603 95.5979 87.0742 94.3344 89.5182C92.5902 85.3881 91.0988 81.3255 89.8804 77.4026C93.8809 76.5014 98.1476 75.7781 102.592 75.2215C101.1 77.5408 99.6661 79.8924 98.2897 82.2764H98.2942ZM102.719 118.024C98.3803 117.553 94.0688 116.861 89.8014 115.948C91.0402 111.958 92.5654 107.808 94.3479 103.587C95.616 106.034 96.9404 108.45 98.3213 110.834C99.7262 113.266 101.191 115.662 102.714 118.024H102.719ZM123.283 134.997C120.44 131.946 117.608 128.567 114.847 124.914C117.532 125.021 120.266 125.074 123.051 125.074C125.909 125.074 128.73 125.011 131.514 124.885C128.944 128.394 126.195 131.769 123.278 134.997H123.283ZM151.868 103.373C153.654 107.394 155.23 111.505 156.588 115.689C152.268 116.66 147.9 117.404 143.502 117.918C144.983 115.57 146.418 113.194 147.807 110.791C149.218 108.348 150.572 105.876 151.868 103.373ZM142.617 107.803C140.493 111.486 138.251 115.099 135.891 118.641C131.731 118.939 127.432 119.092 123.051 119.092C118.669 119.092 114.443 118.957 110.354 118.691C107.934 115.161 105.648 111.543 103.497 107.837C101.346 104.131 99.3524 100.37 97.5158 96.5528C99.3615 92.7178 101.349 88.9549 103.479 85.2641C105.606 81.5749 107.872 77.9697 110.278 74.4487C114.449 74.1332 118.723 73.9687 123.046 73.9687C127.369 73.9687 131.67 74.1355 135.837 74.4509C138.215 77.9614 140.472 81.5523 142.606 85.2236C144.741 88.8948 146.755 92.6404 148.651 96.4604C146.778 100.309 144.769 104.087 142.624 107.794L142.617 107.803ZM154.975 41.0041C159.671 43.708 161.496 54.6136 158.547 68.9148C158.353 69.8446 158.142 70.7722 157.915 71.6975C151.738 70.2991 145.475 69.3108 139.167 68.739C135.553 63.5552 131.593 58.62 127.315 53.9669C128.368 52.9545 129.443 51.9698 130.539 51.0129C140.891 42.0158 150.566 38.4647 154.975 41.0041Z" fill="white"/>
<path d="M123.046 83.9055C125.523 83.9055 127.944 84.6389 130.003 86.0131C132.063 87.3872 133.668 89.3402 134.615 91.6253C135.563 93.9104 135.811 96.4248 135.328 98.8506C134.845 101.276 133.652 103.505 131.901 105.254C130.15 107.002 127.918 108.193 125.489 108.676C123.06 109.159 120.542 108.911 118.254 107.964C115.966 107.018 114.01 105.415 112.634 103.359C111.258 101.302 110.523 98.8842 110.523 96.4109C110.523 94.7686 110.847 93.1423 111.476 91.625C112.105 90.1076 113.028 88.7289 114.191 87.5676C115.353 86.4063 116.734 85.4852 118.253 84.8568C119.773 84.2285 121.401 83.9052 123.046 83.9055Z" fill="#53C1DE"/>
<path d="M126.187 4.59659C126.187 5.33636 125.967 6.05952 125.556 6.67462C125.144 7.28971 124.559 7.76912 123.875 8.05222C123.19 8.33532 122.437 8.40939 121.711 8.26507C120.984 8.12075 120.317 7.76451 119.793 7.24142C119.269 6.71832 118.912 6.05185 118.768 5.3263C118.623 4.60074 118.697 3.84868 118.981 3.16522C119.264 2.48176 119.745 1.8976 120.36 1.48661C120.976 1.07561 121.701 0.856245 122.441 0.856245C122.934 0.853857 123.422 0.948975 123.878 1.1361C124.333 1.32322 124.747 1.59864 125.095 1.94644C125.443 2.29424 125.719 2.70753 125.907 3.1624C126.094 3.61728 126.189 4.10473 126.187 4.59659Z" fill="#3F3D56"/>
<path d="M119.449 5.54073C119.153 5.00495 118.992 4.40463 118.981 3.79238C118.971 3.18013 119.11 2.57461 119.389 2.02888C119.667 1.48316 120.075 1.01387 120.577 0.662126C121.078 0.310385 121.659 0.086926 122.268 0.0113249C121.752 -0.00672151 121.237 0.0819732 120.757 0.27184C120.277 0.461706 119.842 0.748643 119.478 1.11463C119.114 1.48062 118.83 1.91775 118.644 2.39858C118.457 2.87941 118.372 3.39355 118.394 3.90871C118.416 4.42387 118.545 4.92893 118.772 5.39216C118.998 5.85539 119.319 6.2668 119.712 6.60054C120.106 6.93429 120.564 7.18316 121.059 7.33153C121.553 7.4799 122.073 7.52457 122.586 7.46272C121.942 7.43896 121.314 7.24957 120.765 6.91286C120.216 6.57616 119.762 6.10354 119.449 5.54073Z" fill="#3F3D56"/>
<path d="M127.793 9.80591H117.759V25.4365H127.793V9.80591Z" fill="#3F3D56"/>
<path opacity="0.1" d="M127.793 9.80591H117.759V25.4365H127.793V9.80591Z" fill="black"/>
<path d="M101.909 66.5151C101.909 66.5151 100.837 69.4556 98.2987 69.8567C95.7604 70.2577 94.2847 70.9247 94.2847 70.9247L100.305 74.798L103.515 74.3969C103.515 74.3969 103.917 70.2555 105.255 69.3204C106.593 68.3853 101.909 66.5151 101.909 66.5151Z" fill="#A0616A"/>
<path d="M145.384 66.5151C145.384 66.5151 146.455 69.4556 148.994 69.8567C151.532 70.2577 153.008 70.9247 153.008 70.9247L146.988 74.798L143.777 74.3969C143.777 74.3969 143.375 70.2555 142.037 69.3204C140.699 68.3853 145.384 66.5151 145.384 66.5151Z" fill="#A0616A"/>
<path d="M116.088 40.5986C116.088 40.5986 114.483 41.4008 113.949 43.0051C113.949 43.0051 111.015 43.9402 109.4 46.4773C109.4 46.4773 107.392 48.6156 107.125 49.6836C106.859 50.7516 103.791 57.1643 103.791 57.1643C103.791 57.1643 100.713 67.1844 99.1088 68.2524C99.1088 68.2524 104.192 67.1844 105.129 72.2609C105.129 72.2609 106.331 72.2609 107.669 67.5854C109.007 62.91 112.218 57.1643 112.218 57.1643C112.218 57.1643 113.287 53.1581 114.224 52.4889C115.16 51.8197 116.631 48.7485 117.969 49.5597C119.307 50.3708 128.136 49.4245 128.136 49.4245C128.136 49.4245 133.348 51.8219 133.479 53.424C133.61 55.026 134.549 55.1612 134.682 56.4974C134.815 57.8335 139.765 68.3853 139.765 68.3853C139.765 68.3853 140.702 71.3145 140.97 71.9905C140.97 71.9905 143.903 64.9109 147.793 68.9194C147.793 68.9194 147.658 66.247 146.455 64.6382C145.253 63.0294 140.034 50.479 140.034 50.479C140.034 50.479 139.499 48.6088 138.964 48.0748C138.43 47.5408 134.28 43.2642 132.809 43.2642C132.809 43.2642 132.008 41.2611 131.072 40.9929L116.088 40.5986Z" fill="#3F3D56"/>
<path d="M104.048 73.4617C103.003 73.8806 101.867 74.0221 100.752 73.8725C99.6356 73.7228 98.5776 73.2871 97.6805 72.6077C96.8088 71.9392 95.8539 71.3863 94.8398 70.9629C93.4206 70.3906 91.7238 69.967 91.2071 70.9246C90.2708 72.6618 102.577 76.9361 102.577 76.9361C102.577 76.9361 104.183 76.0011 104.048 73.4617Z" fill="#3F3D56"/>
<path d="M143.245 73.4617C144.289 73.8806 145.425 74.0221 146.541 73.8725C147.657 73.7228 148.715 73.2871 149.612 72.6077C150.484 71.9392 151.439 71.3863 152.453 70.9629C153.872 70.3906 155.569 69.967 156.085 70.9246C157.022 72.6618 144.716 76.9361 144.716 76.9361C144.716 76.9361 143.109 76.0011 143.245 73.4617Z" fill="#3F3D56"/>
<path d="M120.46 18.6275C120.411 19.0917 120.257 19.5942 119.86 19.8398C119.535 20.0426 119.125 20.0268 118.75 20.1034C118.357 20.2017 117.992 20.391 117.686 20.656C117.379 20.921 117.139 21.2542 116.986 21.6288C116.685 22.3848 116.626 23.2151 116.816 24.006C116.905 24.3933 117.019 24.7742 117.159 25.1461C117.552 26.2547 118.026 27.3543 118.759 28.2758C119.385 29.0085 120.088 29.671 120.857 30.2519C121.333 30.6395 121.825 31.0338 122.412 31.2163C122.81 31.3211 123.219 31.3756 123.63 31.3785C124.138 31.401 124.68 31.4168 125.12 31.1645C125.796 30.7747 125.997 29.9139 126.365 29.2222C126.676 28.6363 127.141 28.1384 127.432 27.5413C127.639 27.0707 127.791 26.5777 127.884 26.0722L128.509 23.3007C128.734 22.2935 128.942 21.1579 128.375 20.2949C128.334 20.2247 128.277 20.1652 128.208 20.1214C128.1 20.0785 127.981 20.0668 127.866 20.0876C127.146 20.1343 126.429 19.9707 125.801 19.6167C125.703 19.5659 125.615 19.4971 125.542 19.4139C125.451 19.2696 125.397 19.1058 125.384 18.9362C125.323 18.5929 125.226 18.2568 125.095 17.9335C125.058 17.817 124.99 17.7127 124.898 17.6316C124.802 17.5715 124.693 17.5352 124.58 17.5257C123.614 17.3692 122.64 17.2676 121.663 17.2215C121.343 17.2058 120.86 17.0773 120.639 17.3612C120.417 17.6451 120.487 18.2896 120.46 18.6275Z" fill="#A0616A"/>
<path opacity="0.1" d="M120.46 18.6275C120.411 19.0917 120.257 19.5942 119.86 19.8398C119.535 20.0426 119.125 20.0268 118.75 20.1034C118.357 20.2017 117.992 20.391 117.686 20.656C117.379 20.921 117.139 21.2542 116.986 21.6288C116.685 22.3848 116.626 23.2151 116.816 24.006C116.905 24.3933 117.019 24.7742 117.159 25.1461C117.552 26.2547 118.026 27.3543 118.759 28.2758C119.385 29.0085 120.088 29.671 120.857 30.2519C121.333 30.6395 121.825 31.0338 122.412 31.2163C122.81 31.3211 123.219 31.3756 123.63 31.3785C124.138 31.401 124.68 31.4168 125.12 31.1645C125.796 30.7747 125.997 29.9139 126.365 29.2222C126.676 28.6363 127.141 28.1384 127.432 27.5413C127.639 27.0707 127.791 26.5777 127.884 26.0722L128.509 23.3007C128.734 22.2935 128.942 21.1579 128.375 20.2949C128.334 20.2247 128.277 20.1652 128.208 20.1214C128.1 20.0785 127.981 20.0668 127.866 20.0876C127.146 20.1343 126.429 19.9707 125.801 19.6167C125.703 19.5659 125.615 19.4971 125.542 19.4139C125.451 19.2696 125.397 19.1058 125.384 18.9362C125.323 18.5929 125.226 18.2568 125.095 17.9335C125.058 17.817 124.99 17.7127 124.898 17.6316C124.802 17.5715 124.693 17.5352 124.58 17.5257C123.614 17.3692 122.64 17.2676 121.663 17.2215C121.343 17.2058 120.86 17.0773 120.639 17.3612C120.417 17.6451 120.487 18.2896 120.46 18.6275Z" fill="black"/>
<path d="M118.648 20.2205C118.126 20.0647 117.585 19.9798 117.04 19.9681C115.749 19.9366 114.368 20.3805 113.624 21.4327C113.116 22.1923 112.931 23.1214 113.107 24.0172C113.287 24.9046 113.691 25.7314 114.28 26.4191C114.621 26.7806 114.923 27.1762 115.183 27.5998C115.539 28.2758 115.551 29.0847 115.648 29.853C115.873 31.6826 116.654 33.4018 116.963 35.2202C117.272 37.0385 117.006 39.1453 115.569 40.3012C115.327 40.495 115.034 40.7 115.014 41.0087C114.982 41.5022 115.625 41.7117 116.119 41.759C117.597 41.8987 119.113 42.0362 120.548 41.6554C121.142 41.4976 121.715 41.252 122.319 41.1394C123.854 40.8532 125.397 41.4413 126.934 41.723C128.046 41.9063 129.171 41.9975 130.298 41.9956C130.56 42.019 130.824 41.9844 131.072 41.8942C131.194 41.8462 131.298 41.7605 131.369 41.6495C131.44 41.5386 131.473 41.408 131.464 41.2768C131.414 41.107 131.323 40.9522 131.198 40.8262C130.422 39.8686 130.185 38.5955 129.973 37.381L129.262 33.3004C128.881 31.1193 128.527 28.7489 129.56 26.7909C130.302 25.3826 131.672 24.3912 132.455 23.0055C132.728 22.5866 132.851 22.088 132.805 21.5905C132.687 20.8942 132.058 20.3962 131.412 20.1056C130.171 19.5494 128.761 19.4976 127.482 19.9614C127.505 20.937 127.256 21.9239 127.096 22.8906L126.823 24.4678C126.684 25.3973 126.48 26.3159 126.212 27.2167C126.114 27.5771 125.948 27.9153 125.722 28.2127C125.481 28.4802 125.187 28.6943 124.858 28.8413C124.146 29.1891 123.363 29.3679 122.57 29.3641C122.227 29.3693 121.885 29.3168 121.559 29.2086C121.034 28.9788 120.561 28.6463 120.167 28.2307C120.029 28.1128 119.905 27.979 119.799 27.8319C119.687 27.6446 119.602 27.4419 119.549 27.2303C119.366 26.6791 119.222 26.116 119.118 25.5449C119.05 25.1077 119.028 24.6638 118.996 24.2222C118.908 22.9176 118.908 21.4755 118.648 20.2205Z" fill="#6C63FF"/>
<path d="M117.292 46.0762C117.292 46.0762 116.758 53.158 120.102 54.359C123.445 55.56 120.503 48.4804 120.503 48.4804L119.431 46.3443L117.292 46.0762Z" fill="#A0616A"/>
<path d="M128.662 46.0762C128.662 46.0762 129.197 53.158 125.853 54.359C122.509 55.56 125.451 48.4804 125.451 48.4804L126.523 46.3443L128.662 46.0762Z" fill="#A0616A"/>
<path opacity="0.1" d="M114.348 22.4398L113.278 24.177C113.278 24.177 114.215 30.1886 114.348 31.2566C114.463 32.0273 114.643 32.787 114.885 33.5279C114.885 33.5279 115.018 36.7342 115.018 37.9374C115.018 39.1406 115.695 41.1438 115.695 41.1438C115.789 42.2794 116.017 43.4001 116.372 44.483C116.907 45.9521 117.441 47.6894 117.441 47.6894C117.441 47.6894 118.118 45.8192 120.785 48.6244C121.084 48.3218 121.251 47.9138 121.251 47.4888C121.251 47.0638 121.084 46.6559 120.785 46.3532C120.785 46.3532 119.984 42.7481 119.984 40.8756C119.984 39.0032 118.511 30.0602 118.511 30.0602C118.511 30.0602 117.554 19.8936 114.348 22.4398Z" fill="black"/>
<path d="M114.082 22.2979L113.012 24.0351C113.012 24.0351 113.949 30.0467 114.082 31.1147C114.197 31.8855 114.378 32.6453 114.621 33.386C114.621 33.386 114.754 36.5923 114.754 37.7933C114.754 38.9942 115.431 40.9996 115.431 40.9996C115.525 42.1353 115.752 43.2561 116.108 44.3389C116.643 45.8102 117.18 47.5452 117.18 47.5452C117.18 47.5452 117.856 45.675 120.523 48.4803C120.822 48.1777 120.989 47.7702 120.989 47.3458C120.989 46.9213 120.822 46.5139 120.523 46.2113C120.523 46.2113 119.72 42.6061 119.72 40.7337C119.72 38.8613 118.249 29.9183 118.249 29.9183C118.249 29.9183 117.292 19.7585 114.082 22.2979Z" fill="#6C63FF"/>
<path opacity="0.1" d="M131.74 21.3628L132.417 22.1581C132.417 22.1581 133.204 26.7051 131.464 32.4509L130.93 37.6603C130.93 37.6603 129.993 42.0698 129.86 43.1379C129.727 44.2059 129.727 44.3388 129.458 44.7399C129.377 44.8337 129.332 44.9537 129.332 45.0779C129.332 45.2021 129.377 45.3221 129.458 45.4159L128.655 48.3451C128.655 48.3451 127.453 46.876 125.045 48.7461C125.045 48.7461 124.368 47.6781 124.91 46.743C125.451 45.8079 125.444 45.4069 125.311 45.1387C125.178 44.8706 125.846 43.5367 125.846 43.2686C125.846 43.0004 126.789 36.8604 126.789 36.8604C126.789 36.8604 127.191 30.8488 127.593 28.8457C127.838 27.6132 127.834 24.8665 127.791 22.9333C127.748 20.9189 130.19 19.8283 131.627 21.2433C131.661 21.2794 131.701 21.3132 131.74 21.3628Z" fill="black"/>
<path d="M132.141 21.0879L132.818 21.8833C132.818 21.8833 133.606 26.4325 131.866 32.176L131.331 37.3854C131.331 37.3854 130.395 41.795 130.262 42.863C130.129 43.9311 130.126 44.0662 129.86 44.4673C129.778 44.5609 129.733 44.681 129.733 44.8053C129.733 44.9296 129.778 45.0497 129.86 45.1433L129.061 48.0815C129.061 48.0815 127.859 46.6101 125.451 48.4803C125.451 48.4803 124.774 47.4123 125.318 46.4772C125.862 45.5421 125.853 45.141 125.72 44.8752C125.587 44.6093 126.255 43.2709 126.255 43.005C126.255 42.7391 127.191 36.5923 127.191 36.5923C127.191 36.5923 127.593 30.5807 127.994 28.5754C128.396 26.57 128.127 20.5607 128.127 20.5607C128.127 20.5607 130.269 19.0916 132.141 21.0879Z" fill="#6C63FF"/>
<path d="M123.177 19.2269C126.133 19.2269 128.529 16.834 128.529 13.8822C128.529 10.9305 126.133 8.5376 123.177 8.5376C120.221 8.5376 117.825 10.9305 117.825 13.8822C117.825 16.834 120.221 19.2269 123.177 19.2269Z" fill="#A0616A"/>
<path opacity="0.1" d="M125.968 5.85854C125.711 6.57569 125.24 7.19729 124.62 7.6402C123.999 8.08311 123.258 8.32621 122.495 8.33699C121.732 8.34777 120.984 8.12571 120.351 7.70052C119.718 7.27532 119.231 6.66727 118.953 5.95768C121.042 5.11723 123.177 5.8653 123.177 5.8653C124.244 5.49126 125.169 5.52506 125.968 5.85854Z" fill="black"/>
<path d="M123.177 6.13341C123.177 6.13341 112.877 2.52826 115.42 20.0268C115.42 20.0268 117.694 21.4959 119.431 20.5608C119.431 20.5608 118.229 8.40465 122.911 8.93867C127.593 9.47268 126.789 20.2949 126.789 20.2949C126.789 20.2949 129.465 21.0948 130.269 19.6189C131.072 18.1431 130 3.73824 123.177 6.13341Z" fill="#3F3D56"/>
<path opacity="0.1" d="M122.911 8.13635C119.698 7.77133 119.255 13.3796 119.301 16.9352C119.339 13.3999 119.935 8.59826 122.911 8.9385C126.252 9.31929 126.801 14.9456 126.839 18.1316C126.877 15.207 126.557 8.5532 122.911 8.13635Z" fill="black"/>
<path opacity="0.1" d="M115.42 19.2245C115.187 17.6928 115.053 16.1476 115.02 14.5986C115.009 16.4157 115.143 18.2307 115.42 20.0266C115.42 20.0266 117.694 21.4957 119.431 20.5607C119.431 20.5607 119.404 20.2722 119.373 19.7878C117.642 20.6598 115.42 19.2245 115.42 19.2245Z" fill="black"/>
<path opacity="0.1" d="M130.268 18.8347C129.519 20.2047 127.148 19.6031 126.828 19.5107C126.812 20.0064 126.789 20.3038 126.789 20.3038C126.789 20.3038 129.465 21.1037 130.268 19.6279C130.433 19.3259 130.519 18.472 130.494 17.3296C130.472 18.0619 130.393 18.6094 130.268 18.8347Z" fill="black"/>
<path d="M186.537 151.633C187.606 149.654 186.392 147.23 184.998 145.466C183.603 143.701 181.9 141.86 181.936 139.607C181.988 136.374 185.422 134.468 188.168 132.753C190.203 131.482 192.081 129.974 193.761 128.262C194.438 127.575 195.086 126.84 195.481 125.962C196.049 124.7 196.033 123.258 195.997 121.879C195.878 117.266 195.653 112.659 195.32 108.058" stroke="#3F3D56" stroke-width="4" stroke-miterlimit="10"/>
<path d="M200.528 107.814C200.489 106.97 200.238 106.15 199.798 105.428C199.358 104.707 198.743 104.108 198.01 103.686L196.882 105.917L196.916 103.213C195.889 102.91 194.793 102.94 193.785 103.3C192.778 103.66 191.91 104.33 191.309 105.214C190.707 106.098 190.403 107.15 190.439 108.218C190.476 109.286 190.851 110.315 191.512 111.156C192.172 111.997 193.083 112.607 194.113 112.897C195.143 113.188 196.238 113.144 197.242 112.772C198.245 112.399 199.104 111.718 199.694 110.827C200.284 109.935 200.576 108.88 200.526 107.812L200.528 107.814Z" fill="#6C63FF"/>
<path d="M191.53 141.926C191 142.954 190.133 143.769 189.074 144.234C188.014 144.699 186.826 144.787 185.71 144.481C184.593 144.176 183.616 143.496 182.942 142.556C182.268 141.617 181.938 140.474 182.007 139.32C182.076 138.166 182.541 137.071 183.323 136.219C184.105 135.367 185.156 134.809 186.301 134.639C187.446 134.469 188.615 134.697 189.611 135.285C190.608 135.874 191.371 136.786 191.773 137.87L188.615 140.432L192.083 139.628C192.084 140.427 191.895 141.215 191.53 141.926Z" fill="#6C63FF"/>
<path d="M189.037 132.14C187.802 132.192 186.591 131.79 185.633 131.011C184.675 130.231 184.037 129.127 183.84 127.909C183.643 126.69 183.9 125.442 184.563 124.4C185.226 123.359 186.249 122.596 187.437 122.258L187.41 124.335L188.551 122.082H188.565C189.23 122.046 189.895 122.142 190.523 122.364C191.151 122.586 191.728 122.93 192.222 123.376C192.716 123.822 193.117 124.361 193.401 124.962C193.685 125.564 193.848 126.215 193.879 126.879C193.91 127.544 193.809 128.208 193.582 128.833C193.355 129.458 193.007 130.032 192.557 130.522C192.107 131.012 191.564 131.408 190.96 131.688C190.355 131.968 189.702 132.125 189.037 132.151V132.14Z" fill="#6C63FF"/>
<path d="M201.288 123.999C200.508 124.036 199.729 123.891 199.014 123.576C198.299 123.261 197.668 122.784 197.168 122.184C196.669 121.583 196.317 120.875 196.138 120.115C195.96 119.356 195.96 118.565 196.14 117.805C196.32 117.046 196.674 116.338 197.174 115.739C197.674 115.139 198.306 114.664 199.022 114.35C199.737 114.036 200.516 113.892 201.297 113.93C202.077 113.967 202.838 114.186 203.52 114.567L202.617 117.007L204.452 115.25C205.186 115.923 205.705 116.798 205.942 117.764C206.179 118.731 206.125 119.746 205.785 120.681C205.446 121.617 204.836 122.432 204.034 123.022C203.232 123.612 202.273 123.952 201.277 123.999H201.288Z" fill="#6C63FF"/>
<path opacity="0.1" d="M199.851 109.157C198.685 109.286 197.552 109.648 196.383 109.72C195.214 109.793 193.931 109.513 193.193 108.594C192.793 108.105 192.595 107.487 192.259 106.953C191.939 106.458 191.503 106.048 190.988 105.759C190.663 106.398 190.478 107.099 190.445 107.815C190.412 108.531 190.533 109.246 190.799 109.912C191.065 110.578 191.47 111.18 191.988 111.677C192.505 112.174 193.122 112.555 193.799 112.795C194.475 113.034 195.195 113.127 195.911 113.067C196.626 113.007 197.32 112.795 197.947 112.446C198.574 112.096 199.119 111.618 199.546 111.041C199.972 110.465 200.271 109.804 200.422 109.103C200.23 109.123 200.041 109.137 199.851 109.157Z" fill="black"/>
<path opacity="0.1" d="M201.288 123.999C200.418 124.039 199.553 123.854 198.776 123.461C197.999 123.068 197.337 122.482 196.854 121.759C196.371 121.035 196.083 120.199 196.019 119.332C195.955 118.465 196.116 117.596 196.487 116.809C196.889 117.078 197.234 117.423 197.502 117.825C197.861 118.366 198.08 118.992 198.502 119.49C199.287 120.412 200.632 120.714 201.85 120.66C203.069 120.606 204.242 120.259 205.46 120.146C205.629 120.133 205.799 120.121 205.97 120.117C205.719 121.184 205.126 122.141 204.281 122.842C203.436 123.542 202.385 123.949 201.288 123.999Z" fill="black"/>
<path opacity="0.1" d="M189.037 132.14C188.175 132.18 187.318 132 186.547 131.615C185.775 131.231 185.115 130.655 184.63 129.944C184.144 129.232 183.849 128.408 183.773 127.551C183.697 126.693 183.842 125.83 184.194 125.045C184.611 125.318 184.973 125.665 185.262 126.07C185.654 126.622 185.898 127.257 186.358 127.769C187.209 128.715 188.639 129.049 189.93 129.017C191.18 128.99 192.383 128.684 193.626 128.589C193.32 129.581 192.715 130.454 191.894 131.09C191.073 131.725 190.075 132.092 189.037 132.14Z" fill="black"/>
<path opacity="0.1" d="M191.53 141.926C190.945 143.084 189.935 143.972 188.711 144.406C187.487 144.84 186.143 144.786 184.957 144.255C183.772 143.724 182.838 142.758 182.348 141.556C181.858 140.355 181.851 139.011 182.329 137.805C182.745 138.077 183.118 138.41 183.436 138.792C183.917 139.375 184.233 140.038 184.79 140.581C185.821 141.592 187.486 142.009 188.969 142.048C189.824 142.057 190.679 142.016 191.53 141.926Z" fill="black"/>
<path d="M178.926 149.355C178.926 149.355 182.908 149.233 184.116 148.379C185.323 147.525 190.244 146.507 190.542 147.874C190.839 149.242 196.528 154.684 192.031 154.72C187.534 154.756 181.582 154.021 180.384 153.291C179.185 152.561 178.926 149.355 178.926 149.355Z" fill="#656380"/>
<path opacity="0.2" d="M192.103 154.253C187.606 154.289 181.654 153.552 180.456 152.825C179.553 152.268 179.181 150.278 179.059 149.359H178.926C178.926 149.359 179.179 152.568 180.377 153.296C181.575 154.023 187.527 154.76 192.024 154.724C193.321 154.724 193.77 154.253 193.745 153.57C193.565 153.978 193.071 154.235 192.103 154.253Z" fill="black"/>
<path d="M72.879 9.65739L68.7613 12.2644L71.2613 7.72412C70.5558 7.16082 69.6825 6.84844 68.7793 6.83636H68.7116C68.426 6.84035 68.1406 6.81924 67.8587 6.77327L66.4621 7.65653L67.06 6.57048C66.0717 6.22559 65.2174 5.57827 64.6187 4.72058L62.1209 6.29784L63.7003 3.43174C62.2383 1.68099 60.2707 0.606201 58.1024 0.606201C55.5054 0.606201 53.1927 2.14966 51.699 4.55384C51.2572 5.27269 50.6331 5.86218 49.8897 6.26262C49.1464 6.66305 48.3103 6.8602 47.4661 6.8341H47.3262C44.4585 6.8341 42.1367 10.081 42.1367 14.0872C42.1367 18.0934 44.4607 21.3381 47.3262 21.3381C47.9556 21.3363 48.5751 21.1816 49.1313 20.8874C51.0018 19.9163 53.4567 19.8983 55.4151 20.7658C56.2548 21.1429 57.1647 21.3389 58.0854 21.3408C59.0061 21.3427 59.9169 21.1506 60.7581 20.777C62.7031 19.9276 65.1286 19.9456 66.9878 20.8987C67.5394 21.1901 68.1531 21.3447 68.7771 21.3493C71.6448 21.3493 73.9666 18.1025 73.9666 14.0985C73.9838 12.5503 73.6097 11.0229 72.879 9.65739Z" fill="#F2F2F2"/>
<path opacity="0.03" d="M65.1151 20.2677C63.6169 19.9832 62.0678 20.1511 60.6656 20.7499C59.8247 21.1232 58.9143 21.3151 57.994 21.3132C57.0738 21.3112 56.1643 21.1155 55.3249 20.7386C53.3642 19.8712 50.9093 19.8892 49.0388 20.8603C48.4826 21.1545 47.8631 21.3091 47.2337 21.311C44.6863 21.311 42.5677 18.7468 42.1254 15.367C42.6343 14.9968 43.0665 14.5315 43.398 13.997C44.9007 11.5951 47.2044 10.0471 49.8014 10.0471C52.3984 10.0471 54.6841 11.5726 56.1778 13.9497C56.6235 14.6679 57.2473 15.2591 57.9889 15.6661C58.7304 16.073 59.5645 16.282 60.4106 16.2728H60.4693C62.5 16.275 64.2599 17.8996 65.1151 20.2677Z" fill="black"/>
<path d="M180.521 14.966L178.475 16.2661L179.722 14.0129C179.37 13.7284 178.932 13.5697 178.479 13.5623H178.448C178.305 13.5643 178.162 13.5537 178.021 13.5307L177.324 13.9814L177.617 13.4271C177.124 13.2555 176.698 12.933 176.399 12.5055L175.153 13.2941L175.941 11.8656C175.609 11.4385 175.187 11.0904 174.704 10.8465C174.222 10.6025 173.691 10.4688 173.15 10.4551C171.852 10.4551 170.699 11.2257 169.955 12.4244C169.734 12.7814 169.422 13.0737 169.051 13.2715C168.68 13.4694 168.263 13.5658 167.843 13.551H167.773C166.343 13.551 165.183 15.1711 165.183 17.1562C165.183 19.1412 166.343 20.7726 167.773 20.7726C168.088 20.7715 168.397 20.6942 168.676 20.5473C169.162 20.311 169.695 20.1833 170.236 20.1728C170.777 20.1623 171.314 20.2693 171.81 20.4864C172.229 20.6728 172.683 20.7692 173.142 20.7692C173.601 20.7692 174.055 20.6728 174.474 20.4864C174.966 20.2736 175.498 20.1689 176.034 20.1794C176.57 20.1899 177.098 20.3154 177.581 20.5473C177.859 20.6942 178.169 20.7716 178.484 20.7726C179.914 20.7726 181.074 19.1548 181.074 17.1562C181.076 16.3914 180.886 15.6384 180.521 14.966Z" fill="#F2F2F2"/>
<path opacity="0.03" d="M176.652 20.2587C175.905 20.1178 175.133 20.2017 174.434 20.4998C174.014 20.6862 173.56 20.7826 173.101 20.7826C172.642 20.7826 172.188 20.6862 171.769 20.4998C171.273 20.2826 170.736 20.1756 170.194 20.1861C169.653 20.1966 169.12 20.3244 168.633 20.5606C168.355 20.7081 168.045 20.7855 167.73 20.7859C166.458 20.7859 165.402 19.5084 165.181 17.823C165.434 17.6399 165.649 17.4105 165.817 17.147C166.561 15.9483 167.717 15.1799 169.012 15.1799C170.307 15.1799 171.446 15.9393 172.191 17.1245C172.413 17.483 172.724 17.778 173.094 17.981C173.464 18.1839 173.881 18.2878 174.303 18.2826H174.337C175.35 18.2668 176.218 19.078 176.652 20.2587Z" fill="black"/>
<path d="M46.1056 48.6379L49.4134 50.7289L47.4097 47.09C47.9779 46.6383 48.6805 46.3886 49.4066 46.3802H49.4585C49.6851 46.3836 49.9116 46.367 50.1354 46.3306L51.2523 47.0381L50.7671 46.1684C51.5584 45.8905 52.2425 45.372 52.7234 44.6858L54.7247 45.9521L53.4747 43.6561C54.6458 42.2545 56.2229 41.4028 57.958 41.4028C60.0406 41.4028 61.8931 42.6376 63.0912 44.5573C63.4442 45.1326 63.9431 45.6045 64.5374 45.9254C65.1317 46.2463 65.8003 46.4047 66.4756 46.3847H66.5884C68.8854 46.3847 70.7468 48.9849 70.7468 52.1935C70.7468 55.4021 68.8854 58.0046 66.5884 58.0046C66.0826 58.0026 65.5847 57.8781 65.1376 57.6418C64.3557 57.2624 63.5006 57.0572 62.6314 57.0405C61.7622 57.0238 60.8998 57.1959 60.1038 57.5449C59.4294 57.8459 58.699 58.0015 57.9603 58.0015C57.2216 58.0015 56.4912 57.8459 55.8168 57.5449C55.0265 57.203 54.1718 57.0348 53.3108 57.0515C52.4497 57.0682 51.6022 57.2695 50.8258 57.6418C50.3832 57.8718 49.892 57.9931 49.3931 57.9955C47.0939 57.9955 45.2324 55.3953 45.2324 52.1845C45.2216 50.9479 45.5218 49.7285 46.1056 48.6379Z" fill="#F2F2F2"/>
<path opacity="0.03" d="M52.3217 57.1394C53.5223 56.9134 54.763 57.0483 55.8867 57.5269C56.5611 57.8279 57.2915 57.9835 58.0302 57.9835C58.7689 57.9835 59.4993 57.8279 60.1737 57.5269C60.9701 57.1779 61.8329 57.0057 62.7024 57.0225C63.572 57.0392 64.4275 57.2444 65.2098 57.6238C65.6561 57.8601 66.1532 57.9846 66.6584 57.9866C68.7004 57.9866 70.3971 55.9339 70.7514 53.2255C70.3439 52.9277 69.9977 52.5544 69.7315 52.1259C68.5334 50.2017 66.6809 48.9714 64.5984 48.9714C62.5158 48.9714 60.6882 50.1927 59.4901 52.0989C59.1336 52.6732 58.6348 53.146 58.0419 53.4716C57.4491 53.7972 56.7822 53.9647 56.1056 53.9578H56.0537C54.4156 53.942 53.0077 55.2444 52.3217 57.1394Z" fill="black"/>
</g>
<defs>
<clipPath id="clip0_27:1998">
<rect width="250" height="164.751" fill="white"/>
</clipPath>
</defs>
</svg>
