<svg width="250" height="150" viewBox="0 0 250 150" fill="none" xmlns="http://www.w3.org/2000/svg">
<g clip-path="url(#clip0_27:2070)">
<path d="M14.7307 114.388C7.37236 111.711 0.984798 105.308 0.174492 97.5195C7.3179 102.154 15.8703 104.112 24.3186 103.048C27.5752 102.626 31.1534 101.817 33.9403 103.554C35.6743 104.635 36.7509 106.554 37.2447 108.537C37.7386 110.52 37.7163 112.589 37.6911 114.633L37.9202 115.088C30.2335 116.581 22.0891 117.064 14.7307 114.388Z" fill="#F0F0F0"/>
<path d="M0.334133 97.4806C4.08397 102.767 9.40409 106.737 15.5388 108.827C16.8515 109.301 18.2306 109.565 19.6254 109.609C20.9855 109.608 22.3204 109.242 23.4916 108.551C24.5966 107.928 25.6547 107.163 26.8918 106.82C27.5277 106.653 28.1915 106.623 28.8398 106.732C29.4881 106.84 30.1062 107.084 30.6536 107.448C32.041 108.319 33.0327 109.636 33.9577 110.959C34.9848 112.427 36.0283 113.968 37.6316 114.859C37.8259 114.967 37.6469 115.262 37.453 115.155C34.6636 113.604 33.6307 110.315 31.2564 108.315C30.1485 107.382 28.7528 106.777 27.2886 107.079C26.0083 107.342 24.9164 108.13 23.8031 108.771C22.6705 109.462 21.3858 109.865 20.0613 109.946C18.6688 109.973 17.2818 109.763 15.9598 109.325C12.9677 108.385 10.1419 106.982 7.58583 105.165C4.65713 103.108 2.10196 100.564 0.0308595 97.6454C-0.097253 97.4647 0.206857 97.3011 0.334133 97.4806V97.4806Z" fill="white"/>
<path d="M13.5239 108.271C13.0334 109.252 12.21 110.028 11.2006 110.458C10.1913 110.889 9.06172 110.947 8.0137 110.621C7.80185 110.555 7.89534 110.222 8.10745 110.289C9.08281 110.594 10.135 110.54 11.0741 110.137C12.0132 109.734 12.7773 109.009 13.2286 108.092C13.3269 107.893 13.6216 108.073 13.5239 108.271V108.271Z" fill="white"/>
<path d="M22.973 108.94C22.282 106.806 20.812 105.011 18.8562 103.912C18.6623 103.804 18.8412 103.509 19.0348 103.617C21.068 104.764 22.5939 106.635 23.3081 108.858C23.376 109.07 23.0405 109.151 22.973 108.94Z" fill="white"/>
<path d="M5.04729 102.868C5.31621 102.528 5.4964 102.126 5.57167 101.699C5.64695 101.272 5.61496 100.833 5.47857 100.421C5.408 100.21 5.74356 100.129 5.81367 100.339C5.96224 100.794 5.99698 101.279 5.91485 101.752C5.83273 102.224 5.63624 102.668 5.34256 103.047C5.31787 103.085 5.27963 103.112 5.23562 103.123C5.1916 103.134 5.14512 103.128 5.10561 103.105C5.06663 103.082 5.03864 103.043 5.02772 102.999C5.0168 102.955 5.02383 102.908 5.04729 102.868V102.868Z" fill="white"/>
<path d="M18.7461 78.6001C18.7939 78.7305 18.8417 78.861 18.8923 78.9922C19.5442 80.7426 20.3373 82.4372 21.2636 84.0591C21.3332 84.1857 21.4057 84.3129 21.4788 84.4371C23.7522 88.321 26.7269 91.7491 30.2517 94.5471C31.6553 95.6592 33.1415 96.6629 34.6974 97.5495C36.8463 98.7738 39.2736 99.9303 40.8462 101.74C41.0124 101.927 41.1668 102.124 41.3086 102.33L38.4584 114.773C38.4377 114.798 38.4199 114.824 38.3992 114.849L38.3081 115.352C38.2246 115.311 38.139 115.268 38.0555 115.228C38.007 115.205 37.9592 115.179 37.9107 115.156C37.8785 115.14 37.8464 115.123 37.8165 115.11C37.8058 115.105 37.7951 115.099 37.7872 115.095C37.7573 115.082 37.7308 115.067 37.7038 115.055C37.2242 114.813 36.7455 114.568 36.2676 114.319C36.2648 114.319 36.2648 114.319 36.2626 114.315C32.6032 112.454 29.1777 110.165 26.0577 107.496C25.9657 107.415 25.8708 107.334 25.7801 107.247C24.4076 106.028 23.1372 104.698 21.9813 103.272C21.3509 102.489 20.7606 101.675 20.2125 100.832C18.8007 98.6522 17.7405 96.2636 17.0708 93.7542C15.7367 88.7513 16.0174 83.3775 18.5493 78.9374C18.6142 78.8239 18.6784 78.713 18.7461 78.6001Z" fill="#F0F0F0"/>
<path d="M18.8976 78.6642C18.709 85.1426 20.5664 91.5157 24.2061 96.8784C24.9692 98.0467 25.9116 99.0875 26.9988 99.9624C28.0853 100.78 29.3711 101.293 30.7225 101.446C31.9797 101.614 33.2852 101.64 34.4796 102.111C35.0875 102.361 35.6356 102.736 36.0881 103.213C36.5406 103.69 36.8872 104.257 37.1051 104.877C37.6885 106.408 37.687 108.057 37.6294 109.669C37.5656 111.46 37.4708 113.319 38.2143 114.996C38.3044 115.199 37.9839 115.327 37.8939 115.124C36.6004 112.206 37.756 108.958 37.0642 105.932C36.7414 104.52 35.991 103.197 34.6405 102.556C33.4595 101.996 32.1134 101.968 30.8389 101.809C29.5184 101.679 28.2498 101.227 27.1439 100.494C26.0157 99.6772 25.0347 98.6745 24.243 97.5287C22.4193 94.9774 21.0082 92.1554 20.0612 89.1658C18.9614 85.7598 18.4525 82.1908 18.5562 78.6132C18.5628 78.3918 18.9041 78.4442 18.8976 78.6642L18.8976 78.6642Z" fill="white"/>
<path d="M22.9325 95.2206C21.9499 95.7092 20.8256 95.8325 19.7604 95.5686C18.6953 95.3047 17.7586 94.6708 17.1177 93.78C16.9886 93.5993 17.2634 93.3903 17.3926 93.5712C17.9879 94.4018 18.8604 94.9922 19.8528 95.2359C20.8452 95.4796 21.892 95.3606 22.8043 94.9002C23.0027 94.8004 23.1298 95.1214 22.9325 95.2206Z" fill="white"/>
<path d="M30.0739 101.445C30.8071 99.3245 30.7143 97.006 29.814 94.9513C29.7247 94.7478 30.0452 94.6199 30.1344 94.8231C31.0673 96.963 31.1589 99.376 30.3911 101.58C30.3177 101.79 30.0009 101.653 30.0739 101.445Z" fill="white"/>
<path d="M19.4169 85.804C19.8365 85.6942 20.2223 85.4819 20.5395 85.1862C20.8568 84.8904 21.0956 84.5206 21.2346 84.1097C21.3053 83.8988 21.622 84.0361 21.5518 84.2456C21.3962 84.6988 21.1319 85.107 20.7821 85.4345C20.4323 85.762 20.0076 85.9988 19.5451 86.1244C19.5025 86.1398 19.4556 86.1385 19.4139 86.1207C19.3723 86.1028 19.339 86.0698 19.3208 86.0283C19.304 85.9858 19.3047 85.9384 19.3227 85.8964C19.3407 85.8543 19.3746 85.8212 19.4169 85.804H19.4169Z" fill="white"/>
<path d="M237.449 114.131C244.422 110.57 249.974 103.43 249.821 95.6013C243.302 101.079 235.055 104.073 226.54 104.056C223.256 104.037 219.605 103.674 217.053 105.741C215.465 107.026 214.633 109.063 214.386 111.092C214.14 113.12 214.417 115.172 214.693 117.196L214.521 117.677C222.333 118.213 230.475 117.692 237.449 114.131Z" fill="#F0F0F0"/>
<path d="M249.658 95.5821C246.586 101.289 241.795 105.883 235.963 108.712C234.719 109.343 233.383 109.774 232.004 109.989C230.654 110.155 229.284 109.957 228.037 109.415C226.864 108.933 225.72 108.304 224.45 108.115C223.798 108.028 223.136 108.08 222.506 108.267C221.876 108.454 221.292 108.772 220.794 109.2C219.524 110.235 218.702 111.665 217.946 113.091C217.107 114.674 216.261 116.332 214.78 117.414C214.6 117.545 214.814 117.816 214.993 117.685C217.571 115.803 218.191 112.412 220.302 110.135C221.287 109.073 222.598 108.301 224.088 108.421C225.391 108.525 226.571 109.173 227.755 109.671C228.964 110.218 230.288 110.46 231.613 110.377C232.998 110.233 234.349 109.854 235.607 109.257C238.461 107.957 241.093 106.217 243.406 104.1C246.059 101.698 248.283 98.8598 249.979 95.7084C250.084 95.5133 249.762 95.3883 249.658 95.5821Z" fill="white"/>
<path d="M237.895 107.912C238.502 108.826 239.414 109.494 240.469 109.797C241.524 110.1 242.652 110.019 243.652 109.567C243.854 109.475 243.72 109.157 243.518 109.249C242.588 109.671 241.537 109.747 240.555 109.463C239.574 109.178 238.726 108.553 238.166 107.698C238.044 107.513 237.773 107.727 237.895 107.912Z" fill="white"/>
<path d="M228.599 109.738C229.023 107.535 230.261 105.573 232.067 104.242C232.246 104.11 232.032 103.839 231.853 103.971C229.977 105.359 228.692 107.404 228.257 109.697C228.215 109.916 228.558 109.955 228.599 109.738H228.599Z" fill="white"/>
<path d="M245.643 101.509C245.334 101.204 245.106 100.827 244.979 100.413C244.852 99.998 244.829 99.5583 244.914 99.1329C244.958 98.9149 244.615 98.8757 244.571 99.0922C244.48 99.5626 244.505 100.048 244.645 100.507C244.784 100.965 245.034 101.382 245.372 101.722C245.401 101.757 245.442 101.779 245.487 101.784C245.532 101.79 245.578 101.778 245.614 101.751C245.65 101.722 245.673 101.681 245.678 101.636C245.684 101.59 245.671 101.545 245.643 101.509H245.643Z" fill="white"/>
<path d="M229.065 79.1082C229.034 79.2435 229.002 79.3788 228.968 79.5153C228.536 81.3325 227.957 83.1117 227.238 84.8352C227.184 84.9694 227.128 85.1045 227.07 85.2368C225.292 89.3707 222.761 93.1385 219.607 96.3485C218.35 97.6247 216.999 98.8034 215.564 99.8746C213.582 101.354 211.315 102.8 209.977 104.789C209.835 104.995 209.706 105.209 209.59 105.431L213.948 117.43C213.972 117.453 213.993 117.476 214.017 117.498L214.169 117.985C214.247 117.935 214.326 117.882 214.404 117.832C214.449 117.803 214.494 117.771 214.539 117.742C214.569 117.722 214.599 117.702 214.627 117.686C214.637 117.679 214.647 117.672 214.654 117.667C214.682 117.65 214.707 117.632 214.732 117.617C215.178 117.318 215.623 117.016 216.067 116.71C216.07 116.709 216.07 116.709 216.071 116.706C219.474 114.408 222.592 111.715 225.361 108.683C225.442 108.592 225.526 108.499 225.606 108.402C226.818 107.024 227.915 105.548 228.887 103.991C229.416 103.136 229.902 102.256 230.342 101.352C231.476 99.0149 232.234 96.5141 232.59 93.9414C233.299 88.8125 232.36 83.5139 229.302 79.4187C229.223 79.314 229.146 79.2119 229.065 79.1082Z" fill="#F0F0F0"/>
<path d="M228.922 79.1904C229.906 85.5965 228.846 92.1496 225.893 97.9189C225.279 99.1722 224.472 100.321 223.501 101.323C222.523 102.268 221.31 102.935 219.987 103.253C218.76 103.574 217.468 103.76 216.341 104.374C215.768 104.697 215.27 105.137 214.88 105.666C214.489 106.195 214.215 106.8 214.075 107.442C213.684 109.033 213.888 110.67 214.144 112.263C214.427 114.032 214.75 115.865 214.218 117.621C214.154 117.834 214.487 117.921 214.552 117.709C215.477 114.654 213.931 111.573 214.245 108.485C214.392 107.044 214.974 105.638 216.236 104.836C217.339 104.135 218.671 103.942 219.917 103.627C221.211 103.336 222.415 102.732 223.422 101.868C224.441 100.919 225.292 99.8033 225.936 98.5688C227.433 95.8128 228.486 92.8386 229.059 89.7553C229.731 86.24 229.798 82.6355 229.255 79.0978C229.221 78.8788 228.889 78.9729 228.922 79.1904Z" fill="white"/>
<path d="M226.953 96.1172C227.988 96.4813 229.119 96.4655 230.144 96.0726C231.169 95.6798 232.02 94.9355 232.547 93.9728C232.653 93.7776 232.354 93.6039 232.248 93.7993C231.76 94.6968 230.966 95.39 230.011 95.7538C229.057 96.1177 228.003 96.1282 227.041 95.7835C226.832 95.7089 226.745 96.043 226.953 96.1172Z" fill="white"/>
<path d="M220.631 103.172C219.643 101.158 219.45 98.8455 220.091 96.6957C220.154 96.4828 219.821 96.3952 219.757 96.6079C219.094 98.8462 219.3 101.252 220.333 103.345C220.432 103.545 220.729 103.37 220.631 103.172Z" fill="white"/>
<path d="M229.285 86.3397C228.855 86.2823 228.446 86.119 228.095 85.8645C227.743 85.6101 227.461 85.2723 227.272 84.8817C227.176 84.6811 226.879 84.8562 226.974 85.0556C227.185 85.4862 227.497 85.8588 227.884 86.1408C228.272 86.4228 228.722 86.6057 229.197 86.6734C229.241 86.6835 229.287 86.6765 229.327 86.6536C229.366 86.6308 229.395 86.5939 229.408 86.5505C229.419 86.5062 229.413 86.4593 229.389 86.4198C229.366 86.3803 229.329 86.3515 229.285 86.3397V86.3397Z" fill="white"/>
<path d="M217.768 5.12524H168.636V8.28586C168.636 8.4477 168.691 8.60475 168.794 8.73006C168.695 11.2005 168.636 14.3542 168.636 17.7814V102.281C168.636 110.201 168.954 116.645 169.344 116.645H217.061C217.45 116.645 217.768 110.201 217.768 102.281V17.7814C217.768 14.3542 217.71 11.2005 217.611 8.73006C217.713 8.60474 217.769 8.44768 217.768 8.28586L217.768 5.12524Z" fill="white"/>
<path d="M217.06 116.987H169.344C168.972 116.987 168.726 116.987 168.503 112.45C168.369 109.727 168.295 106.116 168.295 102.281V17.7815C168.295 14.4692 168.351 11.2499 168.452 8.71639C168.516 7.19531 168.589 5.97687 168.669 5.09446C168.826 3.367 168.975 3.0752 169.344 3.0752H217.06C217.429 3.0752 217.579 3.367 217.736 5.09446C217.816 5.98021 217.889 7.19864 217.952 8.71572L217.952 8.71639C218.054 11.2472 218.109 14.4665 218.109 17.7815V102.281C218.109 106.116 218.036 109.728 217.901 112.45C217.678 116.987 217.432 116.987 217.06 116.987ZM169.538 116.304H216.866C217.114 115.37 217.426 110.3 217.426 102.281V17.7815C217.426 14.4755 217.37 11.2662 217.269 8.74441H217.269C217.206 7.23818 217.134 6.03093 217.055 5.15619C217.025 4.68633 216.96 4.21927 216.863 3.75857H169.541C169.444 4.21927 169.38 4.68634 169.349 5.15619C169.27 6.02759 169.198 7.23485 169.135 8.74441C169.034 11.2684 168.978 14.478 168.978 17.7815V102.281C168.978 110.3 169.291 115.37 169.538 116.304Z" fill="#E4E4E4"/>
<path d="M217.06 3.41699H169.344C169.156 3.41735 168.977 3.49198 168.844 3.62455C168.711 3.75711 168.637 3.9368 168.636 4.12429V8.28605C168.636 8.44789 168.691 8.60494 168.794 8.73025C168.86 8.81218 168.944 8.87829 169.039 8.9238C169.134 8.96931 169.238 8.99306 169.344 8.99334H217.06C217.166 8.99304 217.27 8.96928 217.365 8.92377C217.46 8.87826 217.544 8.81216 217.611 8.73025C217.713 8.60493 217.769 8.44787 217.768 8.28605V4.12429C217.767 3.93682 217.693 3.75713 217.56 3.62456C217.428 3.492 217.248 3.41736 217.06 3.41699Z" fill="#CACACA"/>
<path d="M172.744 7.00618C173.298 7.00618 173.748 6.55648 173.748 6.00175C173.748 5.44701 173.298 4.99731 172.744 4.99731C172.189 4.99731 171.739 5.44701 171.739 6.00175C171.739 6.55648 172.189 7.00618 172.744 7.00618Z" fill="white"/>
<path d="M176.556 7.00618C177.111 7.00618 177.56 6.55648 177.56 6.00175C177.56 5.44701 177.111 4.99731 176.556 4.99731C176.001 4.99731 175.552 5.44701 175.552 6.00175C175.552 6.55648 176.001 7.00618 176.556 7.00618Z" fill="white"/>
<path d="M180.369 7.00618C180.923 7.00618 181.373 6.55648 181.373 6.00175C181.373 5.44701 180.923 4.99731 180.369 4.99731C179.814 4.99731 179.364 5.44701 179.364 6.00175C179.364 6.55648 179.814 7.00618 180.369 7.00618Z" fill="white"/>
<path d="M213.326 4.66064H208.935C208.849 4.66122 208.767 4.6956 208.706 4.75636C208.645 4.81711 208.611 4.89934 208.611 4.98525C208.609 5.03416 208.621 5.08254 208.645 5.12534C208.671 5.18037 208.712 5.2269 208.763 5.25955C208.815 5.29221 208.874 5.30965 208.935 5.30986H213.326C213.387 5.31016 213.448 5.29296 213.5 5.26029C213.552 5.22762 213.593 5.18082 213.62 5.12534C213.641 5.08166 213.651 5.03369 213.65 4.98525C213.65 4.94261 213.642 4.90038 213.626 4.86099C213.609 4.82159 213.586 4.7858 213.555 4.75565C213.525 4.7255 213.489 4.7016 213.45 4.6853C213.411 4.66899 213.368 4.66062 213.326 4.66064Z" fill="white"/>
<path d="M213.326 5.88037H208.935C208.849 5.88037 208.766 5.91457 208.706 5.97544C208.645 6.03632 208.61 6.11888 208.61 6.20497C208.61 6.29106 208.645 6.37363 208.706 6.4345C208.766 6.49538 208.849 6.52958 208.935 6.52958H213.326C213.412 6.52958 213.494 6.49538 213.555 6.4345C213.616 6.37363 213.65 6.29106 213.65 6.20497C213.65 6.11888 213.616 6.03632 213.555 5.97544C213.494 5.91457 213.412 5.88037 213.326 5.88037Z" fill="white"/>
<path d="M213.326 7.1001H208.935C208.849 7.1001 208.766 7.1343 208.706 7.19518C208.645 7.25605 208.61 7.33861 208.61 7.4247C208.61 7.51079 208.645 7.59336 208.706 7.65423C208.766 7.71511 208.849 7.74931 208.935 7.74931H213.326C213.412 7.74931 213.494 7.71511 213.555 7.65423C213.616 7.59336 213.65 7.51079 213.65 7.4247C213.65 7.33861 213.616 7.25605 213.555 7.19518C213.494 7.1343 213.412 7.1001 213.326 7.1001Z" fill="white"/>
<path d="M197.95 18.1162H188.916C188.463 18.1164 188.028 18.2964 187.708 18.6168C187.387 18.9372 187.207 19.3716 187.207 19.8247V27.6493C187.208 28.1022 187.388 28.5363 187.708 28.8565C188.029 29.1768 188.463 29.357 188.916 29.3578H197.95C198.403 29.3564 198.836 29.176 199.156 28.8559C199.477 28.5358 199.657 28.102 199.658 27.6493V19.8247C199.658 19.3718 199.477 18.9377 199.157 18.6174C198.837 18.2972 198.403 18.117 197.95 18.1162Z" fill="#6C63FF"/>
<path d="M209.174 34.4695H177.688C177.482 34.4695 177.285 34.5512 177.139 34.6967C176.994 34.8421 176.912 35.0394 176.912 35.2451C176.912 35.4508 176.994 35.6481 177.139 35.7936C177.285 35.939 177.482 36.0208 177.688 36.0208H209.174C209.38 36.0208 209.577 35.939 209.723 35.7936C209.868 35.6481 209.95 35.4508 209.95 35.2451C209.95 35.0394 209.868 34.8421 209.723 34.6967C209.577 34.5512 209.38 34.4695 209.174 34.4695Z" fill="#E4E4E4"/>
<path d="M189.647 38.105H177.688C177.482 38.105 177.285 38.1867 177.139 38.3322C176.994 38.4776 176.912 38.6749 176.912 38.8806C176.912 39.0863 176.994 39.2836 177.139 39.4291C177.285 39.5745 177.482 39.6562 177.688 39.6562H189.647C189.853 39.6562 190.05 39.5745 190.195 39.4291C190.341 39.2836 190.423 39.0863 190.423 38.8806C190.423 38.6749 190.341 38.4776 190.195 38.3322C190.05 38.1867 189.853 38.105 189.647 38.105Z" fill="#E4E4E4"/>
<path d="M197.95 51.9434H188.916C188.463 51.9435 188.028 52.1236 187.708 52.444C187.387 52.7643 187.207 53.1987 187.207 53.6518V61.4765C187.208 61.9293 187.388 62.3634 187.708 62.6837C188.029 63.0039 188.463 63.1841 188.916 63.1849H197.95C198.403 63.1836 198.836 63.0032 199.156 62.6831C199.477 62.3629 199.657 61.9292 199.658 61.4765V53.6518C199.658 53.1989 199.477 52.7648 199.157 52.4446C198.837 52.1243 198.403 51.9441 197.95 51.9434Z" fill="#6C63FF"/>
<path d="M209.174 68.2966H177.688C177.482 68.2966 177.285 68.3783 177.139 68.5238C176.994 68.6693 176.912 68.8665 176.912 69.0723C176.912 69.278 176.994 69.4753 177.139 69.6207C177.285 69.7662 177.482 69.8479 177.688 69.8479H209.174C209.38 69.8479 209.577 69.7662 209.723 69.6207C209.868 69.4753 209.95 69.278 209.95 69.0723C209.95 68.8665 209.868 68.6693 209.723 68.5238C209.577 68.3783 209.38 68.2966 209.174 68.2966Z" fill="#E4E4E4"/>
<path d="M189.647 71.9321H177.688C177.482 71.9321 177.285 72.0139 177.139 72.1593C176.994 72.3048 176.912 72.5021 176.912 72.7078C176.912 72.9135 176.994 73.1108 177.139 73.2562C177.285 73.4017 177.482 73.4834 177.688 73.4834H189.647C189.853 73.4834 190.05 73.4017 190.195 73.2562C190.341 73.1108 190.423 72.9135 190.423 72.7078C190.423 72.5021 190.341 72.3048 190.195 72.1593C190.05 72.0139 189.853 71.9321 189.647 71.9321Z" fill="#E4E4E4"/>
<path d="M197.95 85.7705H188.916C188.463 85.7707 188.028 85.9507 187.708 86.2711C187.387 86.5915 187.207 87.0259 187.207 87.4789V95.3036C187.208 95.7565 187.388 96.1906 187.708 96.5108C188.029 96.831 188.463 97.0113 188.916 97.012H197.95C198.403 97.0107 198.836 96.8303 199.156 96.5102C199.477 96.1901 199.657 95.7563 199.658 95.3036V87.4789C199.658 87.0261 199.477 86.592 199.157 86.2717C198.837 85.9515 198.403 85.7713 197.95 85.7705Z" fill="#6C63FF"/>
<path d="M209.174 102.124H177.688C177.482 102.124 177.285 102.205 177.139 102.351C176.994 102.496 176.912 102.694 176.912 102.899C176.912 103.105 176.994 103.302 177.139 103.448C177.285 103.593 177.482 103.675 177.688 103.675H209.174C209.38 103.675 209.577 103.593 209.723 103.448C209.868 103.302 209.95 103.105 209.95 102.899C209.95 102.694 209.868 102.496 209.723 102.351C209.577 102.205 209.38 102.124 209.174 102.124Z" fill="#E4E4E4"/>
<path d="M189.647 105.759H177.688C177.482 105.759 177.285 105.841 177.139 105.986C176.994 106.132 176.912 106.329 176.912 106.535C176.912 106.741 176.994 106.938 177.139 107.083C177.285 107.229 177.482 107.311 177.688 107.311H189.647C189.853 107.311 190.05 107.229 190.195 107.083C190.341 106.938 190.423 106.741 190.423 106.535C190.423 106.329 190.341 106.132 190.195 105.986C190.05 105.841 189.853 105.759 189.647 105.759Z" fill="#E4E4E4"/>
<path d="M155.239 1.04909C155.239 0.861626 155.164 0.681937 155.031 0.549372C154.899 0.416806 154.719 0.342165 154.532 0.341797H28.2267C28.0392 0.342159 27.8595 0.416789 27.7269 0.549351C27.5943 0.681913 27.5197 0.861609 27.5193 1.04909V5.21085C27.5187 5.38412 27.5834 5.55126 27.7005 5.67897C27.5877 8.50473 27.5193 12.2291 27.5193 16.3089V110.242C27.5193 119.051 27.8371 126.213 28.2267 126.213H154.532C154.921 126.213 155.239 119.051 155.239 110.242V16.3089C155.239 12.2291 155.171 8.50473 155.058 5.67897C155.175 5.55124 155.24 5.3841 155.239 5.21085V1.04909Z" fill="white"/>
<path d="M154.532 126.554H28.2267C27.8406 126.554 27.6075 126.554 27.3855 121.546C27.2514 118.52 27.1776 114.506 27.1776 110.242V16.3088C27.1776 12.3769 27.242 8.59693 27.3591 5.66522C27.5837 4.56203e-06 27.8395 0 28.2267 0H154.532C154.919 0 155.175 0.0010056 155.399 5.66522C155.516 8.59426 155.581 12.3742 155.581 16.3088V110.242C155.581 114.506 155.507 118.52 155.373 121.546C155.151 126.554 154.918 126.554 154.532 126.554ZM28.4261 125.871H154.332C154.612 124.8 154.897 118.784 154.897 110.242V16.3088C154.897 12.383 154.833 8.61261 154.716 5.69258V5.69241C154.574 2.10352 154.408 1.01138 154.328 0.683376H28.4298C28.3504 1.0114 28.1842 2.10352 28.0419 5.69241C27.9252 8.61545 27.861 12.3857 27.861 16.3088V110.242C27.861 118.784 28.1465 124.8 28.4261 125.871Z" fill="#E4E4E4"/>
<path d="M154.532 0.341797H28.2267C28.0392 0.342159 27.8595 0.416789 27.7269 0.549351C27.5943 0.681913 27.5197 0.861609 27.5193 1.04909V5.21085C27.5187 5.38412 27.5834 5.55126 27.7005 5.67897C27.7661 5.75396 27.847 5.81408 27.9378 5.85533C28.0285 5.89657 28.127 5.91799 28.2267 5.91815H154.532C154.631 5.91799 154.73 5.89657 154.82 5.85533C154.911 5.81408 154.992 5.75396 155.058 5.67897C155.175 5.55124 155.239 5.3841 155.239 5.21085V1.04909C155.238 0.861631 155.164 0.681947 155.031 0.549382C154.899 0.416818 154.719 0.342173 154.532 0.341797Z" fill="#CACACA"/>
<path d="M31.6263 3.93123C32.181 3.93123 32.6307 3.48153 32.6307 2.9268C32.6307 2.37206 32.181 1.92236 31.6263 1.92236C31.0716 1.92236 30.6219 2.37206 30.6219 2.9268C30.6219 3.48153 31.0716 3.93123 31.6263 3.93123Z" fill="white"/>
<path d="M35.4388 3.93123C35.9936 3.93123 36.4432 3.48153 36.4432 2.9268C36.4432 2.37206 35.9936 1.92236 35.4388 1.92236C34.8841 1.92236 34.4344 2.37206 34.4344 2.9268C34.4344 3.48153 34.8841 3.93123 35.4388 3.93123Z" fill="white"/>
<path d="M39.2515 3.93123C39.8062 3.93123 40.2559 3.48153 40.2559 2.9268C40.2559 2.37206 39.8062 1.92236 39.2515 1.92236C38.6968 1.92236 38.2471 2.37206 38.2471 2.9268C38.2471 3.48153 38.6968 3.93123 39.2515 3.93123Z" fill="white"/>
<path d="M150.797 1.58545H146.406C146.32 1.58545 146.238 1.61965 146.177 1.68052C146.116 1.7414 146.082 1.82396 146.082 1.91005C146.082 1.99614 146.116 2.07871 146.177 2.13958C146.238 2.20046 146.32 2.23466 146.406 2.23466H150.797C150.883 2.23466 150.966 2.20046 151.026 2.13958C151.087 2.07871 151.122 1.99614 151.122 1.91005C151.122 1.82396 151.087 1.7414 151.026 1.68052C150.966 1.61965 150.883 1.58545 150.797 1.58545Z" fill="white"/>
<path d="M150.797 2.80518H146.406C146.32 2.80518 146.238 2.83937 146.177 2.90025C146.116 2.96112 146.082 3.04369 146.082 3.12978C146.082 3.21587 146.116 3.29843 146.177 3.35931C146.238 3.42018 146.32 3.45438 146.406 3.45438H150.797C150.883 3.45438 150.966 3.42018 151.026 3.35931C151.087 3.29843 151.122 3.21587 151.122 3.12978C151.122 3.04369 151.087 2.96112 151.026 2.90025C150.966 2.83937 150.883 2.80518 150.797 2.80518Z" fill="white"/>
<path d="M150.797 4.0249H146.406C146.32 4.0249 146.238 4.05911 146.177 4.11998C146.116 4.18086 146.082 4.26341 146.082 4.3495C146.082 4.4356 146.116 4.51816 146.177 4.57903C146.238 4.63991 146.32 4.67411 146.406 4.67411H150.797C150.883 4.67411 150.966 4.63991 151.026 4.57903C151.087 4.51816 151.122 4.4356 151.122 4.3495C151.122 4.26341 151.087 4.18086 151.026 4.11998C150.966 4.05911 150.883 4.0249 150.797 4.0249Z" fill="white"/>
<path d="M69.0515 21.1914H54.27C53.529 21.1923 52.8186 21.4871 52.2947 22.0111C51.7707 22.535 51.476 23.2454 51.4751 23.9864V36.7895C51.476 37.5305 51.7707 38.2409 52.2947 38.7648C52.8186 39.2888 53.529 39.5836 54.27 39.5845H69.0515C69.7925 39.5836 70.5029 39.2888 71.0269 38.7648C71.5508 38.2409 71.8456 37.5305 71.8464 36.7895V23.9864C71.8456 23.2454 71.5508 22.535 71.0269 22.0111C70.5029 21.4871 69.7925 21.1923 69.0515 21.1914Z" fill="#6C63FF"/>
<path d="M130.019 26.1426H78.4992C78.1625 26.1426 77.8396 26.2763 77.6016 26.5144C77.3635 26.7524 77.2298 27.0753 77.2298 27.4119C77.2298 27.7486 77.3635 28.0715 77.6016 28.3095C77.8396 28.5476 78.1625 28.6813 78.4992 28.6813H130.019C130.355 28.6813 130.678 28.5476 130.916 28.3095C131.154 28.0715 131.288 27.7486 131.288 27.4119C131.288 27.0753 131.154 26.7524 130.916 26.5144C130.678 26.2763 130.355 26.1426 130.019 26.1426Z" fill="#E4E4E4"/>
<path d="M98.0677 32.0913H78.4992C78.1625 32.0913 77.8397 32.225 77.6016 32.4631C77.3636 32.7012 77.2298 33.024 77.2298 33.3607C77.2298 33.6973 77.3636 34.0202 77.6016 34.2583C77.8397 34.4963 78.1625 34.63 78.4992 34.63H98.0677C98.4043 34.63 98.7272 34.4963 98.9653 34.2583C99.2033 34.0202 99.3371 33.6973 99.3371 33.3607C99.3371 33.024 99.2033 32.7012 98.9653 32.4631C98.7272 32.225 98.4043 32.0913 98.0677 32.0913Z" fill="#E4E4E4"/>
<path d="M69.0515 55.3601H54.27C53.529 55.361 52.8186 55.6558 52.2947 56.1798C51.7707 56.7037 51.476 57.4141 51.4751 58.1551V70.9582C51.476 71.6992 51.7707 72.4096 52.2947 72.9335C52.8186 73.4575 53.529 73.7523 54.27 73.7532H69.0515C69.7925 73.7523 70.5029 73.4575 71.0269 72.9335C71.5508 72.4096 71.8456 71.6992 71.8464 70.9582V58.1551C71.8456 57.4141 71.5508 56.7037 71.0269 56.1798C70.5029 55.6558 69.7925 55.361 69.0515 55.3601Z" fill="#6C63FF"/>
<path d="M130.019 60.3113H78.4992C78.1625 60.3113 77.8396 60.445 77.6016 60.6831C77.3635 60.9211 77.2298 61.244 77.2298 61.5806C77.2298 61.9173 77.3635 62.2402 77.6016 62.4782C77.8396 62.7163 78.1625 62.85 78.4992 62.85H130.019C130.355 62.85 130.678 62.7163 130.916 62.4782C131.154 62.2402 131.288 61.9173 131.288 61.5806C131.288 61.244 131.154 60.9211 130.916 60.6831C130.678 60.445 130.355 60.3113 130.019 60.3113Z" fill="#E4E4E4"/>
<path d="M98.0677 66.26H78.4992C78.1625 66.26 77.8397 66.3937 77.6016 66.6318C77.3636 66.8699 77.2298 67.1927 77.2298 67.5294C77.2298 67.866 77.3636 68.1889 77.6016 68.427C77.8397 68.665 78.1625 68.7988 78.4992 68.7988H98.0677C98.4043 68.7988 98.7272 68.665 98.9653 68.427C99.2033 68.1889 99.3371 67.866 99.3371 67.5294C99.3371 67.1927 99.2033 66.8699 98.9653 66.6318C98.7272 66.3937 98.4043 66.26 98.0677 66.26Z" fill="#E4E4E4"/>
<path d="M69.0515 89.5291H54.27C53.529 89.53 52.8186 89.8247 52.2947 90.3487C51.7707 90.8727 51.476 91.5831 51.4751 92.3241V105.127C51.476 105.868 51.7707 106.578 52.2947 107.102C52.8186 107.626 53.529 107.921 54.27 107.922H69.0515C69.7925 107.921 70.5029 107.626 71.0269 107.102C71.5508 106.578 71.8456 105.868 71.8464 105.127V92.3241C71.8456 91.5831 71.5508 90.8727 71.0269 90.3487C70.5029 89.8247 69.7925 89.53 69.0515 89.5291Z" fill="#6C63FF"/>
<path d="M130.019 94.48H78.4992C78.1625 94.48 77.8396 94.6137 77.6016 94.8518C77.3635 95.0898 77.2298 95.4127 77.2298 95.7493C77.2298 96.086 77.3635 96.4089 77.6016 96.6469C77.8396 96.885 78.1625 97.0187 78.4992 97.0187H130.019C130.355 97.0187 130.678 96.885 130.916 96.6469C131.154 96.4089 131.288 96.086 131.288 95.7493C131.288 95.4127 131.154 95.0898 130.916 94.8518C130.678 94.6137 130.355 94.48 130.019 94.48Z" fill="#E4E4E4"/>
<path d="M98.0677 100.429H78.4992C78.1625 100.429 77.8397 100.563 77.6016 100.801C77.3636 101.039 77.2298 101.362 77.2298 101.698C77.2298 102.035 77.3636 102.358 77.6016 102.596C77.8397 102.834 78.1625 102.968 78.4992 102.968H98.0677C98.4043 102.968 98.7272 102.834 98.9653 102.596C99.2033 102.358 99.3371 102.035 99.3371 101.698C99.3371 101.362 99.2033 101.039 98.9653 100.801C98.7272 100.563 98.4043 100.429 98.0677 100.429Z" fill="#E4E4E4"/>
<path d="M177.084 148.764H92.4654C92.0753 148.764 91.7579 142.768 91.7579 135.396V56.762C91.7579 49.3905 92.0753 43.394 92.4654 43.394H177.084C177.474 43.394 177.791 49.3905 177.791 56.762V135.396C177.792 142.768 177.474 148.764 177.084 148.764Z" fill="white"/>
<path d="M177.084 149.106H92.4654C92.1074 149.106 91.8487 149.106 91.6241 144.862C91.49 142.329 91.4162 138.967 91.4162 135.396V56.762C91.4162 53.1911 91.49 49.8291 91.6241 47.2957C91.8487 43.0522 92.1074 43.0522 92.4654 43.0522H177.084C177.442 43.0522 177.701 43.0522 177.925 47.2957C178.059 49.8291 178.133 53.1911 178.133 56.762V135.396C178.133 138.967 178.059 142.329 177.925 144.862C177.701 149.106 177.442 149.106 177.084 149.106ZM92.6545 148.422H176.895C177.14 147.537 177.45 142.821 177.45 135.396V56.762C177.45 49.3373 177.14 44.6209 176.895 43.7356H92.6545C92.4092 44.6209 92.0996 49.3373 92.0996 56.762V135.396C92.0995 142.821 92.4092 147.537 92.6545 148.422Z" fill="#E4E4E4"/>
<path d="M177.084 48.9705H92.4654C92.2778 48.9703 92.098 48.8957 91.9653 48.7631C91.8327 48.6305 91.7581 48.4506 91.7579 48.2631V44.1015C91.7581 43.9139 91.8327 43.7341 91.9653 43.6015C92.098 43.4689 92.2778 43.3942 92.4654 43.394H177.084C177.272 43.3942 177.451 43.4689 177.584 43.6015C177.717 43.7341 177.791 43.9139 177.791 44.1015V48.2631C177.791 48.4506 177.717 48.6305 177.584 48.7631C177.451 48.8957 177.272 48.9703 177.084 48.9705Z" fill="#CACACA"/>
<path d="M95.8637 46.9837C96.4184 46.9837 96.8681 46.534 96.8681 45.9793C96.8681 45.4246 96.4184 44.9749 95.8637 44.9749C95.3089 44.9749 94.8592 45.4246 94.8592 45.9793C94.8592 46.534 95.3089 46.9837 95.8637 46.9837Z" fill="white"/>
<path d="M99.6762 46.9837C100.231 46.9837 100.681 46.534 100.681 45.9793C100.681 45.4246 100.231 44.9749 99.6762 44.9749C99.1214 44.9749 98.6717 45.4246 98.6717 45.9793C98.6717 46.534 99.1214 46.9837 99.6762 46.9837Z" fill="white"/>
<path d="M103.489 46.9837C104.044 46.9837 104.493 46.534 104.493 45.9793C104.493 45.4246 104.044 44.9749 103.489 44.9749C102.934 44.9749 102.484 45.4246 102.484 45.9793C102.484 46.534 102.934 46.9837 103.489 46.9837Z" fill="white"/>
<path d="M173.349 45.2879H168.958C168.872 45.2879 168.789 45.2536 168.728 45.1926C168.667 45.1316 168.633 45.0489 168.633 44.9627C168.633 44.8764 168.667 44.7937 168.728 44.7327C168.789 44.6717 168.872 44.6375 168.958 44.6375H173.349C173.435 44.6377 173.517 44.6721 173.578 44.7331C173.639 44.794 173.673 44.8766 173.673 44.9627C173.673 45.0487 173.639 45.1313 173.578 45.1922C173.517 45.2532 173.435 45.2876 173.349 45.2879Z" fill="white"/>
<path d="M173.349 46.5076H168.958C168.872 46.5076 168.789 46.4733 168.728 46.4123C168.667 46.3513 168.633 46.2686 168.633 46.1824C168.633 46.0961 168.667 46.0134 168.728 45.9524C168.789 45.8914 168.872 45.8572 168.958 45.8572H173.349C173.435 45.8572 173.517 45.8914 173.578 45.9524C173.639 46.0134 173.674 46.0961 173.674 46.1824C173.674 46.2686 173.639 46.3513 173.578 46.4123C173.517 46.4733 173.435 46.5076 173.349 46.5076Z" fill="white"/>
<path d="M173.349 47.7271H168.958C168.872 47.7271 168.789 47.6928 168.728 47.6318C168.667 47.5708 168.633 47.4881 168.633 47.4019C168.633 47.3156 168.667 47.2329 168.728 47.1719C168.789 47.1109 168.872 47.0767 168.958 47.0767H173.349C173.435 47.0769 173.517 47.1113 173.578 47.1723C173.639 47.2332 173.673 47.3158 173.673 47.4019C173.673 47.4879 173.639 47.5705 173.578 47.6314C173.517 47.6924 173.435 47.7268 173.349 47.7271Z" fill="white"/>
<path d="M118.468 74.8012H107.673C107.132 74.8006 106.613 74.5853 106.23 74.2026C105.847 73.8199 105.632 73.301 105.631 72.7598V63.4101C105.632 62.8689 105.847 62.35 106.23 61.9673C106.613 61.5846 107.132 61.3693 107.673 61.3687H118.468C119.009 61.3693 119.528 61.5846 119.911 61.9673C120.293 62.35 120.509 62.8689 120.509 63.4101V72.7598C120.509 73.301 120.293 73.8199 119.911 74.2026C119.528 74.5853 119.009 74.8006 118.468 74.8012Z" fill="#6C63FF"/>
<path d="M162.991 66.8395H125.368C125.122 66.8395 124.886 66.7418 124.712 66.568C124.539 66.3942 124.441 66.1585 124.441 65.9127C124.441 65.6669 124.539 65.4311 124.712 65.2573C124.886 65.0835 125.122 64.9858 125.368 64.9858H162.991C163.237 64.9858 163.473 65.0835 163.647 65.2573C163.82 65.4311 163.918 65.6669 163.918 65.9127C163.918 66.1585 163.82 66.3942 163.647 66.568C163.473 66.7418 163.237 66.8395 162.991 66.8395Z" fill="#E4E4E4"/>
<path d="M139.658 71.184H125.368C125.122 71.184 124.886 71.0863 124.712 70.9125C124.539 70.7387 124.441 70.5029 124.441 70.2571C124.441 70.0113 124.539 69.7756 124.712 69.6018C124.886 69.428 125.122 69.3303 125.368 69.3303H139.658C139.78 69.3301 139.9 69.3539 140.013 69.4004C140.126 69.4468 140.228 69.5151 140.314 69.6012C140.401 69.6872 140.469 69.7895 140.516 69.9021C140.562 70.0146 140.586 70.1353 140.586 70.2571C140.586 70.379 140.562 70.4997 140.516 70.6122C140.469 70.7248 140.401 70.827 140.314 70.9131C140.228 70.9992 140.126 71.0674 140.013 71.1139C139.9 71.1604 139.78 71.1842 139.658 71.184Z" fill="#E4E4E4"/>
<path d="M118.468 102.478H107.673C107.132 102.477 106.613 102.262 106.23 101.879C105.847 101.497 105.632 100.978 105.631 100.437V91.0868C105.632 90.5456 105.847 90.0267 106.23 89.644C106.613 89.2613 107.132 89.046 107.673 89.0454H118.468C119.009 89.046 119.528 89.2613 119.911 89.644C120.293 90.0267 120.509 90.5456 120.509 91.0868V100.437C120.509 100.978 120.293 101.497 119.911 101.879C119.528 102.262 119.009 102.477 118.468 102.478Z" fill="#6C63FF"/>
<path d="M162.991 94.5162H125.368C125.122 94.5162 124.886 94.4186 124.712 94.2448C124.539 94.071 124.441 93.8352 124.441 93.5894C124.441 93.3436 124.539 93.1079 124.712 92.9341C124.886 92.7602 125.122 92.6626 125.368 92.6626H162.991C163.237 92.6626 163.473 92.7602 163.647 92.9341C163.82 93.1079 163.918 93.3436 163.918 93.5894C163.918 93.8352 163.82 94.071 163.647 94.2448C163.473 94.4186 163.237 94.5162 162.991 94.5162Z" fill="#E4E4E4"/>
<path d="M139.658 98.8607H125.368C125.122 98.8607 124.886 98.7631 124.712 98.5893C124.539 98.4154 124.441 98.1797 124.441 97.9339C124.441 97.6881 124.539 97.4523 124.712 97.2785C124.886 97.1047 125.122 97.0071 125.368 97.0071H139.658C139.78 97.0068 139.9 97.0306 140.013 97.0771C140.126 97.1236 140.228 97.1918 140.314 97.2779C140.401 97.364 140.469 97.4662 140.516 97.5788C140.562 97.6914 140.586 97.812 140.586 97.9339C140.586 98.0558 140.562 98.1764 140.516 98.289C140.469 98.4015 140.401 98.5038 140.314 98.5899C140.228 98.676 140.126 98.7442 140.013 98.7907C139.9 98.8371 139.78 98.8609 139.658 98.8607Z" fill="#E4E4E4"/>
<path d="M118.468 130.155H107.673C107.132 130.154 106.613 129.939 106.23 129.556C105.847 129.173 105.632 128.654 105.631 128.113V118.764C105.632 118.222 105.847 117.703 106.23 117.321C106.613 116.938 107.132 116.723 107.673 116.722H118.468C119.009 116.723 119.528 116.938 119.911 117.321C120.293 117.703 120.509 118.222 120.509 118.764V128.113C120.509 128.655 120.293 129.173 119.911 129.556C119.528 129.939 119.009 130.154 118.468 130.155Z" fill="#6C63FF"/>
<path d="M162.991 122.193H125.368C125.122 122.193 124.886 122.095 124.712 121.922C124.539 121.748 124.441 121.512 124.441 121.266C124.441 121.02 124.539 120.785 124.712 120.611C124.886 120.437 125.122 120.339 125.368 120.339H162.991C163.237 120.339 163.473 120.437 163.647 120.611C163.82 120.785 163.918 121.02 163.918 121.266C163.918 121.512 163.82 121.748 163.647 121.922C163.473 122.095 163.237 122.193 162.991 122.193Z" fill="#E4E4E4"/>
<path d="M139.658 126.537H125.368C125.122 126.537 124.886 126.44 124.712 126.266C124.539 126.092 124.441 125.856 124.441 125.611C124.441 125.365 124.539 125.129 124.712 124.955C124.886 124.781 125.122 124.684 125.368 124.684H139.658C139.78 124.684 139.9 124.707 140.013 124.754C140.126 124.8 140.228 124.869 140.314 124.955C140.401 125.041 140.469 125.143 140.516 125.256C140.562 125.368 140.586 125.489 140.586 125.611C140.586 125.733 140.562 125.853 140.516 125.966C140.469 126.078 140.401 126.181 140.314 126.267C140.228 126.353 140.126 126.421 140.013 126.467C139.9 126.514 139.78 126.538 139.658 126.537Z" fill="#E4E4E4"/>
</g>
<defs>
<clipPath id="clip0_27:2070">
<rect width="250" height="149.106" fill="white"/>
</clipPath>
</defs>
</svg>
